<svg width="220" height="170" viewBox="0 0 220 170" fill="none" xmlns="http://www.w3.org/2000/svg">
<rect width="220" height="170" rx="8" fill="#F1F1F1"/>
<rect x="126.82" y="49.7515" width="44.1834" height="69.4311" rx="1.5503" fill="white"/>
<rect x="127.22" y="50.1515" width="43.3834" height="68.6311" rx="1.1503" stroke="#181818" stroke-opacity="0.15" stroke-width="0.8"/>
<rect x="133.133" y="56.0634" width="31.5596" height="44.8146" rx="2.52477" fill="#181818" fill-opacity="0.05"/>
<rect x="133.133" y="104.034" width="31.5596" height="8.83669" rx="2.52477" fill="#181818" fill-opacity="0.05"/>
<rect x="40" y="49.7515" width="44.1834" height="69.4311" rx="1.5503" fill="white"/>
<rect x="40.4" y="50.1515" width="43.3834" height="68.6311" rx="1.1503" stroke="#181818" stroke-opacity="0.15" stroke-width="0.8"/>
<rect x="46.3125" y="56.0634" width="31.5596" height="44.8146" rx="2.52477" fill="#181818" fill-opacity="0.05"/>
<rect x="46.3125" y="104.034" width="31.5596" height="8.83669" rx="2.52477" fill="#181818" fill-opacity="0.05"/>
<g filter="url(#filter0_d_1795_48460)">
<rect x="77.9844" y="42" width="54.2604" height="85.2663" rx="2.32544" fill="white" shape-rendering="crispEdges"/>
<rect x="78.3844" y="42.4" width="53.4604" height="84.4663" rx="1.92544" stroke="#181818" stroke-opacity="0.15" stroke-width="0.8" shape-rendering="crispEdges"/>
<rect x="85.7344" y="49.7515" width="38.7574" height="55.0355" rx="3.10059" fill="#181818" fill-opacity="0.05"/>
<rect x="85.7344" y="108.663" width="38.7574" height="10.8521" rx="3" fill="#181818" fill-opacity="0.25"/>
</g>
<path fill-rule="evenodd" clip-rule="evenodd" d="M37.1669 126.822C40.7644 122.984 46 117.4 46 113.032C46 108.596 41.9706 105 37 105C32.0294 105 28 108.596 28 113.032C28 117.468 33.04 123.159 37 127C37.0552 126.941 37.1109 126.882 37.1669 126.822ZM37 117.571C39.187 117.571 40.96 115.852 40.96 113.73C40.96 111.609 39.187 109.889 37 109.889C34.8129 109.889 33.04 111.609 33.04 113.73C33.04 115.852 34.8129 117.571 37 117.571Z" fill="#181818"/>
<rect x="155" y="35" width="32" height="32" rx="16" fill="#181818"/>
<rect x="155.4" y="35.4" width="31.2" height="31.2" rx="15.6" stroke="#181818" stroke-opacity="0.15" stroke-width="0.8"/>
<path d="M163 56L168.403 50.5001C168.458 50.445 168.545 50.4419 168.603 50.493L171.618 53.1537C171.678 53.2069 171.77 53.2011 171.824 53.1408L179 45M179 45H175M179 45V48.9286" stroke="white"/>
<defs>
<filter id="filter0_d_1795_48460" x="67.9844" y="36" width="74.2578" height="105.266" filterUnits="userSpaceOnUse" color-interpolation-filters="sRGB">
<feFlood flood-opacity="0" result="BackgroundImageFix"/>
<feColorMatrix in="SourceAlpha" type="matrix" values="0 0 0 0 0 0 0 0 0 0 0 0 0 0 0 0 0 0 127 0" result="hardAlpha"/>
<feOffset dy="4"/>
<feGaussianBlur stdDeviation="5"/>
<feComposite in2="hardAlpha" operator="out"/>
<feColorMatrix type="matrix" values="0 0 0 0 0 0 0 0 0 0 0 0 0 0 0 0 0 0 0.05 0"/>
<feBlend mode="normal" in2="BackgroundImageFix" result="effect1_dropShadow_1795_48460"/>
<feBlend mode="normal" in="SourceGraphic" in2="effect1_dropShadow_1795_48460" result="shape"/>
</filter>
</defs>
</svg>
