<svg viewBox="0 0 220 170" fill="none" xmlns="http://www.w3.org/2000/svg">
<rect width="220" height="170" rx="8" fill="#F1F1F1"/>
<g clip-path="url(#clip0_1795_48215)">
<rect x="52" y="36" width="101" height="87" rx="6" fill="white"/>
<rect x="52" y="36" width="102" height="16" fill="#181818" fill-opacity="0.15"/>
<rect x="63" y="59" width="26" height="25" rx="3" fill="#D9D9D9"/>
<rect x="98" y="59" width="32" height="6" rx="3" fill="#181818" fill-opacity="0.05"/>
<rect x="98" y="70" width="45" height="14" rx="2" fill="#181818" fill-opacity="0.05"/>
<rect x="63" y="91" width="26" height="25" rx="3" fill="#D9D9D9"/>
<rect x="98" y="91" width="32" height="6" rx="3" fill="#181818" fill-opacity="0.05"/>
<rect x="98" y="102" width="45" height="14" rx="2" fill="#181818" fill-opacity="0.05"/>
</g>
<rect x="52.5" y="36.5" width="100" height="86" rx="5.5" stroke="#181818" stroke-opacity="0.15"/>
<rect x="128" y="94" width="40" height="40" rx="20" fill="#181818"/>
<path d="M135.406 110.846V110.84C135.406 110.517 135.456 110.226 135.555 109.966C135.653 109.707 135.797 109.484 135.984 109.298C136.172 109.112 136.4 108.97 136.669 108.87C136.938 108.77 137.242 108.72 137.582 108.72H138.477C138.817 108.72 139.122 108.77 139.393 108.87C139.663 108.969 139.893 109.112 140.081 109.298C140.268 109.483 140.412 109.706 140.51 109.966C140.609 110.226 140.659 110.517 140.659 110.84V110.846C140.659 111.169 140.609 111.463 140.51 111.727C140.412 111.99 140.268 112.214 140.081 112.397C139.893 112.581 139.663 112.723 139.393 112.823C139.122 112.922 138.817 112.973 138.477 112.973H137.582C137.242 112.973 136.938 112.923 136.669 112.823C136.4 112.723 136.172 112.581 135.984 112.397C135.797 112.214 135.653 111.99 135.555 111.727C135.456 111.463 135.406 111.169 135.406 110.846ZM136.088 110.846C136.088 111.074 136.121 111.28 136.188 111.466C136.255 111.651 136.352 111.808 136.479 111.936C136.605 112.064 136.761 112.163 136.947 112.232C137.133 112.302 137.344 112.337 137.581 112.337H138.476C138.954 112.337 139.324 112.204 139.585 111.936C139.846 111.668 139.976 111.305 139.976 110.846V110.84C139.976 110.613 139.942 110.407 139.875 110.224C139.808 110.04 139.711 109.884 139.585 109.756C139.458 109.628 139.301 109.53 139.113 109.46C138.926 109.39 138.713 109.355 138.476 109.355H137.581C137.344 109.355 137.133 109.39 136.947 109.46C136.761 109.53 136.605 109.629 136.479 109.756C136.352 109.884 136.255 110.04 136.188 110.224C136.121 110.407 136.088 110.613 136.088 110.84V110.846Z" fill="white"/>
<path d="M144.206 109.708H144.893L146.026 111.996L146.921 108.773H147.662L146.435 112.917H145.783L144.556 110.39H144.544L143.311 112.917H142.665L141.438 108.773H142.178L143.068 111.996L144.206 109.708Z" fill="white"/>
<path d="M152.54 108.773H153.216V112.917H152.569L149.387 109.803V112.917H148.711V108.773H149.357L152.54 111.894V108.773Z" fill="white"/>
<path d="M139.647 117.472C139.557 117.282 139.424 117.138 139.25 117.041C139.076 116.944 138.851 116.896 138.576 116.896H137.605C137.327 116.896 137.113 116.942 136.964 117.035C136.815 117.128 136.74 117.258 136.74 117.425C136.74 117.552 136.789 117.663 136.887 117.758C136.985 117.853 137.162 117.922 137.417 117.966L139.059 118.162C139.27 118.198 139.448 118.253 139.591 118.329C139.734 118.404 139.848 118.494 139.932 118.599C140.016 118.704 140.077 118.821 140.115 118.95C140.152 119.079 140.171 119.214 140.171 119.357C140.171 119.706 140.038 119.986 139.773 120.198C139.509 120.41 139.131 120.516 138.641 120.516H137.646C137.203 120.516 136.837 120.436 136.548 120.275C136.26 120.115 136.059 119.882 135.945 119.577L136.528 119.214C136.622 119.463 136.764 119.644 136.952 119.755C137.14 119.866 137.376 119.921 137.658 119.921H138.653C138.935 119.921 139.149 119.87 139.294 119.767C139.439 119.664 139.512 119.523 139.512 119.344C139.512 119.182 139.46 119.053 139.356 118.958C139.252 118.862 139.084 118.793 138.853 118.75L137.152 118.536C136.956 118.5 136.79 118.447 136.655 118.378C136.519 118.309 136.408 118.226 136.322 118.131C136.236 118.036 136.174 117.93 136.137 117.813C136.099 117.697 136.081 117.573 136.081 117.442C136.081 117.085 136.213 116.805 136.478 116.601C136.743 116.396 137.128 116.294 137.634 116.294H138.594C138.978 116.294 139.299 116.362 139.556 116.497C139.813 116.631 139.998 116.818 140.112 117.056L139.647 117.472V117.472Z" fill="white"/>
<path d="M145.04 116.348V116.996H143.286V120.463H142.603V116.996H140.844V116.348H145.04H145.04Z" fill="white"/>
<path d="M145.57 118.406V118.4C145.57 118.079 145.619 117.79 145.717 117.532C145.815 117.274 145.957 117.053 146.144 116.869C146.33 116.685 146.557 116.543 146.823 116.444C147.09 116.344 147.392 116.295 147.73 116.295H148.618C148.956 116.295 149.259 116.345 149.527 116.444C149.796 116.543 150.024 116.684 150.21 116.869C150.396 117.053 150.539 117.274 150.637 117.532C150.735 117.79 150.784 118.079 150.784 118.4V118.406C150.784 118.727 150.735 119.018 150.637 119.28C150.539 119.542 150.397 119.764 150.21 119.946C150.024 120.128 149.796 120.269 149.527 120.368C149.259 120.468 148.956 120.517 148.618 120.517H147.73C147.392 120.517 147.09 120.467 146.823 120.368C146.557 120.269 146.33 120.129 146.144 119.946C145.957 119.764 145.815 119.542 145.717 119.28C145.619 119.018 145.57 118.727 145.57 118.406ZM146.247 118.406C146.247 118.632 146.281 118.837 146.347 119.021C146.414 119.205 146.51 119.361 146.636 119.488C146.762 119.615 146.916 119.713 147.101 119.782C147.285 119.852 147.495 119.886 147.731 119.886H148.619C149.094 119.886 149.461 119.754 149.72 119.488C149.979 119.222 150.108 118.862 150.108 118.406V118.4C150.108 118.174 150.075 117.97 150.008 117.788C149.942 117.606 149.845 117.451 149.72 117.324C149.594 117.197 149.438 117.099 149.252 117.03C149.065 116.96 148.855 116.926 148.619 116.926H147.731C147.495 116.926 147.285 116.96 147.101 117.03C146.916 117.099 146.762 117.197 146.636 117.324C146.51 117.451 146.414 117.606 146.347 117.788C146.281 117.97 146.247 118.175 146.247 118.4V118.406Z" fill="white"/>
<path d="M155.645 116.348H156.316V120.463H155.675L152.515 117.371V120.463H151.844V116.348H152.485L155.645 119.446V116.348Z" fill="white"/>
<path d="M161.332 116.348V116.966H158.278V118.108H161.068V118.72H158.278V119.843H161.332V120.462H157.602V116.347H161.332V116.348Z" fill="white"/>
<path d="M155.773 109.931L155.867 109.979C155.777 110.161 155.64 110.252 155.458 110.252C155.358 110.252 155.273 110.227 155.204 110.178C155.135 110.128 155.084 110.066 155.05 109.991C155.017 109.916 155 109.841 155 109.765C155 109.685 155.016 109.608 155.05 109.534C155.083 109.459 155.134 109.398 155.203 109.351C155.273 109.303 155.357 109.279 155.457 109.279C155.557 109.279 155.636 109.304 155.697 109.353C155.759 109.401 155.803 109.459 155.828 109.527C155.854 109.594 155.867 109.657 155.867 109.716V109.776H155.131C155.131 109.844 155.145 109.906 155.172 109.964C155.198 110.021 155.236 110.067 155.286 110.102C155.335 110.136 155.392 110.153 155.457 110.153C155.598 110.153 155.704 110.079 155.773 109.931ZM155.142 109.676H155.744C155.742 109.622 155.729 109.572 155.704 109.526C155.679 109.481 155.646 109.445 155.603 109.418C155.561 109.392 155.513 109.378 155.459 109.378C155.372 109.378 155.3 109.406 155.244 109.463C155.188 109.52 155.154 109.591 155.142 109.676V109.676Z" fill="white"/>
<path d="M156.047 110.03L156.148 109.976C156.165 110.029 156.193 110.071 156.232 110.103C156.271 110.135 156.318 110.152 156.371 110.152C156.431 110.152 156.477 110.135 156.509 110.101C156.541 110.068 156.558 110.025 156.558 109.974C156.558 109.916 156.539 109.875 156.502 109.851C156.464 109.827 156.412 109.805 156.347 109.785C156.292 109.768 156.247 109.751 156.212 109.733C156.177 109.715 156.147 109.689 156.124 109.656C156.1 109.624 156.088 109.581 156.088 109.531C156.088 109.483 156.1 109.441 156.122 109.402C156.145 109.364 156.178 109.333 156.221 109.311C156.263 109.289 156.314 109.278 156.372 109.278C156.499 109.278 156.592 109.34 156.649 109.463L156.557 109.512C156.541 109.473 156.516 109.441 156.481 109.416C156.447 109.39 156.407 109.378 156.362 109.378C156.314 109.378 156.276 109.392 156.25 109.42C156.224 109.448 156.211 109.481 156.211 109.521C156.211 109.552 156.218 109.578 156.233 109.596C156.247 109.615 156.266 109.63 156.287 109.639C156.308 109.648 156.343 109.661 156.391 109.677C156.449 109.697 156.497 109.715 156.536 109.734C156.575 109.752 156.61 109.781 156.639 109.82C156.669 109.858 156.684 109.908 156.684 109.969C156.684 110.044 156.657 110.11 156.603 110.166C156.549 110.223 156.467 110.251 156.359 110.251C156.208 110.251 156.104 110.177 156.047 110.029L156.047 110.03Z" fill="white"/>
<path d="M156.971 110.214V109.415H156.828V109.315H156.971V108.968H157.094V109.315H157.266V109.415H157.094V110.214H156.971Z" fill="white"/>
<path d="M158.205 109.475V109.315H158.32V110.214H158.205V110.061C158.171 110.121 158.126 110.168 158.069 110.201C158.012 110.235 157.948 110.251 157.878 110.251C157.792 110.251 157.714 110.231 157.643 110.191C157.572 110.151 157.517 110.094 157.475 110.02C157.434 109.946 157.414 109.861 157.414 109.764C157.414 109.701 157.424 109.64 157.445 109.582C157.465 109.524 157.495 109.471 157.535 109.426C157.575 109.38 157.624 109.344 157.682 109.317C157.74 109.291 157.806 109.278 157.879 109.278C158.027 109.278 158.136 109.344 158.205 109.475ZM157.877 110.152C157.935 110.152 157.988 110.137 158.038 110.108C158.089 110.078 158.129 110.034 158.159 109.976C158.19 109.917 158.205 109.847 158.205 109.764C158.205 109.715 158.198 109.667 158.184 109.622C158.171 109.576 158.15 109.535 158.123 109.498C158.095 109.461 158.061 109.431 158.021 109.409C157.98 109.388 157.933 109.377 157.881 109.377C157.812 109.377 157.752 109.395 157.702 109.431C157.651 109.467 157.612 109.514 157.585 109.573C157.559 109.633 157.545 109.697 157.545 109.764C157.545 109.84 157.56 109.906 157.589 109.966C157.618 110.025 157.658 110.071 157.708 110.103C157.759 110.135 157.815 110.151 157.877 110.151V110.152Z" fill="white"/>
<path d="M158.682 110.214V109.415H158.539V109.315H158.682V108.968H158.805V109.315H158.977V109.415H158.805V110.214H158.682Z" fill="white"/>
<path d="M159.905 109.931L159.999 109.979C159.909 110.161 159.773 110.252 159.59 110.252C159.49 110.252 159.405 110.227 159.336 110.178C159.267 110.128 159.216 110.066 159.183 109.991C159.149 109.916 159.133 109.841 159.133 109.765C159.133 109.685 159.149 109.608 159.183 109.534C159.216 109.459 159.267 109.398 159.336 109.351C159.405 109.303 159.49 109.279 159.59 109.279C159.69 109.279 159.768 109.304 159.83 109.353C159.892 109.401 159.936 109.459 159.961 109.527C159.987 109.594 160 109.657 160 109.716V109.776H159.264C159.264 109.844 159.278 109.906 159.304 109.964C159.331 110.021 159.369 110.067 159.418 110.102C159.468 110.136 159.525 110.153 159.59 110.153C159.731 110.153 159.836 110.079 159.906 109.931H159.905ZM159.273 109.676H159.876C159.874 109.622 159.86 109.572 159.836 109.526C159.811 109.481 159.777 109.445 159.734 109.418C159.692 109.391 159.644 109.378 159.59 109.378C159.503 109.378 159.431 109.406 159.375 109.463C159.319 109.52 159.285 109.591 159.273 109.676L159.273 109.676Z" fill="white"/>
<path d="M155.791 111.661V111.501H155.906V112.4H155.791V112.246C155.757 112.307 155.712 112.354 155.655 112.387C155.598 112.42 155.534 112.437 155.463 112.437C155.378 112.437 155.3 112.417 155.229 112.377C155.158 112.337 155.102 112.28 155.061 112.205C155.02 112.131 155 112.046 155 111.95C155 111.886 155.01 111.825 155.03 111.767C155.051 111.709 155.081 111.657 155.121 111.611C155.161 111.565 155.21 111.529 155.268 111.503C155.326 111.477 155.392 111.464 155.465 111.464C155.613 111.464 155.722 111.53 155.791 111.661ZM155.463 112.338C155.52 112.338 155.574 112.323 155.624 112.294C155.675 112.264 155.715 112.22 155.745 112.162C155.776 112.103 155.791 112.033 155.791 111.95C155.791 111.901 155.784 111.853 155.77 111.808C155.757 111.762 155.736 111.721 155.708 111.684C155.681 111.647 155.647 111.617 155.607 111.595C155.566 111.574 155.519 111.563 155.467 111.563C155.398 111.563 155.338 111.581 155.288 111.617C155.237 111.653 155.198 111.7 155.171 111.76C155.145 111.819 155.131 111.883 155.131 111.95C155.131 112.026 155.145 112.093 155.174 112.152C155.203 112.211 155.244 112.257 155.294 112.289C155.345 112.321 155.401 112.337 155.463 112.337V112.338Z" fill="white"/>
<path d="M156.211 112.568H156.346C156.363 112.636 156.399 112.686 156.455 112.718C156.51 112.749 156.571 112.764 156.637 112.764C156.765 112.764 156.85 112.724 156.892 112.642C156.934 112.56 156.954 112.47 156.954 112.371V112.261C156.92 112.318 156.873 112.362 156.816 112.392C156.759 112.422 156.699 112.437 156.635 112.437C156.571 112.437 156.511 112.426 156.455 112.403C156.399 112.381 156.35 112.348 156.307 112.305C156.265 112.263 156.231 112.211 156.208 112.151C156.184 112.091 156.172 112.024 156.172 111.95C156.172 111.866 156.19 111.786 156.226 111.712C156.263 111.637 156.316 111.577 156.387 111.532C156.457 111.487 156.542 111.464 156.639 111.464C156.789 111.464 156.897 111.53 156.963 111.661V111.501H157.078V112.371C157.078 112.464 157.062 112.547 157.031 112.621C157 112.696 156.951 112.755 156.885 112.799C156.819 112.843 156.736 112.864 156.637 112.864C156.501 112.864 156.401 112.835 156.337 112.776C156.272 112.717 156.23 112.647 156.211 112.568L156.211 112.568ZM156.635 112.338C156.692 112.338 156.746 112.323 156.796 112.294C156.847 112.264 156.887 112.22 156.917 112.162C156.948 112.103 156.963 112.033 156.963 111.95C156.963 111.885 156.95 111.823 156.925 111.764C156.9 111.704 156.863 111.656 156.815 111.619C156.766 111.583 156.707 111.564 156.639 111.564C156.57 111.564 156.509 111.581 156.459 111.617C156.409 111.653 156.37 111.7 156.343 111.76C156.316 111.819 156.303 111.883 156.303 111.951C156.303 112.026 156.317 112.093 156.346 112.152C156.375 112.211 156.415 112.257 156.466 112.289C156.516 112.322 156.573 112.338 156.634 112.338H156.635Z" fill="white"/>
<path d="M158.124 112.116L158.218 112.163C158.128 112.345 157.991 112.437 157.809 112.437C157.709 112.437 157.624 112.412 157.555 112.363C157.486 112.313 157.435 112.251 157.401 112.176C157.368 112.101 157.352 112.026 157.352 111.95C157.352 111.87 157.368 111.793 157.401 111.719C157.435 111.644 157.485 111.583 157.555 111.535C157.625 111.488 157.709 111.464 157.809 111.464C157.909 111.464 157.987 111.489 158.049 111.537C158.111 111.586 158.154 111.644 158.18 111.712C158.206 111.779 158.219 111.842 158.219 111.901V111.961H157.483C157.483 112.029 157.497 112.091 157.523 112.149C157.55 112.206 157.588 112.252 157.637 112.286C157.686 112.321 157.744 112.338 157.809 112.338C157.95 112.338 158.055 112.264 158.124 112.116H158.124ZM157.492 111.861H158.094C158.092 111.807 158.079 111.757 158.054 111.712C158.03 111.666 157.996 111.63 157.953 111.603C157.911 111.577 157.863 111.563 157.809 111.563C157.722 111.563 157.65 111.592 157.594 111.649C157.538 111.706 157.504 111.777 157.492 111.861H157.492Z" fill="white"/>
<path d="M158.485 112.4V111.501H158.608V111.65C158.673 111.526 158.773 111.464 158.907 111.464C159.012 111.464 159.089 111.497 159.14 111.563C159.191 111.629 159.217 111.716 159.217 111.823V112.399H159.093V111.841C159.093 111.765 159.081 111.7 159.057 111.645C159.032 111.591 158.977 111.563 158.892 111.563C158.835 111.563 158.784 111.58 158.741 111.615C158.698 111.649 158.665 111.695 158.642 111.751C158.619 111.808 158.608 111.868 158.608 111.931V112.399H158.484L158.485 112.4Z" fill="white"/>
<path d="M160.269 112.226V112.356C160.179 112.41 160.088 112.437 159.994 112.437C159.901 112.437 159.822 112.418 159.743 112.379C159.665 112.341 159.602 112.284 159.555 112.211C159.508 112.137 159.484 112.05 159.484 111.95C159.484 111.863 159.505 111.782 159.545 111.708C159.586 111.634 159.645 111.575 159.722 111.531C159.799 111.487 159.89 111.464 159.993 111.464C160.105 111.464 160.197 111.49 160.269 111.541V111.663C160.176 111.597 160.087 111.564 160.001 111.564C159.928 111.564 159.861 111.58 159.803 111.612C159.744 111.644 159.698 111.69 159.665 111.748C159.632 111.807 159.616 111.874 159.616 111.95C159.616 112.022 159.631 112.087 159.662 112.146C159.692 112.205 159.736 112.252 159.793 112.286C159.849 112.32 159.914 112.338 159.988 112.338C160.09 112.338 160.184 112.301 160.269 112.226H160.269Z" fill="white"/>
<path d="M160.367 111.501H160.507L160.841 112.261L161.126 111.501H161.251L160.726 112.834H160.593L160.777 112.392L160.368 111.501H160.367Z" fill="white"/>
<path d="M139.582 108.046C139.172 108.026 138.767 107.98 138.377 107.911C138.299 107.896 138.227 107.883 138.159 107.87C137.892 107.817 137.715 107.783 137.475 107.808C137.246 107.831 137.019 107.902 136.802 108.019L136.586 107.608C136.856 107.462 137.139 107.374 137.428 107.344C137.735 107.312 137.961 107.356 138.246 107.412C138.312 107.425 138.382 107.438 138.458 107.452C138.828 107.518 139.214 107.562 139.604 107.58L139.582 108.045L139.582 108.046Z" fill="white"/>
<path d="M149.707 115.614C149.269 115.593 148.836 115.544 148.42 115.469C148.337 115.454 148.26 115.44 148.188 115.426C147.903 115.37 147.713 115.333 147.457 115.359C147.212 115.384 146.971 115.461 146.739 115.585L146.508 115.147C146.796 114.991 147.099 114.897 147.407 114.865C147.735 114.831 147.977 114.878 148.281 114.938C148.352 114.951 148.426 114.966 148.507 114.98C148.902 115.051 149.314 115.098 149.731 115.118L149.708 115.614H149.707Z" fill="white"/>
<rect x="164" y="59" width="26" height="25" rx="3" fill="white"/>
<rect x="164.4" y="59.4" width="25.2" height="24.2" rx="2.6" stroke="#181818" stroke-opacity="0.15" stroke-width="0.8"/>
<path d="M179 70L181.5 67.5L179 65" stroke="#181818" stroke-linecap="square" stroke-linejoin="round"/>
<path d="M172 67.5H181" stroke="#181818" stroke-linecap="square" stroke-linejoin="round"/>
<path d="M174.5 78L172 75.5L174.5 73" stroke="#181818" stroke-linecap="square" stroke-linejoin="round"/>
<path d="M181.5 75.5H172.5" stroke="#181818" stroke-linecap="square" stroke-linejoin="round"/>
<defs>
<clipPath id="clip0_1795_48215">
<rect x="52" y="36" width="101" height="87" rx="6" fill="white"/>
</clipPath>
</defs>
</svg>
