<svg width="220" height="170" viewBox="0 0 220 170" fill="none" xmlns="http://www.w3.org/2000/svg">
<rect width="220" height="170" rx="8" fill="#F1F1F1"/>
<rect x="59" y="49" width="86" height="78" rx="5" fill="white"/>
<rect x="59.5" y="49.5" width="85" height="77" rx="4.5" stroke="#181818" stroke-opacity="0.15"/>
<rect x="59" y="49" width="86" height="8" fill="#181818" fill-opacity="0.15"/>
<rect x="71" y="65" width="12" height="12" rx="6" fill="#D9D9D9"/>
<rect x="88" y="65" width="32" height="3" rx="1.5" fill="#181818" fill-opacity="0.05"/>
<rect x="88" y="71" width="45" height="6" rx="2" fill="#181818" fill-opacity="0.05"/>
<rect x="71" y="84" width="12" height="12" rx="6" fill="#D9D9D9"/>
<rect x="88" y="84" width="32" height="3" rx="1.5" fill="#181818" fill-opacity="0.05"/>
<rect x="88" y="90" width="45" height="6" rx="2" fill="#181818" fill-opacity="0.05"/>
<rect x="71" y="103" width="12" height="12" rx="6" fill="#D9D9D9"/>
<rect x="88" y="103" width="32" height="3" rx="1.5" fill="#181818" fill-opacity="0.05"/>
<rect x="88" y="109" width="45" height="6" rx="2" fill="#181818" fill-opacity="0.05"/>
<rect x="43" y="101" width="36" height="36" rx="18" fill="#181818"/>
<path d="M54 120.17V120.153C54 119.217 54.1314 118.372 54.3955 117.62C54.6583 116.869 55.0409 116.224 55.5407 115.685C56.0405 115.148 56.6485 114.735 57.366 114.445C58.0823 114.156 58.8925 114.011 59.7994 114.011H62.1851C63.0907 114.011 63.9049 114.155 64.6262 114.445C65.3476 114.733 65.9582 115.148 66.4593 115.685C66.9591 116.223 67.3417 116.867 67.6045 117.62C67.8673 118.372 68 119.215 68 120.153V120.17C68 121.106 67.8686 121.956 67.6045 122.72C67.3417 123.484 66.9591 124.131 66.4593 124.663C65.9595 125.195 65.3476 125.606 64.6262 125.895C63.9049 126.183 63.0907 126.329 62.1851 126.329H59.7994C58.8938 126.329 58.0823 126.185 57.366 125.895C56.6498 125.606 56.0418 125.195 55.5407 124.663C55.0409 124.131 54.6583 123.484 54.3955 122.72C54.1327 121.956 54 121.106 54 120.17ZM55.8163 120.17C55.8163 120.829 55.9052 121.427 56.0843 121.965C56.2633 122.502 56.521 122.956 56.8585 123.327C57.196 123.697 57.6108 123.983 58.1067 124.185C58.6014 124.387 59.1656 124.489 59.7968 124.489H62.1826C63.4566 124.489 64.442 124.102 65.1377 123.327C65.8333 122.552 66.1798 121.499 66.1798 120.17V120.153C66.1798 119.494 66.0896 118.898 65.9119 118.367C65.7328 117.835 65.4752 117.384 65.1377 117.013C64.8001 116.643 64.3815 116.357 63.8817 116.155C63.3819 115.952 62.8151 115.851 62.1826 115.851H59.7968C59.1643 115.851 58.6014 115.952 58.1067 116.155C57.6121 116.357 57.196 116.644 56.8585 117.013C56.521 117.384 56.2633 117.835 56.0843 118.367C55.9052 118.898 55.8163 119.494 55.8163 120.153V120.17Z" fill="white"/>
<path d="M65.1339 112.063C64.0415 112.007 62.9607 111.874 61.9225 111.671C61.7138 111.63 61.5231 111.591 61.3428 111.553C60.6304 111.401 60.1576 111.301 59.5174 111.373C58.9068 111.441 58.3039 111.647 57.7255 111.985L57.1484 110.796C57.8672 110.373 58.6234 110.117 59.3925 110.031C60.2117 109.939 60.8146 110.066 61.5746 110.227C61.7498 110.264 61.9353 110.304 62.1376 110.343C63.1243 110.536 64.1523 110.662 65.1932 110.715L65.1352 112.062L65.1339 112.063Z" fill="white"/>
<path d="M78 121H149.667C154.594 121 159.073 116.216 159.073 109.039C159.073 96.6 159.073 68.7712 159.073 60M159.073 60L164 68M159.073 60L154 68" stroke="#181818" stroke-opacity="0.3" stroke-dasharray="3 3"/>
<g filter="url(#filter0_d_1795_48362)">
<rect x="121" y="33" width="72" height="20" rx="2" fill="white" shape-rendering="crispEdges"/>
<rect x="121.35" y="33.35" width="71.3" height="19.3" rx="1.65" stroke="#181818" stroke-opacity="0.15" stroke-width="0.7" shape-rendering="crispEdges"/>
<path d="M132.164 49.1661C128.85 49.1661 126.164 46.4799 126.164 43.1661C126.164 39.8523 128.85 37.1661 132.164 37.1661C135.478 37.1661 138.164 39.8523 138.164 43.1661C138.164 46.4799 135.478 49.1661 132.164 49.1661ZM131.387 45.3872C131.486 45.486 131.646 45.486 131.745 45.3872L135.629 41.5024C135.728 41.4036 135.728 41.2434 135.629 41.1446L135.138 40.6541C135.04 40.5552 134.879 40.5553 134.781 40.6541L131.745 43.6904C131.646 43.7892 131.486 43.7892 131.387 43.6904L130.047 42.3508C129.949 42.252 129.788 42.252 129.69 42.3508L129.199 42.8414C129.1 42.9402 129.1 43.1004 129.199 43.1992L131.387 45.3872Z" fill="#181818"/>
<rect x="144" y="37" width="32" height="3" rx="1.5" fill="#181818" fill-opacity="0.05"/>
<rect x="144" y="43" width="45" height="6" rx="2" fill="#181818" fill-opacity="0.05"/>
</g>
<defs>
<filter id="filter0_d_1795_48362" x="111" y="27" width="92" height="40" filterUnits="userSpaceOnUse" color-interpolation-filters="sRGB">
<feFlood flood-opacity="0" result="BackgroundImageFix"/>
<feColorMatrix in="SourceAlpha" type="matrix" values="0 0 0 0 0 0 0 0 0 0 0 0 0 0 0 0 0 0 127 0" result="hardAlpha"/>
<feOffset dy="4"/>
<feGaussianBlur stdDeviation="5"/>
<feComposite in2="hardAlpha" operator="out"/>
<feColorMatrix type="matrix" values="0 0 0 0 0 0 0 0 0 0 0 0 0 0 0 0 0 0 0.05 0"/>
<feBlend mode="normal" in2="BackgroundImageFix" result="effect1_dropShadow_1795_48362"/>
<feBlend mode="normal" in="SourceGraphic" in2="effect1_dropShadow_1795_48362" result="shape"/>
</filter>
</defs>
</svg>
