<svg width="220" height="170" viewBox="0 0 220 170" fill="none" xmlns="http://www.w3.org/2000/svg">
<rect width="220" height="170" rx="8" fill="#F1F1F1"/>
<rect x="53" y="34" width="110" height="91" rx="6" fill="white"/>
<rect x="53.5" y="34.5" width="109" height="90" rx="5.5" stroke="#181818" stroke-opacity="0.15"/>
<rect x="53" y="34" width="110" height="9" fill="#181818" fill-opacity="0.15"/>
<rect x="63" y="53" width="42" height="62" rx="3" fill="#D9D9D9"/>
<rect x="110" y="53" width="32" height="6" rx="3" fill="#181818" fill-opacity="0.05"/>
<rect x="110" y="65" width="43" height="14" rx="2" fill="#181818" fill-opacity="0.05"/>
<rect x="39" y="32" width="24" height="24" rx="12" fill="#181818"/>
<rect x="39.3" y="32.3" width="23.4" height="23.4" rx="11.7" stroke="#181818" stroke-opacity="0.15" stroke-width="0.6"/>
<path d="M45.5938 44C46.064 41.4399 48.307 39.5 51.0031 39.5C53.6991 39.5 55.9421 41.4399 56.4124 44C55.9421 46.5601 53.6991 48.5 51.0031 48.5C48.307 48.5 46.064 46.5601 45.5938 44ZM51.0031 46.5C52.3838 46.5 53.5031 45.3807 53.5031 44C53.5031 42.6193 52.3838 41.5 51.0031 41.5C49.6224 41.5 48.5031 42.6193 48.5031 44C48.5031 45.3807 49.6224 46.5 51.0031 46.5ZM51.0031 45.5C50.1746 45.5 49.5031 44.8285 49.5031 44C49.5031 43.1716 50.1746 42.5 51.0031 42.5C51.8315 42.5 52.5031 43.1716 52.5031 44C52.5031 44.8285 51.8315 45.5 51.0031 45.5Z" fill="white"/>
<rect x="110" y="114" width="70" height="18" rx="2" fill="#181818"/>
<path d="M120.334 119.049C120.544 118.404 121.456 118.404 121.666 119.049L122.19 120.662C122.284 120.951 122.552 121.146 122.856 121.146H124.552C125.23 121.146 125.512 122.014 124.963 122.412L123.591 123.409C123.346 123.588 123.243 123.903 123.337 124.192L123.861 125.805C124.071 126.45 123.332 126.986 122.784 126.588L121.411 125.591C121.166 125.412 120.834 125.412 120.589 125.591L119.216 126.588C118.668 126.986 117.929 126.45 118.139 125.805L118.663 124.192C118.757 123.903 118.654 123.588 118.409 123.409L117.037 122.412C116.488 122.014 116.77 121.146 117.448 121.146H119.144C119.448 121.146 119.716 120.951 119.81 120.662L120.334 119.049Z" fill="white"/>
<path d="M120.334 119.049C120.544 118.404 121.456 118.404 121.666 119.049L122.19 120.662C122.284 120.951 122.552 121.146 122.856 121.146H124.552C125.23 121.146 125.512 122.014 124.963 122.412L123.591 123.409C123.346 123.588 123.243 123.903 123.337 124.192L123.861 125.805C124.071 126.45 123.332 126.986 122.784 126.588L121.411 125.591C121.166 125.412 120.834 125.412 120.589 125.591L119.216 126.588C118.668 126.986 117.929 126.45 118.139 125.805L118.663 124.192C118.757 123.903 118.654 123.588 118.409 123.409L117.037 122.412C116.488 122.014 116.77 121.146 117.448 121.146H119.144C119.448 121.146 119.716 120.951 119.81 120.662L120.334 119.049Z" fill="white"/>
<path d="M120.334 119.049C120.544 118.404 121.456 118.404 121.666 119.049L122.19 120.662C122.284 120.951 122.552 121.146 122.856 121.146H124.552C125.23 121.146 125.512 122.014 124.963 122.412L123.591 123.409C123.346 123.588 123.243 123.903 123.337 124.192L123.861 125.805C124.071 126.45 123.332 126.986 122.784 126.588L121.411 125.591C121.166 125.412 120.834 125.412 120.589 125.591L119.216 126.588C118.668 126.986 117.929 126.45 118.139 125.805L118.663 124.192C118.757 123.903 118.654 123.588 118.409 123.409L117.037 122.412C116.488 122.014 116.77 121.146 117.448 121.146H119.144C119.448 121.146 119.716 120.951 119.81 120.662L120.334 119.049Z" fill="white"/>
<path d="M120.334 119.049C120.544 118.404 121.456 118.404 121.666 119.049L122.19 120.662C122.284 120.951 122.552 121.146 122.856 121.146H124.552C125.23 121.146 125.512 122.014 124.963 122.412L123.591 123.409C123.346 123.588 123.243 123.903 123.337 124.192L123.861 125.805C124.071 126.45 123.332 126.986 122.784 126.588L121.411 125.591C121.166 125.412 120.834 125.412 120.589 125.591L119.216 126.588C118.668 126.986 117.929 126.45 118.139 125.805L118.663 124.192C118.757 123.903 118.654 123.588 118.409 123.409L117.037 122.412C116.488 122.014 116.77 121.146 117.448 121.146H119.144C119.448 121.146 119.716 120.951 119.81 120.662L120.334 119.049Z" fill="white"/>
<path d="M132.334 119.049C132.544 118.404 133.456 118.404 133.666 119.049L134.19 120.662C134.284 120.951 134.552 121.146 134.856 121.146H136.552C137.23 121.146 137.512 122.014 136.963 122.412L135.591 123.409C135.346 123.588 135.243 123.903 135.337 124.192L135.861 125.805C136.071 126.45 135.332 126.986 134.784 126.588L133.411 125.591C133.166 125.412 132.834 125.412 132.589 125.591L131.216 126.588C130.668 126.986 129.929 126.45 130.139 125.805L130.663 124.192C130.757 123.903 130.654 123.588 130.409 123.409L129.037 122.412C128.488 122.014 128.77 121.146 129.448 121.146H131.144C131.448 121.146 131.716 120.951 131.81 120.662L132.334 119.049Z" fill="white"/>
<path d="M132.334 119.049C132.544 118.404 133.456 118.404 133.666 119.049L134.19 120.662C134.284 120.951 134.552 121.146 134.856 121.146H136.552C137.23 121.146 137.512 122.014 136.963 122.412L135.591 123.409C135.346 123.588 135.243 123.903 135.337 124.192L135.861 125.805C136.071 126.45 135.332 126.986 134.784 126.588L133.411 125.591C133.166 125.412 132.834 125.412 132.589 125.591L131.216 126.588C130.668 126.986 129.929 126.45 130.139 125.805L130.663 124.192C130.757 123.903 130.654 123.588 130.409 123.409L129.037 122.412C128.488 122.014 128.77 121.146 129.448 121.146H131.144C131.448 121.146 131.716 120.951 131.81 120.662L132.334 119.049Z" fill="white"/>
<path d="M132.334 119.049C132.544 118.404 133.456 118.404 133.666 119.049L134.19 120.662C134.284 120.951 134.552 121.146 134.856 121.146H136.552C137.23 121.146 137.512 122.014 136.963 122.412L135.591 123.409C135.346 123.588 135.243 123.903 135.337 124.192L135.861 125.805C136.071 126.45 135.332 126.986 134.784 126.588L133.411 125.591C133.166 125.412 132.834 125.412 132.589 125.591L131.216 126.588C130.668 126.986 129.929 126.45 130.139 125.805L130.663 124.192C130.757 123.903 130.654 123.588 130.409 123.409L129.037 122.412C128.488 122.014 128.77 121.146 129.448 121.146H131.144C131.448 121.146 131.716 120.951 131.81 120.662L132.334 119.049Z" fill="white"/>
<path d="M132.334 119.049C132.544 118.404 133.456 118.404 133.666 119.049L134.19 120.662C134.284 120.951 134.552 121.146 134.856 121.146H136.552C137.23 121.146 137.512 122.014 136.963 122.412L135.591 123.409C135.346 123.588 135.243 123.903 135.337 124.192L135.861 125.805C136.071 126.45 135.332 126.986 134.784 126.588L133.411 125.591C133.166 125.412 132.834 125.412 132.589 125.591L131.216 126.588C130.668 126.986 129.929 126.45 130.139 125.805L130.663 124.192C130.757 123.903 130.654 123.588 130.409 123.409L129.037 122.412C128.488 122.014 128.77 121.146 129.448 121.146H131.144C131.448 121.146 131.716 120.951 131.81 120.662L132.334 119.049Z" fill="white"/>
<path d="M144.334 119.049C144.544 118.404 145.456 118.404 145.666 119.049L146.19 120.662C146.284 120.951 146.552 121.146 146.856 121.146H148.552C149.23 121.146 149.512 122.014 148.963 122.412L147.591 123.409C147.346 123.588 147.243 123.903 147.337 124.192L147.861 125.805C148.071 126.45 147.332 126.986 146.784 126.588L145.411 125.591C145.166 125.412 144.834 125.412 144.589 125.591L143.216 126.588C142.668 126.986 141.929 126.45 142.139 125.805L142.663 124.192C142.757 123.903 142.654 123.588 142.409 123.409L141.037 122.412C140.488 122.014 140.77 121.146 141.448 121.146H143.144C143.448 121.146 143.716 120.951 143.81 120.662L144.334 119.049Z" fill="white"/>
<path d="M144.334 119.049C144.544 118.404 145.456 118.404 145.666 119.049L146.19 120.662C146.284 120.951 146.552 121.146 146.856 121.146H148.552C149.23 121.146 149.512 122.014 148.963 122.412L147.591 123.409C147.346 123.588 147.243 123.903 147.337 124.192L147.861 125.805C148.071 126.45 147.332 126.986 146.784 126.588L145.411 125.591C145.166 125.412 144.834 125.412 144.589 125.591L143.216 126.588C142.668 126.986 141.929 126.45 142.139 125.805L142.663 124.192C142.757 123.903 142.654 123.588 142.409 123.409L141.037 122.412C140.488 122.014 140.77 121.146 141.448 121.146H143.144C143.448 121.146 143.716 120.951 143.81 120.662L144.334 119.049Z" fill="white"/>
<path d="M144.334 119.049C144.544 118.404 145.456 118.404 145.666 119.049L146.19 120.662C146.284 120.951 146.552 121.146 146.856 121.146H148.552C149.23 121.146 149.512 122.014 148.963 122.412L147.591 123.409C147.346 123.588 147.243 123.903 147.337 124.192L147.861 125.805C148.071 126.45 147.332 126.986 146.784 126.588L145.411 125.591C145.166 125.412 144.834 125.412 144.589 125.591L143.216 126.588C142.668 126.986 141.929 126.45 142.139 125.805L142.663 124.192C142.757 123.903 142.654 123.588 142.409 123.409L141.037 122.412C140.488 122.014 140.77 121.146 141.448 121.146H143.144C143.448 121.146 143.716 120.951 143.81 120.662L144.334 119.049Z" fill="white"/>
<path d="M144.334 119.049C144.544 118.404 145.456 118.404 145.666 119.049L146.19 120.662C146.284 120.951 146.552 121.146 146.856 121.146H148.552C149.23 121.146 149.512 122.014 148.963 122.412L147.591 123.409C147.346 123.588 147.243 123.903 147.337 124.192L147.861 125.805C148.071 126.45 147.332 126.986 146.784 126.588L145.411 125.591C145.166 125.412 144.834 125.412 144.589 125.591L143.216 126.588C142.668 126.986 141.929 126.45 142.139 125.805L142.663 124.192C142.757 123.903 142.654 123.588 142.409 123.409L141.037 122.412C140.488 122.014 140.77 121.146 141.448 121.146H143.144C143.448 121.146 143.716 120.951 143.81 120.662L144.334 119.049Z" fill="white"/>
<path d="M156.334 119.049C156.544 118.404 157.456 118.404 157.666 119.049L158.19 120.662C158.284 120.951 158.552 121.146 158.856 121.146H160.552C161.23 121.146 161.512 122.014 160.963 122.412L159.591 123.409C159.346 123.588 159.243 123.903 159.337 124.192L159.861 125.805C160.071 126.45 159.332 126.986 158.784 126.588L157.411 125.591C157.166 125.412 156.834 125.412 156.589 125.591L155.216 126.588C154.668 126.986 153.929 126.45 154.139 125.805L154.663 124.192C154.757 123.903 154.654 123.588 154.409 123.409L153.037 122.412C152.488 122.014 152.77 121.146 153.448 121.146H155.144C155.448 121.146 155.716 120.951 155.81 120.662L156.334 119.049Z" fill="white"/>
<path d="M156.334 119.049C156.544 118.404 157.456 118.404 157.666 119.049L158.19 120.662C158.284 120.951 158.552 121.146 158.856 121.146H160.552C161.23 121.146 161.512 122.014 160.963 122.412L159.591 123.409C159.346 123.588 159.243 123.903 159.337 124.192L159.861 125.805C160.071 126.45 159.332 126.986 158.784 126.588L157.411 125.591C157.166 125.412 156.834 125.412 156.589 125.591L155.216 126.588C154.668 126.986 153.929 126.45 154.139 125.805L154.663 124.192C154.757 123.903 154.654 123.588 154.409 123.409L153.037 122.412C152.488 122.014 152.77 121.146 153.448 121.146H155.144C155.448 121.146 155.716 120.951 155.81 120.662L156.334 119.049Z" fill="white"/>
<path d="M156.334 119.049C156.544 118.404 157.456 118.404 157.666 119.049L158.19 120.662C158.284 120.951 158.552 121.146 158.856 121.146H160.552C161.23 121.146 161.512 122.014 160.963 122.412L159.591 123.409C159.346 123.588 159.243 123.903 159.337 124.192L159.861 125.805C160.071 126.45 159.332 126.986 158.784 126.588L157.411 125.591C157.166 125.412 156.834 125.412 156.589 125.591L155.216 126.588C154.668 126.986 153.929 126.45 154.139 125.805L154.663 124.192C154.757 123.903 154.654 123.588 154.409 123.409L153.037 122.412C152.488 122.014 152.77 121.146 153.448 121.146H155.144C155.448 121.146 155.716 120.951 155.81 120.662L156.334 119.049Z" fill="white"/>
<path d="M156.334 119.049C156.544 118.404 157.456 118.404 157.666 119.049L158.19 120.662C158.284 120.951 158.552 121.146 158.856 121.146H160.552C161.23 121.146 161.512 122.014 160.963 122.412L159.591 123.409C159.346 123.588 159.243 123.903 159.337 124.192L159.861 125.805C160.071 126.45 159.332 126.986 158.784 126.588L157.411 125.591C157.166 125.412 156.834 125.412 156.589 125.591L155.216 126.588C154.668 126.986 153.929 126.45 154.139 125.805L154.663 124.192C154.757 123.903 154.654 123.588 154.409 123.409L153.037 122.412C152.488 122.014 152.77 121.146 153.448 121.146H155.144C155.448 121.146 155.716 120.951 155.81 120.662L156.334 119.049Z" fill="white"/>
<path d="M168.334 119.049C168.544 118.404 169.456 118.404 169.666 119.049L170.19 120.662C170.284 120.951 170.552 121.146 170.856 121.146H172.552C173.23 121.146 173.512 122.014 172.963 122.412L171.591 123.409C171.346 123.588 171.243 123.903 171.337 124.192L171.861 125.805C172.071 126.45 171.332 126.986 170.784 126.588L169.411 125.591C169.166 125.412 168.834 125.412 168.589 125.591L167.216 126.588C166.668 126.986 165.929 126.45 166.139 125.805L166.663 124.192C166.757 123.903 166.654 123.588 166.409 123.409L165.037 122.412C164.488 122.014 164.77 121.146 165.448 121.146H167.144C167.448 121.146 167.716 120.951 167.81 120.662L168.334 119.049Z" fill="white"/>
<path d="M168.334 119.049C168.544 118.404 169.456 118.404 169.666 119.049L170.19 120.662C170.284 120.951 170.552 121.146 170.856 121.146H172.552C173.23 121.146 173.512 122.014 172.963 122.412L171.591 123.409C171.346 123.588 171.243 123.903 171.337 124.192L171.861 125.805C172.071 126.45 171.332 126.986 170.784 126.588L169.411 125.591C169.166 125.412 168.834 125.412 168.589 125.591L167.216 126.588C166.668 126.986 165.929 126.45 166.139 125.805L166.663 124.192C166.757 123.903 166.654 123.588 166.409 123.409L165.037 122.412C164.488 122.014 164.77 121.146 165.448 121.146H167.144C167.448 121.146 167.716 120.951 167.81 120.662L168.334 119.049Z" fill="white"/>
<path d="M168.334 119.049C168.544 118.404 169.456 118.404 169.666 119.049L170.19 120.662C170.284 120.951 170.552 121.146 170.856 121.146H172.552C173.23 121.146 173.512 122.014 172.963 122.412L171.591 123.409C171.346 123.588 171.243 123.903 171.337 124.192L171.861 125.805C172.071 126.45 171.332 126.986 170.784 126.588L169.411 125.591C169.166 125.412 168.834 125.412 168.589 125.591L167.216 126.588C166.668 126.986 165.929 126.45 166.139 125.805L166.663 124.192C166.757 123.903 166.654 123.588 166.409 123.409L165.037 122.412C164.488 122.014 164.77 121.146 165.448 121.146H167.144C167.448 121.146 167.716 120.951 167.81 120.662L168.334 119.049Z" fill="white"/>
<path d="M168.334 119.049C168.544 118.404 169.456 118.404 169.666 119.049L170.19 120.662C170.284 120.951 170.552 121.146 170.856 121.146H172.552C173.23 121.146 173.512 122.014 172.963 122.412L171.591 123.409C171.346 123.588 171.243 123.903 171.337 124.192L171.861 125.805C172.071 126.45 171.332 126.986 170.784 126.588L169.411 125.591C169.166 125.412 168.834 125.412 168.589 125.591L167.216 126.588C166.668 126.986 165.929 126.45 166.139 125.805L166.663 124.192C166.757 123.903 166.654 123.588 166.409 123.409L165.037 122.412C164.488 122.014 164.77 121.146 165.448 121.146H167.144C167.448 121.146 167.716 120.951 167.81 120.662L168.334 119.049Z" fill="white"/>
</svg>
