<svg width="220" height="170" viewBox="0 0 220 170" fill="none" xmlns="http://www.w3.org/2000/svg">
<rect width="220" height="170" rx="8" fill="#F1F1F1"/>
<path d="M166.523 119.757C166.953 124.14 169.598 126.599 171.472 127.505C171.672 127.602 171.635 127.971 171.413 127.983C169.008 128.109 165.06 127.595 162.54 124.767C162.514 124.738 162.497 124.701 162.492 124.662L162.022 121.164C162.009 121.069 162.066 120.978 162.157 120.948L166.257 119.581C166.38 119.54 166.51 119.628 166.523 119.757Z" fill="#181818"/>
<g clip-path="url(#clip0_1795_48418)">
<rect x="67.5" y="41" width="84" height="74" rx="4" fill="white"/>
<rect x="67.5" y="41" width="110" height="9" fill="#181818" fill-opacity="0.15"/>
</g>
<rect x="68" y="41.5" width="83" height="73" rx="3.5" stroke="#181818" stroke-opacity="0.15"/>
<g filter="url(#filter0_d_1795_48418)">
<path fill-rule="evenodd" clip-rule="evenodd" d="M103.501 64V85C103.501 88.3137 100.814 91 97.5008 91H58.5008C57.7594 91 57.0494 90.8655 56.3939 90.6197C54.0159 93.2281 50.3529 93.7201 48.0851 93.6106C47.8631 93.5999 47.8307 93.2483 48.0333 93.157C49.7693 92.3744 52.1025 90.334 52.485 86.1866C52.4913 86.1178 52.5315 86.0584 52.5882 86.026C52.5307 85.6926 52.5008 85.3498 52.5008 85V64C52.5008 60.6863 55.1871 58 58.5008 58H97.5008C100.814 58 103.501 60.6863 103.501 64Z" fill="white" shape-rendering="crispEdges"/>
<path d="M56.3939 90.6197L56.5168 90.292L56.2949 90.2087L56.1353 90.3839L56.3939 90.6197ZM48.0851 93.6106L48.0682 93.9602H48.0682L48.0851 93.6106ZM48.0333 93.157L47.8895 92.8379H47.8895L48.0333 93.157ZM52.485 86.1866L52.1365 86.1544L52.485 86.1866ZM52.5882 86.026L52.7616 86.33L52.9747 86.2084L52.9331 85.9666L52.5882 86.026ZM103.851 85V64H103.151V85H103.851ZM97.5008 91.35C101.008 91.35 103.851 88.507 103.851 85H103.151C103.151 88.1204 100.621 90.65 97.5008 90.65V91.35ZM58.5008 91.35H97.5008V90.65H58.5008V91.35ZM56.271 90.9474C56.9652 91.2078 57.7168 91.35 58.5008 91.35V90.65C57.802 90.65 57.1336 90.5233 56.5168 90.292L56.271 90.9474ZM48.0682 93.9602C50.378 94.0717 54.1709 93.5775 56.6525 90.8555L56.1353 90.3839C53.8608 92.8786 50.3278 93.3685 48.102 93.261L48.0682 93.9602ZM47.8895 92.8379C47.613 92.9625 47.5304 93.2451 47.5519 93.4504C47.5737 93.6586 47.7271 93.9437 48.0682 93.9602L48.102 93.261C48.1467 93.2632 48.191 93.286 48.2194 93.3189C48.243 93.3461 48.2472 93.3694 48.2481 93.3776C48.249 93.3865 48.2485 93.3991 48.2405 93.4159C48.2311 93.4354 48.2105 93.461 48.1772 93.476L47.8895 92.8379ZM52.1365 86.1544C51.7668 90.1628 49.5235 92.1013 47.8895 92.8379L48.1772 93.476C50.0151 92.6475 52.4382 90.5053 52.8335 86.2187L52.1365 86.1544ZM52.4147 85.7221C52.2613 85.8096 52.1536 85.969 52.1365 86.1544L52.8335 86.2187C52.8291 86.2665 52.8017 86.3072 52.7616 86.33L52.4147 85.7221ZM52.1508 85C52.1508 85.3698 52.1824 85.7325 52.2432 86.0855L52.9331 85.9666C52.879 85.6528 52.8508 85.3298 52.8508 85H52.1508ZM52.1508 64V85H52.8508V64H52.1508ZM58.5008 57.65C54.9938 57.65 52.1508 60.493 52.1508 64H52.8508C52.8508 60.8796 55.3804 58.35 58.5008 58.35V57.65ZM97.5008 57.65H58.5008V58.35H97.5008V57.65ZM103.851 64C103.851 60.493 101.008 57.65 97.5008 57.65V58.35C100.621 58.35 103.151 60.8796 103.151 64H103.851Z" fill="#181818" fill-opacity="0.15"/>
</g>
<path d="M114.5 119V98C114.5 94.6863 117.186 92 120.5 92H160.5C163.814 92 166.5 94.6863 166.5 98V119C166.5 122.314 163.814 125 160.5 125H120.5C117.186 125 114.5 122.314 114.5 119Z" fill="#181818"/>
<rect x="60.5" y="65" width="23" height="6" rx="1" fill="#181818" fill-opacity="0.05"/>
<rect x="60.5" y="75" width="37" height="10" rx="2" fill="#181818" fill-opacity="0.05"/>
<circle cx="128" cy="108.5" r="3.5" fill="white" fill-opacity="0.3"/>
<circle cx="140" cy="108.5" r="3.5" fill="white" fill-opacity="0.3"/>
<circle cx="152" cy="108.5" r="3.5" fill="white"/>
<defs>
<filter id="filter0_d_1795_48418" x="37.5469" y="51.65" width="76.3047" height="56.3245" filterUnits="userSpaceOnUse" color-interpolation-filters="sRGB">
<feFlood flood-opacity="0" result="BackgroundImageFix"/>
<feColorMatrix in="SourceAlpha" type="matrix" values="0 0 0 0 0 0 0 0 0 0 0 0 0 0 0 0 0 0 127 0" result="hardAlpha"/>
<feOffset dy="4"/>
<feGaussianBlur stdDeviation="5"/>
<feComposite in2="hardAlpha" operator="out"/>
<feColorMatrix type="matrix" values="0 0 0 0 0 0 0 0 0 0 0 0 0 0 0 0 0 0 0.05 0"/>
<feBlend mode="normal" in2="BackgroundImageFix" result="effect1_dropShadow_1795_48418"/>
<feBlend mode="normal" in="SourceGraphic" in2="effect1_dropShadow_1795_48418" result="shape"/>
</filter>
<clipPath id="clip0_1795_48418">
<rect x="67.5" y="41" width="84" height="74" rx="4" fill="white"/>
</clipPath>
</defs>
</svg>
