<svg viewBox="0 0 20 21" fill="none" xmlns="http://www.w3.org/2000/svg">
<g id="Icons / users">
<path id="Vector" d="M16.6667 2.16699H6.66667C6.22464 2.16699 5.80072 2.34259 5.48816 2.65515C5.17559 2.96771 5 3.39163 5 3.83366V13.8337C5 14.2757 5.17559 14.6996 5.48816 15.0122C5.80072 15.3247 6.22464 15.5003 6.66667 15.5003H16.6667C17.1087 15.5003 17.5326 15.3247 17.8452 15.0122C18.1577 14.6996 18.3333 14.2757 18.3333 13.8337V3.83366C18.3333 3.39163 18.1577 2.96771 17.8452 2.65515C17.5326 2.34259 17.1087 2.16699 16.6667 2.16699ZM11.6667 4.25033C12.2192 4.25033 12.7491 4.46982 13.1398 4.86052C13.5305 5.25122 13.75 5.78112 13.75 6.33366C13.75 6.88619 13.5305 7.4161 13.1398 7.8068C12.7491 8.1975 12.2192 8.41699 11.6667 8.41699C11.1141 8.41699 10.5842 8.1975 10.1935 7.8068C9.80283 7.4161 9.58333 6.88619 9.58333 6.33366C9.58333 5.78112 9.80283 5.25122 10.1935 4.86052C10.5842 4.46982 11.1141 4.25033 11.6667 4.25033ZM15.8333 13.0003H7.5V12.792C7.5 11.2512 7.5 9.66699 11.6667 9.66699C15.8333 9.66699 15.8333 11.2512 15.8333 12.792V13.0003Z" fill="#181818"/>
<path id="Vector_2" d="M3.33464 7.16699H1.66797V17.167C1.66797 18.0862 2.41547 18.8337 3.33464 18.8337H13.3346V17.167H3.33464V7.16699Z" fill="#181818"/>
</g>
</svg>
