<svg viewBox="0 0 16 16" fill="none" xmlns="http://www.w3.org/2000/svg">
<path d="M12.2427 11.5762L8 15.8188L3.75736 11.5762C1.41421 9.23296 1.41421 5.434 3.75736 3.09086C6.10051 0.747709 9.89947 0.747709 12.2427 3.09086C14.5858 5.434 14.5858 9.23296 12.2427 11.5762ZM8 10.0002C9.47273 10.0002 10.6667 8.80623 10.6667 7.3335C10.6667 5.86074 9.47273 4.66683 8 4.66683C6.52724 4.66683 5.33333 5.86074 5.33333 7.3335C5.33333 8.80623 6.52724 10.0002 8 10.0002ZM8 8.66683C7.2636 8.66683 6.66667 8.0699 6.66667 7.3335C6.66667 6.59712 7.2636 6.00016 8 6.00016C8.7364 6.00016 9.33333 6.59712 9.33333 7.3335C9.33333 8.0699 8.7364 8.66683 8 8.66683Z" fill="white"/>
</svg>
