<svg viewBox="0 0 16 16" fill="none" xmlns="http://www.w3.org/2000/svg">
<path d="M13.25 3H2.75C2.28603 3.00053 1.84122 3.18507 1.51315 3.51315C1.18507 3.84122 1.00053 4.28603 1 4.75V12.25C1.00053 12.714 1.18507 13.1588 1.51315 13.4869C1.84122 13.8149 2.28603 13.9995 2.75 14H13.25C13.714 13.9996 14.1589 13.8152 14.487 13.487C14.8152 13.1589 14.9996 12.714 15 12.25V4.75C14.9996 4.28598 14.8152 3.84107 14.487 3.51295C14.1589 3.18484 13.714 3.00035 13.25 3ZM12.8067 5.89467L8.30667 9.39467C8.21895 9.46278 8.11106 9.49975 8 9.49975C7.88894 9.49975 7.78105 9.46278 7.69333 9.39467L3.19333 5.89467C3.13944 5.85515 3.09401 5.80522 3.05974 5.74784C3.02547 5.69046 3.00306 5.6268 2.99381 5.56061C2.98457 5.49442 2.98869 5.42705 3.00593 5.36248C3.02317 5.29791 3.05318 5.23745 3.09419 5.18467C3.13519 5.1319 3.18637 5.08788 3.24467 5.05522C3.30298 5.02256 3.36725 5.00193 3.43367 4.99453C3.50009 4.98713 3.56732 4.99313 3.63139 5.01216C3.69546 5.03119 3.75506 5.06287 3.80667 5.10533L8 8.36667L12.1933 5.10533C12.2983 5.02834 12.4292 4.99534 12.5582 5.01335C12.6871 5.03135 12.8039 5.09895 12.8838 5.20176C12.9637 5.30456 13.0003 5.43448 12.9859 5.56388C12.9715 5.69328 12.9072 5.81195 12.8067 5.89467Z" fill="white"/>
</svg>
