<svg  viewBox="0 0 65 65" fill="none" xmlns="http://www.w3.org/2000/svg">
<path d="M38.4359 43.952L35.6758 48.4981L42.8197 47.5239L41.3584 46.5497L51.2625 41.1918L53.0485 42.3283L54.9968 38.1069L47.8529 38.9187L49.4765 39.8929L39.8972 44.9261L38.4359 43.952Z" fill="#181818" fill-opacity="0.6"/>
<path d="M13.1107 42.3281L14.7343 41.1916L24.8007 46.0624L22.8524 47.3613L31.7823 48.4978L28.2103 43.7893L26.5867 44.9259L16.6827 40.055L18.3063 39.2432L11 38.269L13.1107 42.3281Z" fill="#181818" fill-opacity="0.6"/>
<path fill-rule="evenodd" clip-rule="evenodd" d="M51.913 24.8642L33.2389 16.2842L14.8945 24.8673V35.6046L33.2523 43.8572L51.913 34.779V24.8642ZM32.9213 17.8668L16.1934 25.6936V34.5619L32.9213 25.7333V17.8668ZM16.7376 35.0091L33.2305 42.4233L50.2098 34.1632L33.2552 26.2914L16.7376 35.0091ZM50.6141 33.6349V25.6968L33.5707 17.8661V25.7219L50.6141 33.6349Z" fill="#181818" fill-opacity="0.6"/>
</svg>
