<svg width="24" height="24" viewBox="0 0 24 24" fill="none" xmlns="http://www.w3.org/2000/svg">
<g id="Frame">
<path id="Vector" d="M12.0039 21.9998C6.48091 21.9998 2.00391 17.5228 2.00391 11.9998C2.00391 6.47676 6.48091 1.99976 12.0039 1.99976C17.5269 1.99976 22.0039 6.47676 22.0039 11.9998C22.0039 17.5228 17.5269 21.9998 12.0039 21.9998ZM10.828 15.8208C10.9268 15.9196 11.087 15.9196 11.1858 15.8208L17.898 9.10766C17.9968 9.00885 17.9968 8.84866 17.898 8.74986L16.8418 7.69368C16.743 7.59486 16.5828 7.59487 16.484 7.69369L11.1858 12.9928C11.087 13.0916 10.9268 13.0916 10.828 12.9928L8.35681 10.5217C8.258 10.4229 8.09781 10.4229 7.999 10.5217L6.94281 11.5778C6.84401 11.6767 6.84401 11.8369 6.94281 11.9357L10.828 15.8208Z" fill="#181818"/>
</g>
</svg>
