<svg viewBox="0 0 65 65" fill="none" xmlns="http://www.w3.org/2000/svg">
<path d="M36.4468 10.626V15.9552H31.9375" stroke="#181818" stroke-opacity="0.6" stroke-width="0.5"/>
<path d="M31.9379 24.5639V18.6198V10.626H51V12.8806V19.0297M31.9379 28.0483V32.7626M31.9379 34.6073V32.7626M31.9379 32.7626H46.2857M51 32.7626H46.2857M51 32.7626V37.8868V47.7254M51 32.7626V19.0297M46.2857 32.7626V28.6632M51 19.0297H46.0807M39.1118 19.0297H46.0807M46.0807 19.0297V21.8993M51 47.7254V54L39.9317 53.8744H31.9379M51 47.7254H39.9317M18 18.6198V29.4831M18 18.6198H25.5839V22.3092M18 18.6198V37.8868M18 29.4831H25.5839V25.9986M18 29.4831V37.8868M18 37.8868V53.8744H31.9379M18 37.8868H25.5839M31.9379 53.8744V37.8868H29.0683" stroke="#181818" stroke-opacity="0.6" stroke-width="1.6"/>
</svg>
