<svg width="14" height="16" viewBox="0 0 14 16" fill="none" xmlns="http://www.w3.org/2000/svg">
<g id="a">
<path id="Vector" d="M4.00505 5.94432L5.87505 4.58632C6.08505 4.43232 6.34005 4.35432 6.60005 4.36232C6.91702 4.37078 7.22354 4.47752 7.47721 4.66777C7.73088 4.85802 7.91917 5.12239 8.01605 5.42432C8.12405 5.76432 8.22305 5.99432 8.31305 6.11432C8.5844 6.47645 8.93648 6.77031 9.3413 6.97255C9.57141 7.08751 9.81496 7.17106 10.0654 7.22167C10.3812 7.28547 10.645 7.54064 10.645 7.86276C10.645 8.18453 10.383 8.44969 10.0644 8.40403C9.6634 8.34653 9.27207 8.22946 8.90365 8.05578C8.35904 7.79904 7.878 7.42493 7.49505 6.96032L7.08805 9.26732L8.28905 10.2763L9.38636 13.2907C9.49663 13.5937 9.3404 13.9287 9.03743 14.0389C8.73455 14.149 8.39971 13.9928 8.2895 13.69L7.29905 10.9683L5.32205 9.30932C5.16013 9.17811 5.0362 9.00604 4.96307 8.8109C4.88993 8.61575 4.87025 8.40462 4.90605 8.19932L5.20305 6.51632L4.80805 6.80332L3.91008 8.03919C3.72063 8.29993 3.35567 8.35771 3.09495 8.16824C2.8343 7.97883 2.77649 7.61401 2.96581 7.3533L3.99405 5.93732L4.00505 5.94432ZM7.43705 4.07032C7.28099 4.07489 7.1256 4.04809 6.98007 3.99153C6.83455 3.93496 6.70186 3.84977 6.58986 3.741C6.47786 3.63223 6.38882 3.50209 6.32802 3.35829C6.26722 3.21448 6.23589 3.05994 6.23589 2.90382C6.23589 2.74769 6.26722 2.59315 6.32802 2.44935C6.38882 2.30554 6.47786 2.1754 6.58986 2.06663C6.70186 1.95786 6.83455 1.87267 6.98007 1.8161C7.1256 1.75954 7.28099 1.73275 7.43705 1.73732C7.74051 1.7462 8.02856 1.873 8.24007 2.09079C8.45158 2.30858 8.56989 2.60022 8.56989 2.90382C8.56989 3.20741 8.45158 3.49905 8.24007 3.71684C8.02856 3.93464 7.74051 4.06143 7.43705 4.07032ZM5.70305 11.7603L4.14962 13.6105C3.97255 13.8214 3.65807 13.8489 3.4471 13.6719C3.16433 13.4347 3.12747 13.0131 3.36478 12.7304L4.67105 11.1743L4.96307 8.8109L6.00807 9.6859L5.70305 11.7603Z" fill="#808080"/>
</g>
</svg>
