<svg width="12" height="12" viewBox="0 0 12 12" fill="none" xmlns="http://www.w3.org/2000/svg">
<path d="M6 0.75C3.93 0.75 2.25 2.262 2.25 4.125C2.25 7.125 6 11.25 6 11.25C6 11.25 9.75 7.125 9.75 4.125C9.75 2.262 8.07 0.75 6 0.75ZM6 6C5.80075 6.00364 5.60276 5.96754 5.41762 5.8938C5.23247 5.82006 5.06388 5.71017 4.92168 5.57055C4.77948 5.43092 4.66653 5.26436 4.58943 5.08059C4.51233 4.89683 4.47262 4.69954 4.47262 4.50025C4.47262 4.30096 4.51233 4.10367 4.58943 3.91991C4.66653 3.73614 4.77948 3.56958 4.92168 3.42995C5.06388 3.29033 5.23247 3.18044 5.41762 3.1067C5.60276 3.03296 5.80075 2.99686 6 3.0005C6.39302 3.00768 6.76751 3.16884 7.04291 3.44932C7.31832 3.72979 7.47262 4.10717 7.47262 4.50025C7.47262 4.89333 7.31832 5.27071 7.04291 5.55118C6.76751 5.83166 6.39302 5.99282 6 6Z" fill="#181818" fill-opacity="0.5"/>
</svg>
