<svg width="14" height="14" viewBox="0 0 14 14" fill="none" xmlns="http://www.w3.org/2000/svg">
<path d="M5.34676 10.5C5.25545 10.5 5.16714 10.4822 5.08185 10.4466C4.99655 10.4116 4.91399 10.3528 4.83416 10.2703L1.9464 7.28627C1.8097 7.14502 1.74437 6.96563 1.75038 6.7481C1.75585 6.53001 1.82693 6.35034 1.96362 6.20909C2.10031 6.06784 2.27118 5.99722 2.47622 5.99722C2.68126 5.99722 2.85212 6.06784 2.98881 6.20909L5.3812 8.68126L11.037 2.83688C11.1737 2.69563 11.3415 2.625 11.5406 2.625C11.7401 2.625 11.9083 2.69563 12.045 2.83688C12.1817 2.97813 12.25 3.15186 12.25 3.35809C12.25 3.56375 12.1817 3.73721 12.045 3.87846L5.85935 10.2703C5.77953 10.3528 5.69696 10.4116 5.61167 10.4466C5.52637 10.4822 5.43807 10.5 5.34676 10.5Z" fill="#181818"/>
</svg>
