<svg width="19" height="18" viewBox="0 0 19 18" fill="none" xmlns="http://www.w3.org/2000/svg">
<g id="Group">
<path id="Vector" d="M12.597 3.88908C12.387 3.88908 12.2165 3.70652 12.2165 3.48159V1.90705C12.2165 1.3056 11.7599 0.814978 11.1968 0.814978H7.90014C7.33851 0.814978 6.88039 1.30397 6.88039 1.90705V3.48159C6.88039 3.70652 6.70992 3.88908 6.49989 3.88908C6.28985 3.88908 6.11938 3.70652 6.11938 3.48159V1.90705C6.11938 0.855729 6.91844 0 7.90014 0H11.1968C12.1785 0 12.9776 0.855729 12.9776 1.90705V3.48159C12.9776 3.70652 12.8071 3.88908 12.597 3.88908Z" fill="#181818"/>
<g id="Group_2">
<path id="Vector_2" d="M3.27168 8.80686C3.4117 8.89488 3.57152 8.94214 3.73437 8.94214H15.3656C15.5284 8.94214 15.6882 8.89488 15.8282 8.80686L18.7992 6.92426V4.85095C18.7992 4.1517 18.265 3.57959 17.612 3.57959H1.48941C0.836469 3.57959 0.302246 4.1517 0.302246 4.85095V6.92426L3.2732 8.80686H3.27168Z" fill="#181818"/>
<path id="Vector_3" d="M16.2155 9.50757C15.9583 9.67057 15.6645 9.75695 15.3647 9.75695H11.8991V11.1848C11.8991 12.0617 11.2355 12.7724 10.4166 12.7724H8.68004C7.8612 12.7724 7.1976 12.0617 7.1976 11.1848V9.75695H3.73199C3.43367 9.75695 3.13841 9.67057 2.88119 9.50757L0.29834 7.87109V16.2279C0.29834 16.9271 0.832567 17.4992 1.48551 17.4992H17.6081C18.2611 17.4992 18.7953 16.9271 18.7953 16.2279V7.87109L16.2124 9.50757H16.2155Z" fill="#181818"/>
</g>
<path id="Vector_4" d="M10.391 11.9316H8.70914C8.3606 11.9316 8.07446 11.6252 8.07446 11.252C8.07446 10.8787 8.3606 10.5723 8.70914 10.5723H10.391C10.7395 10.5723 11.0256 10.8787 11.0256 11.252C11.0256 11.6252 10.7395 11.9316 10.391 11.9316Z" fill="#181818"/>
</g>
</svg>
