<svg width="20" height="21" viewBox="0 0 20 21" fill="none" xmlns="http://www.w3.org/2000/svg">
<g id="Icons / exit">
<path id="Vector" d="M13.125 11.125V15.1875C13.1246 15.7675 12.8939 16.3237 12.4838 16.7338C12.0737 17.1439 11.5175 17.3746 10.9375 17.375H3.4375C2.85754 17.3743 2.30153 17.1437 1.89143 16.7336C1.48134 16.3235 1.25066 15.7675 1.25 15.1875V5.8125C1.25066 5.23254 1.48134 4.67653 1.89143 4.26643C2.30153 3.85634 2.85754 3.62566 3.4375 3.625H10.9375C11.5175 3.62544 12.0737 3.85605 12.4838 4.26619C12.8939 4.67633 13.1246 5.23247 13.125 5.8125V9.875H7.46083V11.125H13.125Z" fill="#181818"/>
<path id="Vector_2" d="M14.5583 13.1851L16.6167 11.1267H13.125V9.87673H16.6167L14.5583 7.81839L15.4417 6.93506L18.5667 10.0601C18.6837 10.1772 18.7494 10.3361 18.7494 10.5017C18.7494 10.6674 18.6837 10.8262 18.5667 10.9434L15.4417 14.0684L14.5583 13.1851Z" fill="#181818"/>
</g>
</svg>
