<svg width="20" height="20" viewBox="0 0 20 20" fill="none" xmlns="http://www.w3.org/2000/svg">
<path fill-rule="evenodd" clip-rule="evenodd" d="M16.4582 10C16.4582 9.83424 16.3923 9.67527 16.2751 9.55806C16.1579 9.44085 15.9989 9.375 15.8332 9.375H7.9165C7.75074 9.375 7.59177 9.44085 7.47456 9.55806C7.35735 9.67527 7.2915 9.83424 7.2915 10C7.2915 10.1658 7.35735 10.3247 7.47456 10.4419C7.59177 10.5592 7.75074 10.625 7.9165 10.625H15.8332C15.9989 10.625 16.1579 10.5592 16.2751 10.4419C16.3923 10.3247 16.4582 10.1658 16.4582 10Z" fill="white"/>
<path fill-rule="evenodd" clip-rule="evenodd" d="M16.4582 5.8335C16.4582 5.66774 16.3923 5.50876 16.2751 5.39155C16.1579 5.27434 15.9989 5.2085 15.8332 5.2085H4.1665C4.00074 5.2085 3.84177 5.27434 3.72456 5.39155C3.60735 5.50876 3.5415 5.66774 3.5415 5.8335C3.5415 5.99926 3.60735 6.15823 3.72456 6.27544C3.84177 6.39265 4.00074 6.4585 4.1665 6.4585H15.8332C15.9989 6.4585 16.1579 6.39265 16.2751 6.27544C16.3923 6.15823 16.4582 5.99926 16.4582 5.8335Z" fill="white"/>
<path fill-rule="evenodd" clip-rule="evenodd" d="M16.4582 14.1665C16.4582 14.0007 16.3923 13.8418 16.2751 13.7246C16.1579 13.6074 15.9989 13.5415 15.8332 13.5415H11.6665C11.5007 13.5415 11.3418 13.6074 11.2246 13.7246C11.1074 13.8418 11.0415 14.0007 11.0415 14.1665C11.0415 14.3323 11.1074 14.4912 11.2246 14.6084C11.3418 14.7257 11.5007 14.7915 11.6665 14.7915H15.8332C15.9989 14.7915 16.1579 14.7257 16.2751 14.6084C16.3923 14.4912 16.4582 14.3323 16.4582 14.1665Z" fill="white"/>
</svg>
