<svg width="20" height="20" viewBox="0 0 20 20" fill="none" xmlns="http://www.w3.org/2000/svg">
<path d="M9.5 2C6.464 2 4 4.304 4 7.14286C4 11.7143 9.5 18 9.5 18C9.5 18 15 11.7143 15 7.14286C15 4.304 12.536 2 9.5 2ZM9.5 10C9.20776 10.0055 8.91739 9.95053 8.64584 9.83817C8.3743 9.72581 8.12702 9.55836 7.91847 9.3456C7.70991 9.13284 7.54425 8.87903 7.43116 8.599C7.31808 8.31897 7.25984 8.01834 7.25984 7.71467C7.25984 7.41099 7.31808 7.11036 7.43116 6.83033C7.54425 6.55031 7.70991 6.2965 7.91847 6.08374C8.12702 5.87097 8.3743 5.70352 8.64584 5.59116C8.91739 5.4788 9.20776 5.42379 9.5 5.42933C10.0764 5.44027 10.6257 5.68585 11.0296 6.11324C11.4335 6.54064 11.6598 7.11568 11.6598 7.71467C11.6598 8.31365 11.4335 8.8887 11.0296 9.31609C10.6257 9.74348 10.0764 9.98906 9.5 10Z" fill="#181818"/>
</svg>
