<svg width="16" height="16" viewBox="0 0 16 16" fill="none" xmlns="http://www.w3.org/2000/svg">
<g id="Icons / heart">
<path id="Vector (Stroke)" fill-rule="evenodd" clip-rule="evenodd" d="M7.99464 4.36434L7.32677 3.7684C6.77314 3.27439 6.05355 3.01122 5.31509 3.03361C4.57596 3.05601 3.87356 3.36174 3.35092 3.88783C2.82835 4.41385 2.52479 5.12054 2.50145 5.86373C2.47842 6.5973 2.73009 7.31272 3.20634 7.86792L7.77671 12.4831C7.89384 12.6014 8.08367 12.6014 8.20081 12.4831L12.7753 7.86461C13.2605 7.31019 13.519 6.59108 13.4989 5.85221C13.4785 5.10504 13.1747 4.39376 12.6493 3.86508C12.1238 3.33633 11.4167 3.03055 10.6736 3.01143C9.93055 2.99231 9.20886 3.26132 8.65725 3.76242L7.99464 4.36434ZM13.5023 8.559L8.20106 13.9113C8.08392 14.0296 7.8941 14.0296 7.77696 13.9113L2.47603 8.559C1.81888 7.80801 1.47053 6.83264 1.50196 5.83168C1.53339 4.83072 1.94224 3.87952 2.64518 3.17194C3.34812 2.46436 4.29224 2.05368 5.28511 2.02358C6.27798 1.99349 7.24486 2.34724 7.98869 3.01097C8.73063 2.33698 9.70074 1.97559 10.6991 2.00128C11.6975 2.02697 12.648 2.43779 13.3549 3.14907C14.0618 3.86034 14.4711 4.8179 14.4985 5.8244C14.526 6.8309 14.1694 7.80966 13.5023 8.559Z" fill="#181818"/>
</g>
</svg>
