<svg width="16" height="16" viewBox="0 0 16 16" fill="none" xmlns="http://www.w3.org/2000/svg">
<g id="Icons / mail">
<path id="Vector" d="M12.5 3H3.5C3.10231 3.00048 2.72105 3.16825 2.43984 3.4665C2.15863 3.76475 2.00045 4.16912 2 4.59091V11.4091C2.00045 11.8309 2.15863 12.2353 2.43984 12.5335C2.72105 12.8318 3.10231 12.9995 3.5 13H12.5C12.8977 12.9997 13.2791 12.832 13.5603 12.5337C13.8416 12.2354 13.9997 11.8309 14 11.4091V4.59091C13.9997 4.16907 13.8416 3.7646 13.5603 3.46632C13.2791 3.16804 12.8977 3.00032 12.5 3ZM12.12 5.63152L8.26286 8.81333C8.18767 8.87526 8.09519 8.90887 8 8.90887C7.90481 8.90887 7.81233 8.87526 7.73714 8.81333L3.88 5.63152C3.8338 5.59559 3.79487 5.5502 3.7655 5.49804C3.73612 5.44588 3.71691 5.388 3.70898 5.32783C3.70106 5.26765 3.70459 5.20641 3.71937 5.14771C3.73415 5.08901 3.75987 5.03404 3.79502 4.98607C3.83017 4.93809 3.87403 4.89807 3.92401 4.86839C3.97399 4.8387 4.02907 4.81993 4.086 4.81321C4.14294 4.80649 4.20056 4.81194 4.25548 4.82924C4.31039 4.84654 4.36148 4.87534 4.40571 4.91394L8 7.87879L11.5943 4.91394C11.6843 4.84395 11.7965 4.81395 11.907 4.83031C12.0175 4.84668 12.1177 4.90813 12.1861 5.0016C12.2546 5.09506 12.286 5.21316 12.2737 5.3308C12.2613 5.44843 12.2062 5.55632 12.12 5.63152Z" fill="white"/>
</g>
</svg>
