<svg width="282" height="210" viewBox="0 0 282 210" fill="none" xmlns="http://www.w3.org/2000/svg">
<path d="M172.232 130.299L177.217 125.468C177.402 125.288 177.697 125.288 177.882 125.468L182.867 130.299C182.956 130.385 183.075 130.433 183.2 130.433H199.987C200.252 130.433 200.466 130.648 200.466 130.912V152.166C200.466 152.43 200.252 152.645 199.987 152.645H155.112C154.847 152.645 154.633 152.43 154.633 152.166V130.912C154.633 130.648 154.847 130.433 155.112 130.433H171.9C172.024 130.433 172.143 130.385 172.232 130.299Z" fill="#181818" stroke="#181818" stroke-width="2.39179"/>
<path d="M161.377 145.054V142.355H158.699V141.227H161.377V138.548H162.519V141.227H165.198V142.355H162.519V145.054H161.377ZM170.367 144.047L171.576 143.885C171.714 144.57 171.949 145.065 172.281 145.369C172.616 145.669 173.024 145.819 173.503 145.819C174.071 145.819 174.55 145.622 174.939 145.228C175.333 144.834 175.53 144.346 175.53 143.765C175.53 143.21 175.349 142.753 174.986 142.395C174.624 142.032 174.163 141.851 173.603 141.851C173.375 141.851 173.091 141.896 172.751 141.985L172.885 140.925C172.965 140.934 173.03 140.938 173.08 140.938C173.594 140.938 174.058 140.804 174.469 140.535C174.881 140.267 175.087 139.853 175.087 139.293C175.087 138.85 174.937 138.483 174.637 138.192C174.337 137.901 173.95 137.756 173.476 137.756C173.006 137.756 172.614 137.903 172.301 138.199C171.987 138.494 171.786 138.937 171.697 139.528L170.488 139.313C170.636 138.503 170.971 137.877 171.495 137.434C172.019 136.986 172.67 136.762 173.449 136.762C173.986 136.762 174.48 136.879 174.933 137.111C175.385 137.34 175.729 137.653 175.966 138.051C176.208 138.45 176.329 138.872 176.329 139.32C176.329 139.745 176.215 140.132 175.987 140.482C175.758 140.831 175.42 141.108 174.973 141.314C175.555 141.448 176.007 141.728 176.329 142.153C176.651 142.574 176.812 143.102 176.812 143.738C176.812 144.597 176.499 145.327 175.872 145.926C175.246 146.522 174.454 146.819 173.496 146.819C172.632 146.819 171.914 146.562 171.341 146.047C170.772 145.533 170.448 144.866 170.367 144.047ZM178.014 141.791C178.014 140.627 178.133 139.692 178.37 138.984C178.612 138.273 178.968 137.724 179.437 137.34C179.912 136.955 180.507 136.762 181.223 136.762C181.751 136.762 182.215 136.87 182.613 137.084C183.011 137.295 183.34 137.601 183.6 138.004C183.86 138.403 184.063 138.89 184.211 139.468C184.359 140.041 184.433 140.815 184.433 141.791C184.433 142.945 184.314 143.879 184.077 144.59C183.839 145.298 183.484 145.846 183.009 146.235C182.539 146.62 181.944 146.813 181.223 146.813C180.274 146.813 179.529 146.472 178.988 145.792C178.339 144.973 178.014 143.639 178.014 141.791ZM179.256 141.791C179.256 143.407 179.444 144.483 179.82 145.02C180.201 145.553 180.668 145.819 181.223 145.819C181.778 145.819 182.244 145.55 182.62 145.013C183 144.476 183.19 143.402 183.19 141.791C183.19 140.17 183 139.094 182.62 138.561C182.244 138.029 181.774 137.762 181.21 137.762C180.655 137.762 180.212 137.997 179.881 138.467C179.464 139.067 179.256 140.175 179.256 141.791ZM185.896 139.166C185.896 138.463 186.073 137.865 186.426 137.373C186.78 136.881 187.293 136.635 187.964 136.635C188.582 136.635 189.092 136.856 189.495 137.299C189.902 137.738 190.106 138.385 190.106 139.24C190.106 140.072 189.9 140.714 189.488 141.166C189.081 141.614 188.577 141.838 187.977 141.838C187.382 141.838 186.885 141.616 186.487 141.173C186.093 140.73 185.896 140.061 185.896 139.166ZM187.998 137.467C187.698 137.467 187.447 137.597 187.246 137.856C187.049 138.116 186.95 138.593 186.95 139.287C186.95 139.918 187.051 140.363 187.252 140.623C187.454 140.878 187.702 141.005 187.998 141.005C188.302 141.005 188.553 140.875 188.749 140.616C188.951 140.356 189.052 139.882 189.052 139.193C189.052 138.557 188.951 138.112 188.749 137.856C188.548 137.597 188.297 137.467 187.998 137.467ZM188.004 147.007L193.389 136.635H194.369L189.005 147.007H188.004ZM192.261 144.335C192.261 143.628 192.438 143.031 192.791 142.543C193.145 142.05 193.659 141.804 194.335 141.804C194.953 141.804 195.463 142.026 195.866 142.469C196.273 142.907 196.477 143.554 196.477 144.409C196.477 145.242 196.271 145.884 195.859 146.336C195.452 146.784 194.946 147.007 194.342 147.007C193.747 147.007 193.25 146.786 192.852 146.343C192.458 145.895 192.261 145.226 192.261 144.335ZM194.369 142.637C194.064 142.637 193.812 142.766 193.61 143.026C193.413 143.286 193.315 143.762 193.315 144.456C193.315 145.083 193.415 145.526 193.617 145.785C193.818 146.045 194.067 146.175 194.362 146.175C194.671 146.175 194.924 146.045 195.121 145.785C195.322 145.526 195.423 145.051 195.423 144.362C195.423 143.727 195.322 143.281 195.121 143.026C194.919 142.766 194.669 142.637 194.369 142.637Z" fill="white"/>
<line x1="22" y1="113.178" x2="258.58" y2="113.178" stroke="#181818" stroke-width="0.869725"/>
<circle cx="177.332" cy="113.054" r="3.83218" fill="white" stroke="#181818" stroke-width="0.769595"/>
<rect x="22" y="94.6191" width="16.9286" height="7.52381" rx="2" fill="#181818" fill-opacity="0.15"/>
<rect x="46.4525" y="92.7383" width="16.9286" height="9.40476" rx="2" fill="#181818" fill-opacity="0.15"/>
<rect x="70.9048" y="87.0952" width="16.9286" height="15.0476" rx="2" fill="#181818" fill-opacity="0.15"/>
<rect x="95.3572" y="81.4524" width="16.9286" height="20.6905" rx="2" fill="#181818" fill-opacity="0.15"/>
<rect x="119.81" y="73.9285" width="16.9286" height="28.2143" rx="2" fill="#181818" fill-opacity="0.15"/>
<rect x="144.262" y="68.2856" width="16.9286" height="33.8571" rx="2" fill="#181818" fill-opacity="0.15"/>
<rect x="168.714" y="48.1428" width="17" height="54" rx="2" fill="#181818" fill-opacity="0.15"/>
<rect x="193.238" y="68.2856" width="16.9286" height="33.8571" rx="2" fill="white"/>
<rect x="217.69" y="77.6904" width="16.9286" height="24.4524" rx="2" fill="white"/>
<rect x="242.143" y="85.2144" width="16.9286" height="16.9286" rx="2" fill="white"/>
</svg>
