<svg width="16" height="16" viewBox="0 0 16 16" fill="none" xmlns="http://www.w3.org/2000/svg">
<g id="Frame">
<path id="Vector" d="M10.6673 0.666748C11.0355 0.666748 11.334 0.965228 11.334 1.33341V3.33341H14.0007C14.3689 3.33341 14.6673 3.63189 14.6673 4.00008V13.3334C14.6673 13.7016 14.3689 14.0001 14.0007 14.0001H2.00065C1.63246 14.0001 1.33398 13.7016 1.33398 13.3334V4.00008C1.33398 3.63189 1.63246 3.33341 2.00065 3.33341H4.66732V1.33341C4.66732 0.965228 4.9658 0.666748 5.33398 0.666748H10.6673ZM8.66732 6.00008H7.33398V8.00008H5.33398V9.33341H7.33332L7.33398 11.3334H8.66732L8.66665 9.33341H10.6673V8.00008H8.66732V6.00008ZM10.0007 2.00008H6.00065V3.33341H10.0007V2.00008Z" fill="white"/>
</g>
</svg>
