<svg width="16" height="16" viewBox="0 0 16 16" fill="none" xmlns="http://www.w3.org/2000/svg">
<g id="Frame">
<path id="Vector" d="M1.33398 2.66227C1.33398 2.29651 1.63752 2 1.99518 2H14.0061C14.3713 2 14.6673 2.29663 14.6673 2.66227V13.3377C14.6673 13.7035 14.3638 14 14.0061 14H1.99518C1.63002 14 1.33398 13.7034 1.33398 13.3377V2.66227ZM2.66732 3.33333V4.66667H4.00065V3.33333H2.66732ZM12.0007 3.33333V4.66667H13.334V3.33333H12.0007ZM2.66732 6V7.33333H4.00065V6H2.66732ZM12.0007 6V7.33333H13.334V6H12.0007ZM2.66732 8.66667V10H4.00065V8.66667H2.66732ZM12.0007 8.66667V10H13.334V8.66667H12.0007ZM2.66732 11.3333V12.6667H4.00065V11.3333H2.66732ZM12.0007 11.3333V12.6667H13.334V11.3333H12.0007Z" fill="white"/>
</g>
</svg>
