<svg width="17" height="16" viewBox="0 0 17 16" fill="none" xmlns="http://www.w3.org/2000/svg">
<g id="Frame">
<path id="Vector" d="M11.834 13.3333H5.16732V14C5.16732 14.3682 4.86884 14.6667 4.50065 14.6667H3.16732C2.79913 14.6667 2.50065 14.3682 2.50065 14V8H1.83398V5.33333H2.50065V3.33333C2.50065 2.59695 3.0976 2 3.83398 2H13.1673C13.9037 2 14.5007 2.59695 14.5007 3.33333V5.33333H15.1673V8H14.5007V14C14.5007 14.3682 14.2022 14.6667 13.834 14.6667H12.5007C12.1325 14.6667 11.834 14.3682 11.834 14V13.3333ZM3.83398 3.33333V8H13.1673V3.33333H3.83398ZM5.50065 12C6.05294 12 6.50065 11.5523 6.50065 11C6.50065 10.4477 6.05294 10 5.50065 10C4.94836 10 4.50065 10.4477 4.50065 11C4.50065 11.5523 4.94836 12 5.50065 12ZM11.5007 12C12.0529 12 12.5007 11.5523 12.5007 11C12.5007 10.4477 12.0529 10 11.5007 10C10.9484 10 10.5007 10.4477 10.5007 11C10.5007 11.5523 10.9484 12 11.5007 12Z" fill="white"/>
</g>
</svg>
