<svg width="16" height="16" viewBox="0 0 16 16" fill="none" xmlns="http://www.w3.org/2000/svg">
<path d="M13.3373 14.6666H2.67057C2.30239 14.6666 2.00391 14.3681 2.00391 13.9999V1.99992C2.00391 1.63173 2.30239 1.33325 2.67057 1.33325H13.3373C13.7055 1.33325 14.0039 1.63173 14.0039 1.99992V13.9999C14.0039 14.3681 13.7055 14.6666 13.3373 14.6666ZM6.00391 3.99992H4.67057V5.33325C4.67057 7.17418 6.16296 8.66658 8.00392 8.66658C9.84485 8.66658 11.3373 7.17418 11.3373 5.33325V3.99992H10.0039V5.33325C10.0039 6.43782 9.10845 7.33325 8.00392 7.33325C6.89932 7.33325 6.00391 6.43782 6.00391 5.33325V3.99992Z" fill="white"/>
</svg>
