<svg width="16" height="16" viewBox="0 0 16 16" fill="none" xmlns="http://www.w3.org/2000/svg">
<g id="Frame" clip-path="url(#clip0_798_15082)">
<path id="Vector" d="M7.07627 11.8637L7.66133 10.5236C8.18207 9.33103 9.11927 8.38169 10.2883 7.86276L11.8988 7.14789C12.4108 6.92063 12.4108 6.17575 11.8988 5.94847L10.3386 5.25592C9.13947 4.72364 8.18547 3.73917 7.67367 2.50592L7.081 1.07778C6.86107 0.547803 6.12879 0.547805 5.90887 1.07778L5.31618 2.50591C4.80438 3.73917 3.85035 4.72364 2.65123 5.25592L1.09105 5.94847C0.579024 6.17575 0.579024 6.92063 1.09105 7.14789L2.70153 7.86276C3.87059 8.38169 4.80781 9.33103 5.3285 10.5236L5.9136 11.8637C6.13851 12.3788 6.85133 12.3788 7.07627 11.8637ZM12.9343 15.1266L13.0988 14.7494C13.3921 14.077 13.9205 13.5416 14.5797 13.2488L15.0866 13.0235C15.3608 12.9017 15.3608 12.5032 15.0866 12.3814L14.6081 12.1688C13.9319 11.8684 13.3941 11.3132 13.1057 10.6179L12.9368 10.2104C12.819 9.92636 12.4263 9.92636 12.3085 10.2104L12.1396 10.6179C11.8513 11.3132 11.3135 11.8684 10.6373 12.1688L10.1587 12.3814C9.8846 12.5032 9.8846 12.9017 10.1587 13.0235L10.6657 13.2488C11.3249 13.5416 11.8532 14.077 12.1465 14.7494L12.3111 15.1266C12.4315 15.4026 12.8138 15.4026 12.9343 15.1266Z" fill="white"/>
</g>
<defs>
<clipPath id="clip0_798_15082">
<rect width="16" height="16" fill="white"/>
</clipPath>
</defs>
</svg>
