<svg width="17" height="16" viewBox="0 0 17 16" fill="none" xmlns="http://www.w3.org/2000/svg">
<path d="M2.50065 2C2.13246 2 1.83398 2.29848 1.83398 2.66667V6.66667C1.83398 7.03487 2.13246 7.33333 2.50065 7.33333H7.16732C7.53552 7.33333 7.83398 7.03487 7.83398 6.66667V2.66667C7.83398 2.29848 7.53552 2 7.16732 2H2.50065ZM2.50065 8.66667C2.13246 8.66667 1.83398 8.96513 1.83398 9.33333V13.3333C1.83398 13.7015 2.13246 14 2.50065 14H7.16732C7.53552 14 7.83398 13.7015 7.83398 13.3333V9.33333C7.83398 8.96513 7.53552 8.66667 7.16732 8.66667H2.50065ZM9.16732 2.66667C9.16732 2.29848 9.46578 2 9.83398 2H14.5007C14.8689 2 15.1673 2.29848 15.1673 2.66667V6.66667C15.1673 7.03487 14.8689 7.33333 14.5007 7.33333H9.83398C9.46578 7.33333 9.16732 7.03487 9.16732 6.66667V2.66667ZM9.83398 8.66667C9.46578 8.66667 9.16732 8.96513 9.16732 9.33333V13.3333C9.16732 13.7015 9.46578 14 9.83398 14H14.5007C14.8689 14 15.1673 13.7015 15.1673 13.3333V9.33333C15.1673 8.96513 14.8689 8.66667 14.5007 8.66667H9.83398Z" fill="#181818"/>
</svg>
