<svg width="16" height="16" viewBox="0 0 16 16" fill="none" xmlns="http://www.w3.org/2000/svg">
<g id="Frame">
<path id="Vector" d="M12 4.66675C12 4.84168 11.9888 5.01399 11.967 5.18299C13.1808 5.86979 14 7.17262 14 8.66675C14 10.8759 12.2091 12.6667 10 12.6667C9.53247 12.6667 9.08373 12.5865 8.66667 12.4391V14.6667H7.33333V12.2669C6.83327 12.5225 6.26681 12.6667 5.66667 12.6667C3.64162 12.6667 2 11.0251 2 9.00008C2 8.03168 2.37541 7.15095 2.98865 6.49553C3.2515 7.21555 3.66496 7.86301 4.19051 8.39935L5.14283 7.46615C4.66047 6.97388 4.3047 6.35853 4.12707 5.67133C4.04405 5.35035 4 5.01368 4 4.66675C4 2.45761 5.79086 0.666748 8 0.666748C10.2091 0.666748 12 2.45761 12 4.66675Z" fill="white"/>
</g>
</svg>
