<svg width="16" height="16" viewBox="0 0 16 16" fill="none" xmlns="http://www.w3.org/2000/svg">
<g id="Frame 1948757699" clip-path="url(#clip0_617_8326)">
<path id="Vector 31 (Stroke)" fill-rule="evenodd" clip-rule="evenodd" d="M1.99062 8.49569L1.31984 7.62513L2.2704 6.89271L4.6695 10.0063L11.3454 4.86248L8.94627 1.74885L9.89683 1.01643L10.5676 1.88699L11.4648 1.19566L12.1767 2.11956L13.0739 1.42823L15.8598 5.0438L14.9626 5.73513L15.6333 6.60569L14.7361 7.29702L15.4274 8.19425L14.4769 8.92667L12.0778 5.81304L5.40192 10.9569L7.80102 14.0705L6.85046 14.8029L6.15913 13.9057L5.26191 14.597L4.59112 13.7265L3.6939 14.4178L0.908044 10.8022L1.80527 10.1109L1.0934 9.18702L1.99062 8.49569Z" fill="white"/>
</g>
<defs>
<clipPath id="clip0_617_8326">
<rect width="16" height="16" fill="white"/>
</clipPath>
</defs>
</svg>
