<svg width="21" height="20" viewBox="0 0 21 20" fill="none" xmlns="http://www.w3.org/2000/svg">
<g id="Icons / search">
<path id="Vector" d="M15.5226 13.8476L19.0917 17.4159L17.9126 18.5951L14.3442 15.0259C13.0165 16.0903 11.3651 16.6692 9.66341 16.6667C5.52341 16.6667 2.16341 13.3067 2.16341 9.16675C2.16341 5.02675 5.52341 1.66675 9.66341 1.66675C13.8034 1.66675 17.1634 5.02675 17.1634 9.16675C17.1658 10.8684 16.5869 12.5199 15.5226 13.8476ZM13.8509 13.2292C14.9085 12.1417 15.4991 10.6838 15.4967 9.16675C15.4967 5.94341 12.8859 3.33341 9.66341 3.33341C6.44007 3.33341 3.83007 5.94341 3.83007 9.16675C3.83007 12.3892 6.44007 15.0001 9.66341 15.0001C11.1804 15.0025 12.6383 14.4118 13.7259 13.3542L13.8509 13.2292Z" fill="#181818" fill-opacity="0.15"/>
</g>
</svg>
