<svg width="21" height="20" viewBox="0 0 21 20" fill="none" xmlns="http://www.w3.org/2000/svg">
<g id="Icons / secondary housing">
<path id="Vector" d="M17.5533 7.26657L11.0266 1.26322C10.5956 0.912259 10.0784 0.912259 9.64737 1.26322L3.11447 7.26657C2.68961 7.61138 2.68964 8.20863 3.02829 8.63349C3.20685 8.81205 3.4593 8.98445 3.7179 8.98445C3.97651 8.98445 4.22895 8.89209 4.40135 8.72585L10.337 3.3136L16.2664 8.72585C16.6913 9.07065 17.2947 9.07065 17.6333 8.63964C17.9781 8.21479 17.9781 7.61138 17.5471 7.27273L17.5533 7.26657ZM2 14.4767C2.86202 16.1946 3.71788 17.8263 4.5799 19.458C6.47019 17.9987 10.6818 19.0331 13.7727 18.7745C15.7492 17.7401 17.6395 16.6256 19.6221 15.5974C20.0531 14.4829 19.6221 13.8795 18.1629 13.7933C16.7836 14.5691 15.4106 15.3326 14.0313 16.1084C12.6521 15.936 11.2852 15.6836 9.8998 15.5112C7.83711 12.8451 12.3997 14.9878 13.6865 14.7353C14.4624 14.2243 14.6348 13.6147 13.6865 13.0175C11.6239 12.5865 9.47495 12.1554 7.32606 11.7306C5.60818 12.5865 3.80408 13.5347 2 14.4767ZM5.09713 8.89825V12.334L7.1598 11.3057L7.33222 11.2195H7.41844L8.19422 11.3919V8.4734H12.4859V11.472H8.45285L13.7727 12.5865H13.9513V12.6727C15.0658 13.4423 15.0658 14.3844 13.9513 15.074L13.8651 15.154H13.7727C13.1755 15.2402 12.141 14.9816 11.5376 14.8954C11.2852 14.8154 10.2508 14.5568 9.8998 14.5568C9.8998 14.7292 10.0784 14.8954 10.1584 15.0678L13.5942 15.5789H14.0252L15.5707 14.723V8.87978L10.3308 4.1633L5.0848 8.87978L5.09713 8.89825ZM4.14888 1.77428L8.1881 1.94052L4.40135 5.55485L4.14888 1.77428Z" fill="#181818"/>
</g>
</svg>
