<svg width="16" height="13" viewBox="0 0 16 13" fill="none" xmlns="http://www.w3.org/2000/svg">
<g id="Group 1597880422">
<path id="Vector 29 (Stroke)" fill-rule="evenodd" clip-rule="evenodd" d="M11.3466 0.146447C11.5419 -0.0488155 11.8585 -0.0488155 12.0537 0.146447L15.0537 3.14645C15.249 3.34171 15.249 3.65829 15.0537 3.85355C14.8585 4.04882 14.5419 4.04882 14.3466 3.85355L12.2002 1.70711V12C12.2002 12.2761 11.9763 12.5 11.7002 12.5C11.4241 12.5 11.2002 12.2761 11.2002 12V1.70711L9.05375 3.85355C8.85849 4.04882 8.5419 4.04882 8.34664 3.85355C8.15138 3.65829 8.15138 3.34171 8.34664 3.14645L11.3466 0.146447Z" fill="black"/>
<path id="Vector 30 (Stroke)" fill-rule="evenodd" clip-rule="evenodd" d="M4.55375 12.3536C4.35849 12.5488 4.0419 12.5488 3.84664 12.3536L0.846642 9.35355C0.65138 9.15829 0.65138 8.84171 0.846642 8.64645C1.0419 8.45118 1.35849 8.45118 1.55375 8.64645L3.7002 10.7929L3.7002 0.5C3.7002 0.223858 3.92405 0 4.2002 0C4.47634 0 4.7002 0.223858 4.7002 0.5L4.7002 10.7929L6.84664 8.64645C7.0419 8.45118 7.35849 8.45118 7.55375 8.64645C7.74901 8.84171 7.74901 9.15829 7.55375 9.35355L4.55375 12.3536Z" fill="black"/>
</g>
</svg>
