<svg width="20" height="20" viewBox="0 0 16 16" fill="none" xmlns="http://www.w3.org/2000/svg">
<g id="Icons / whatsapp">
<path id="Vector" d="M2.00241 14L2.81361 11.0192C2.27909 10.1029 1.99827 9.06079 2.00001 8C2.00001 4.6862 4.68621 2 8 2C11.3138 2 14 4.6862 14 8C14 11.3138 11.3138 14 8 14C6.93967 14.0017 5.89799 13.7211 4.98201 13.187L2.00241 14ZM5.83461 5.1848C5.75712 5.18961 5.68141 5.21002 5.61201 5.2448C5.54692 5.28166 5.4875 5.32773 5.43561 5.3816C5.36361 5.4494 5.32281 5.5082 5.27901 5.5652C5.05725 5.85379 4.93797 6.20805 4.94001 6.572C4.94121 6.866 5.01801 7.1522 5.13801 7.4198C5.38341 7.961 5.78721 8.534 6.32061 9.065C6.44901 9.1928 6.57441 9.3212 6.7094 9.4406C7.37144 10.0235 8.16036 10.4438 9.0134 10.6682L9.3548 10.7204C9.4658 10.7264 9.5768 10.718 9.6884 10.7126C9.86315 10.7036 10.0338 10.6563 10.1882 10.574C10.2668 10.5335 10.3435 10.4895 10.418 10.442C10.418 10.442 10.4438 10.4252 10.493 10.388C10.574 10.328 10.6238 10.2854 10.691 10.2152C10.7408 10.1636 10.784 10.103 10.817 10.034C10.8638 9.93619 10.9106 9.74959 10.9298 9.59419C10.9442 9.47539 10.94 9.4106 10.9382 9.3704C10.9358 9.3062 10.8824 9.2396 10.8242 9.2114L10.475 9.0548C10.475 9.0548 9.953 8.8274 9.6344 8.6822C9.60081 8.66755 9.56481 8.65921 9.5282 8.6576C9.48715 8.65338 9.44567 8.658 9.40655 8.67114C9.36743 8.68429 9.33158 8.70565 9.3014 8.7338V8.7326C9.2984 8.7326 9.2582 8.7668 8.8244 9.2924C8.7995 9.32585 8.76521 9.35114 8.72589 9.36503C8.68656 9.37892 8.64399 9.38079 8.6036 9.3704C8.56451 9.35994 8.52621 9.3467 8.489 9.3308C8.4146 9.2996 8.3888 9.2876 8.3378 9.2654L8.3348 9.2642C7.99155 9.11432 7.67374 8.9119 7.3928 8.6642C7.3172 8.5982 7.247 8.5262 7.175 8.4566C6.93896 8.23053 6.73324 7.9748 6.563 7.6958L6.5276 7.6388C6.50218 7.6005 6.48162 7.55918 6.46641 7.5158C6.44361 7.4276 6.50301 7.3568 6.50301 7.3568C6.50301 7.3568 6.64881 7.1972 6.71661 7.1108C6.77306 7.03899 6.82573 6.96429 6.8744 6.887C6.9452 6.773 6.9674 6.656 6.9302 6.5654C6.76221 6.155 6.5882 5.7464 6.40941 5.3408C6.37401 5.2604 6.26901 5.2028 6.17361 5.1914C6.14127 5.1876 6.10886 5.1844 6.07641 5.1818C5.99583 5.17779 5.91509 5.1792 5.83461 5.1848Z" fill="#181818"/>
</g>
</svg>
