<svg width="336" height="437" viewBox="0 0 336 437" fill="none" xmlns="http://www.w3.org/2000/svg">
<path d="M152.793 157.346L146.117 157.739L145.333 169.144L139.05 173.47L129.233 174.257L121.38 177.403L119.023 183.696L113.132 188.415L111.169 186.055L107.242 189.202L110.777 198.247L113.526 201.786H121.38C124.652 197.723 132.611 190.696 138.265 195.101C143.92 199.505 138.002 207.948 134.337 211.618C129.234 215.551 118.158 222.866 122.556 230.102C126.954 237.339 136.693 233.642 141.012 230.889L144.939 234.035L150.044 222.237L157.113 226.563L158.291 223.023L161.04 225.383L171.249 222.237L176.747 223.81V216.731L185.386 220.271L184.208 214.371H187.742L189.313 220.271L197.952 218.304V212.405L202.664 216.731L205.806 208.079L195.203 197.854L189.313 196.674L191.276 195.101L190.098 188.808L194.418 189.595L197.559 187.628L197.952 183.696L201.094 178.583L204.235 181.729L212.482 173.864L209.34 167.178L199.523 166.391L179.496 159.312L176.747 156.166L171.249 152.233V157.739L161.825 156.559V164.032L159.469 166.391L155.542 164.032H153.186L152.793 157.346Z" fill="#F1F1F1" stroke="#CECECE"/>
<path d="M159.849 199.69H158.51V198.013H151.672V188.718H153.102V196.765H157.34V188.718H158.77V196.765H159.849V199.69Z" fill="#181818"/>
<path d="M161.741 198H160.233L163.691 188.705H165.238L168.722 198H167.162L166.395 195.764H162.508L161.741 198ZM164.445 190.031L162.937 194.555H165.992L164.471 190.031H164.445Z" fill="#181818"/>
<path d="M173.452 198.182C170.67 198.182 168.889 196.141 168.889 193.346C168.889 190.551 170.67 188.523 173.452 188.523C176.234 188.523 178.015 190.551 178.015 193.346C178.015 196.141 176.234 198.182 173.452 198.182ZM173.452 196.947C175.649 196.947 176.52 195.257 176.52 193.346C176.52 191.435 175.649 189.758 173.452 189.758C171.255 189.758 170.384 191.435 170.384 193.346C170.384 195.257 171.255 196.947 173.452 196.947Z" fill="#181818"/>
<path d="M216.801 182.516L209.34 167.178L199.523 166.391L179.496 159.312V150.267C182.768 143.057 189.199 128.078 189.706 127.063C190.099 126.277 190.099 118.149 189.706 114.085H193.633L194.026 110.939L199.916 105.433L198.738 103.074L200.701 101.5L197.167 99.1407L199.523 96.7811L203.057 99.9273L203.45 106.613L206.199 105.04L212.875 106.613C214.053 105.302 216.566 102.444 217.194 101.5C217.822 100.557 216.409 95.6012 215.623 93.2416H204.235L210.911 89.7021L209.733 87.7357L215.623 79.0835L217.194 81.8365L221.906 79.0835L224.655 76.3306C239.446 89.7021 270.128 117.546 274.526 121.951C278.924 126.356 280.548 132.963 280.809 135.716L283.558 136.502L294.161 129.423V126.277L300.051 124.704L301.229 126.277L298.088 130.21L301.229 131.39L311.046 133.356L309.476 137.289L302.015 134.536L299.658 138.862L296.517 143.581L291.019 141.222L289.056 144.368L281.987 138.075L279.259 138.469L280.809 168.358L283.951 171.111L281.595 173.077V176.617C280.417 185.138 279.317 202.258 284.344 202.573C289.37 202.888 294.03 201.131 295.732 200.213L305.156 195.494L307.119 197.067L305.156 199.033L306.727 204.539L301.622 203.359L298.088 208.079L292.983 209.652L289.449 219.484L294.946 223.023H300.051L299.658 225.776L302.8 226.17L307.905 223.023L312.617 220.27L315.366 221.45L317.329 221.057L318.115 219.091L324.398 215.551L325.968 219.091L329.11 216.338L335 224.203L331.859 228.529L326.754 227.743L325.576 228.529V233.249L322.042 237.181L310.654 237.575L300.836 243.867L296.517 248.586L292.197 244.654L239.577 209.652L227.404 202.18L216.409 196.28L214.445 191.561L216.801 182.516Z" fill="#F1F1F1"/>
<path fill-rule="evenodd" clip-rule="evenodd" d="M224.637 75.6406L224.99 75.9597C239.773 89.3235 270.47 117.181 274.88 121.598C279.219 125.943 280.909 132.34 281.27 135.327L283.473 135.958L293.661 129.156V125.893L300.249 124.134L301.861 126.287L298.908 129.984L301.367 130.907L311.733 132.984L309.759 137.926L302.247 135.154L300.087 139.12L296.702 144.205L291.216 141.85L289.166 145.135L281.829 138.603L279.782 138.898L281.298 168.121L284.72 171.12L282.095 173.311V176.651L282.09 176.685C281.503 180.93 280.938 187.308 281.142 192.653C281.245 195.331 281.54 197.711 282.103 199.427C282.68 201.185 283.456 202.016 284.375 202.074C289.285 202.381 293.852 200.659 295.494 199.773L295.501 199.77L305.219 194.903L307.867 197.026L305.717 199.179L307.44 205.217L301.827 203.92L298.39 208.509L293.369 210.056L290.054 219.279L295.093 222.523H300.627L300.225 225.343L302.687 225.652L307.653 222.592L312.583 219.712L315.42 220.929L316.965 220.62L317.716 218.741L324.632 214.845L326.15 218.267L329.186 215.606L335.621 224.199L332.084 229.07L326.87 228.266L326.076 228.797V233.44L322.271 237.674L310.808 238.07L301.161 244.253L296.549 249.292L291.889 245.049L239.308 210.073L227.155 202.613L216.015 196.637L213.919 191.598L216.271 182.568L209.016 167.653L199.418 166.884L178.996 159.666V150.159L179.041 150.06C180.675 146.459 183.099 140.916 185.18 136.142C185.546 135.301 185.903 134.483 186.242 133.703C187.824 130.072 189.044 127.271 189.259 126.84L189.257 126.843C189.257 126.843 189.269 126.812 189.285 126.731C189.303 126.646 189.321 126.532 189.338 126.387C189.373 126.097 189.403 125.712 189.428 125.249C189.476 124.325 189.5 123.118 189.5 121.803C189.5 119.172 189.402 116.143 189.208 114.133L189.155 113.585H193.191L193.552 110.697L199.302 105.323L198.11 102.936L199.856 101.537L196.383 99.2184L199.503 96.0937L203.544 99.6914L203.902 105.778L206.122 104.508L212.7 106.058C213.284 105.405 214.1 104.481 214.861 103.594C215.721 102.59 216.484 101.665 216.778 101.223C216.778 101.223 216.781 101.218 216.787 101.205C216.792 101.192 216.799 101.174 216.806 101.148C216.82 101.095 216.833 101.023 216.841 100.928C216.858 100.738 216.853 100.489 216.826 100.188C216.773 99.5859 216.636 98.829 216.451 98.0121C216.117 96.5329 215.638 94.9045 215.261 93.7416H204.235L204.001 92.7998L210.211 89.5071L209.14 87.7185L215.661 78.1401L217.378 81.15L221.598 78.6845L224.637 75.6406ZM279.203 138.077L279.188 137.974L282.146 137.547L288.946 143.6L290.822 140.593L296.331 142.957L299.23 138.603L301.782 133.917L309.192 136.651L310.359 133.728L301.091 131.872L297.267 130.436L300.597 126.267L299.853 125.274L294.661 126.661V129.691L283.643 137.047L280.344 136.102L280.312 135.763C280.056 133.072 278.457 126.595 274.173 122.304C269.821 117.946 239.601 90.518 224.673 77.0206L222.214 79.4826L217.01 82.523L215.586 80.0269L210.326 87.7529L211.611 89.897L206.246 92.7416H215.984L216.098 93.0837C216.494 94.2736 217.049 96.119 217.427 97.7918C217.615 98.6266 217.763 99.4329 217.822 100.099C217.852 100.432 217.861 100.744 217.837 101.014C217.815 101.271 217.759 101.554 217.61 101.777C217.276 102.28 216.468 103.255 215.62 104.244C214.763 105.244 213.837 106.29 213.246 106.947L213.048 107.168L206.276 105.572L202.998 107.448L202.57 100.163L199.543 97.4685L197.951 99.0631L201.547 101.464L199.365 103.211L200.53 105.544L194.499 111.181L194.074 114.585H190.252C190.418 116.613 190.5 119.384 190.5 121.803C190.5 123.127 190.476 124.354 190.426 125.301C190.401 125.775 190.37 126.185 190.331 126.507C190.312 126.667 190.29 126.812 190.265 126.934C190.241 127.047 190.208 127.177 190.153 127.287C189.951 127.691 188.748 130.453 187.166 134.086C186.825 134.869 186.467 135.692 186.097 136.542C184.036 141.27 181.633 146.764 179.996 150.375V158.959L199.628 165.898L209.665 166.702L217.332 182.463L214.972 191.524L216.802 195.924L227.653 201.746L239.847 209.231L292.506 244.258L296.485 247.881L300.512 243.481L310.499 237.08L321.812 236.689L325.076 233.057V228.262L326.638 227.219L331.633 227.989L334.379 224.208L329.033 217.07L325.787 219.914L324.164 216.257L318.514 219.44L317.693 221.494L315.312 221.971L312.652 220.829L308.167 223.449L308.157 223.455L302.912 226.688L299.092 226.209L299.475 223.523H294.799L288.843 219.689L292.597 209.248L297.785 207.649L301.417 202.799L306.013 203.861L304.595 198.888L306.371 197.108L305.093 196.084L295.962 200.657C294.195 201.608 289.448 203.393 284.312 203.072C282.718 202.972 281.746 201.545 281.153 199.739C280.546 197.889 280.246 195.398 280.143 192.691C279.936 187.281 280.505 180.859 281.095 176.582V172.843L283.182 171.101L280.321 168.595L278.739 138.101L279.203 138.077Z" fill="#CECECE"/>
<path d="M231.823 158H227.676V148.705H231.589C233.5 148.705 234.618 149.563 234.618 151.045C234.618 152.189 233.942 152.722 233.175 152.982V153.008C234.15 153.177 234.982 153.892 234.982 155.283C234.982 157.064 233.747 158 231.823 158ZM229.106 152.566H231.55C232.72 152.566 233.123 152.085 233.123 151.253C233.123 150.434 232.629 149.94 231.654 149.94H229.106V152.566ZM229.106 156.765H231.719C233.097 156.765 233.487 156.102 233.487 155.231C233.487 154.256 232.889 153.697 231.914 153.697H229.106V156.765Z" fill="#181818"/>
<path d="M236.742 158H235.234L238.692 148.705H240.239L243.723 158H242.163L241.396 155.764H237.509L236.742 158ZM239.446 150.031L237.938 154.555H240.993L239.472 150.031H239.446Z" fill="#181818"/>
<path d="M248.453 158.182C245.671 158.182 243.89 156.141 243.89 153.346C243.89 150.551 245.671 148.523 248.453 148.523C251.235 148.523 253.016 150.551 253.016 153.346C253.016 156.141 251.235 158.182 248.453 158.182ZM248.453 156.947C250.65 156.947 251.521 155.257 251.521 153.346C251.521 151.435 250.65 149.758 248.453 149.758C246.256 149.758 245.385 151.435 245.385 153.346C245.385 155.257 246.256 156.947 248.453 156.947Z" fill="#181818"/>
<path d="M119.021 5.93194L122.555 13.4042L109.989 16.5505C113 28.611 119.971 52.5035 120.591 53.1253C120.984 53.5186 131.194 61.3842 135.906 64.9237V75.5422L140.226 91.2733L139.048 103.465L141.797 114.083L139.048 119.589V129.028C139.048 130.601 140.88 135.714 141.797 138.073L145.723 142.399L142.582 142.793L144.153 154.591L146.116 157.737L152.792 157.344L153.185 164.03H155.541L159.468 166.389L161.824 164.03V156.557L171.248 157.737V152.231L176.746 156.164L179.495 159.31V150.265C182.505 143.71 188.762 130.129 189.704 128.241C190.647 126.354 190.097 118.016 189.704 114.083H193.631L194.024 110.937L199.914 105.431L198.736 103.072L200.7 101.499L197.165 99.1389L199.522 96.7792L203.056 99.9254L203.448 106.611L206.197 105.038L212.873 106.611C214.051 105.562 216.564 103.15 217.193 101.892C217.821 100.633 216.407 95.5994 215.622 93.2397H204.234L210.91 89.7002L209.731 87.7338L215.622 79.0817L217.193 81.8346L221.905 79.0817L224.654 76.3287L221.512 74.3624V70.4296H217.978C212.873 63.3506 205.019 60.9909 204.234 60.5976C203.672 60.3162 202.14 58.7623 201.092 58.2379L200.7 60.5976H194.024L191.668 57.8447L188.526 60.5976C169.677 60.2043 152.006 48.406 148.472 47.2262C144.938 46.0463 141.404 45.653 139.833 45.2598C138.577 44.9451 133.027 46.4396 130.409 47.2262C131.194 38.4429 132.765 20.4832 132.765 18.9101V7.89833H129.623L126.482 2.78571L119.021 5.93194Z" fill="#181818"/>
<path fill-rule="evenodd" clip-rule="evenodd" d="M126.683 2.1582L129.903 7.39833H133.265V18.9101C133.265 19.7246 132.869 24.6417 132.379 30.4066C131.915 35.8792 131.363 42.1581 130.972 46.5385C132.253 46.1665 133.945 45.7067 135.519 45.3429C136.461 45.1252 137.369 44.9399 138.126 44.829C138.504 44.7735 138.853 44.7355 139.153 44.7222C139.443 44.7093 139.726 44.7174 139.955 44.7747C140.428 44.8932 141.076 45.01 141.866 45.1524C142.361 45.2417 142.912 45.341 143.512 45.4571C145.042 45.7539 146.834 46.152 148.631 46.7519C149.113 46.9129 149.808 47.2436 150.662 47.6776C151.251 47.9771 151.933 48.3349 152.695 48.7348C153.048 48.9196 153.417 49.1134 153.802 49.3147C156.247 50.591 159.364 52.1824 162.956 53.7485C170.096 56.8616 179.081 59.8613 188.343 60.0933L191.719 57.1352L194.254 60.0976H200.276L200.71 57.4875L201.316 57.7909C201.902 58.084 202.591 58.6444 203.166 59.1255C203.259 59.2038 203.35 59.28 203.437 59.3537C203.629 59.5154 203.806 59.6647 203.968 59.7953C204.213 59.9934 204.373 60.1082 204.458 60.1505C204.535 60.1892 204.703 60.2536 204.947 60.3473C206.881 61.0893 213.614 63.672 218.232 69.9296H222.012V74.0854L225.451 76.2379L222.213 79.4808L217.009 82.5212L215.584 80.0251L210.325 87.751L211.609 89.8952L206.244 92.7397H215.982L216.096 93.0818C216.493 94.2731 217.048 96.1393 217.426 97.8722C217.615 98.7376 217.762 99.5827 217.821 100.3C217.85 100.658 217.859 100.996 217.836 101.293C217.814 101.584 217.76 101.874 217.64 102.115C217.287 102.822 216.448 103.791 215.6 104.676C214.735 105.579 213.802 106.453 213.205 106.985L213.011 107.157L206.275 105.57L202.997 107.446L202.569 100.161L199.542 97.4666L197.95 99.0612L201.545 101.462L199.364 103.209L200.528 105.542L194.498 111.179L194.073 114.583H190.255C190.44 116.552 190.642 119.34 190.705 121.917C190.74 123.33 190.732 124.689 190.656 125.82C190.618 126.385 190.562 126.9 190.483 127.34C190.406 127.774 190.301 128.165 190.152 128.465C189.219 130.334 183.025 143.776 179.995 150.374V160.643L176.408 156.537L171.748 153.204V158.304L162.324 157.124V164.237L159.545 167.019L155.402 164.53H152.713L152.322 157.873L145.849 158.254L143.671 154.764L142.02 142.359L144.706 142.023L141.364 138.341L141.331 138.254C140.87 137.068 140.179 135.191 139.603 133.41C139.315 132.52 139.053 131.648 138.864 130.896C138.677 130.158 138.548 129.49 138.548 129.028V119.471L141.266 114.028L138.542 103.505L139.719 91.3169L135.406 75.6096V65.1733C133.041 63.3937 129.426 60.6309 126.324 58.2408C124.728 57.0114 123.267 55.88 122.18 55.0311C121.636 54.6067 121.185 54.2522 120.858 53.9911C120.547 53.7435 120.313 53.5537 120.238 53.4786C120.152 53.3932 120.095 53.2788 120.067 53.2212C120.027 53.1417 119.985 53.0435 119.94 52.9323C119.849 52.7087 119.738 52.4051 119.609 52.034C119.35 51.2904 119.014 50.2532 118.619 48.9936C117.83 46.4732 116.805 43.0479 115.706 39.2669C113.509 31.706 111.011 22.7108 109.504 16.6715L109.383 16.1868L121.842 13.0672L118.346 5.67399L126.683 2.1582ZM119.696 6.18989L123.267 13.7413L110.596 16.914C112.109 22.9254 114.529 31.6321 116.666 38.9879C117.764 42.7654 118.787 46.1835 119.573 48.6948C119.967 49.951 120.3 50.9767 120.553 51.7058C120.68 52.0711 120.785 52.3563 120.867 52.5569C120.907 52.6578 120.94 52.7306 120.963 52.7787C120.966 52.785 120.969 52.7905 120.972 52.7953C120.975 52.7979 120.978 52.8008 120.982 52.8039C121.009 52.8273 121.046 52.8584 121.094 52.8974C121.188 52.9751 121.318 53.0797 121.481 53.2089C121.805 53.4671 122.253 53.8193 122.795 54.2429C123.88 55.09 125.339 56.2199 126.934 57.4486C130.124 59.9061 133.853 62.7559 136.207 64.5239L136.406 64.6739V75.4748L140.732 91.2297L139.554 103.425L142.328 114.139L139.548 119.707V129.028C139.548 129.353 139.647 129.914 139.833 130.651C140.016 131.373 140.27 132.222 140.554 133.102C141.11 134.818 141.774 136.629 142.229 137.806L146.741 142.776L143.144 143.226L144.634 154.418L146.383 157.221L153.262 156.816L153.656 163.53H155.679L159.39 165.76L161.324 163.823V155.991L170.748 157.171V151.259L177.084 155.791L178.995 157.978V150.156L179.04 150.056C182.048 143.508 188.31 129.915 189.257 128.018C189.343 127.846 189.428 127.564 189.499 127.164C189.569 126.772 189.622 126.296 189.658 125.752C189.732 124.665 189.739 123.34 189.705 121.942C189.637 119.145 189.402 116.091 189.207 114.133L189.152 113.583H193.19L193.55 110.696L199.3 105.321L198.109 102.934L199.854 101.535L196.381 99.2166L199.501 96.0918L203.543 99.6896L203.9 105.776L206.12 104.506L212.733 106.065C213.312 105.541 214.123 104.772 214.878 103.984C215.738 103.086 216.47 102.22 216.745 101.668C216.782 101.595 216.821 101.452 216.839 101.218C216.856 100.99 216.851 100.709 216.824 100.382C216.77 99.7274 216.633 98.9306 216.449 98.0852C216.115 96.5535 215.636 94.9049 215.26 93.7397H204.234L204 92.798L210.21 89.5052L209.138 87.7166L215.659 78.1383L217.376 81.1481L221.597 78.6826L223.856 76.4196L221.012 74.6393V70.9296H217.722L217.572 70.722C213.175 64.6249 206.727 62.1145 204.621 61.2946C204.327 61.18 204.117 61.0984 204.01 61.0447C203.813 60.9463 203.572 60.7614 203.339 60.5726C203.169 60.4357 202.98 60.2758 202.784 60.1107C202.698 60.0384 202.611 59.9651 202.524 59.8923C202.162 59.5889 201.797 59.2925 201.463 59.0549L201.123 61.0976H193.794L191.617 58.5541L188.71 61.1016L188.516 61.0975C178.998 60.8989 169.798 57.8228 162.556 54.6652C158.933 53.0851 155.791 51.481 153.34 50.2011C152.949 49.9972 152.577 49.802 152.224 49.6166C151.465 49.2185 150.792 48.8656 150.208 48.569C149.346 48.1305 148.715 47.8343 148.314 47.7004C146.577 47.1205 144.834 46.7321 143.321 46.4389C142.766 46.3313 142.235 46.2353 141.744 46.1468C140.921 45.9981 140.214 45.8706 139.712 45.7448C139.626 45.7234 139.461 45.7095 139.197 45.7212C138.943 45.7324 138.631 45.7657 138.271 45.8184C137.552 45.9237 136.674 46.1022 135.744 46.3172C133.886 46.7467 131.854 47.3138 130.553 47.705L129.845 47.9176L129.911 47.1816C130.303 42.7905 130.892 36.1055 131.383 30.3221C131.876 24.518 132.265 19.6688 132.265 18.9101V8.39833H129.344L126.281 3.41322L119.696 6.18989Z" fill="#CECECE"/>
<path d="M158.561 88.1824C155.922 88.1824 154.219 86.1544 154.219 83.3594C154.219 80.5514 155.935 78.5234 158.574 78.5234C160.901 78.5234 162.344 80.0054 162.565 81.8644H161.07C160.901 80.9544 160.329 79.7584 158.548 79.7584C156.494 79.7584 155.714 81.5004 155.714 83.3464C155.714 85.2054 156.494 86.9474 158.548 86.9474C160.342 86.9474 160.979 85.7514 161.07 84.6204H162.565C162.357 86.6874 160.901 88.1824 158.561 88.1824Z" fill="white"/>
<path d="M167.999 88.0004H163.852V78.7054H167.765C169.676 78.7054 170.794 79.5634 170.794 81.0454C170.794 82.1894 170.118 82.7224 169.351 82.9824V83.0084C170.326 83.1774 171.158 83.8924 171.158 85.2834C171.158 87.0644 169.923 88.0004 167.999 88.0004ZM165.282 82.5664H167.726C168.896 82.5664 169.299 82.0854 169.299 81.2534C169.299 80.4344 168.805 79.9404 167.83 79.9404H165.282V82.5664ZM165.282 86.7654H167.895C169.273 86.7654 169.663 86.1024 169.663 85.2314C169.663 84.2564 169.065 83.6974 168.09 83.6974H165.282V86.7654Z" fill="white"/>
<path d="M172.919 88.0004H171.411L174.869 78.7054H176.416L179.9 88.0004H178.34L177.573 85.7644H173.686L172.919 88.0004ZM175.623 80.0314L174.115 84.5554H177.17L175.649 80.0314H175.623Z" fill="white"/>
<path d="M184.629 88.1824C181.847 88.1824 180.066 86.1414 180.066 83.3464C180.066 80.5514 181.847 78.5234 184.629 78.5234C187.411 78.5234 189.192 80.5514 189.192 83.3464C189.192 86.1414 187.411 88.1824 184.629 88.1824ZM184.629 86.9474C186.826 86.9474 187.697 85.2574 187.697 83.3464C187.697 81.4354 186.826 79.7584 184.629 79.7584C182.432 79.7584 181.561 81.4354 181.561 83.3464C181.561 85.2574 182.432 86.9474 184.629 86.9474Z" fill="white"/>
<path d="M28.7046 176.222L27.5265 178.975L28.7046 182.908L30.668 184.874L29.4899 199.819L33.8095 212.011L32.2387 215.55L34.2022 216.73L38.129 229.708L35.7729 232.854L40.0925 234.034L53.0512 251.732L56.1927 262.744L49.1243 268.249L48.7316 271.789L52.2658 273.755L55.0146 277.688L45.9828 281.228L41.6632 280.834L40.0925 276.508H35.7729V282.801H31.0607V274.935H26.7411L22.0289 281.228L15.3532 284.374L16.1386 288.307L11.0336 291.846L9.46288 300.498L14.5678 307.577L21.2435 303.644L25.5631 307.577V311.117L28.7046 310.33L32.2387 315.836L38.9144 307.577V312.297H42.4486L45.9828 310.33H51.4804L56.978 294.599L53.8365 291.846L56.1927 288.307L53.8365 284.374L55.4073 282.014L66.0098 282.801L77.0051 303.644L102.922 282.014L113.132 269.036L106.064 263.137L131.196 234.427C129.625 234.559 125.855 234.113 123.342 231.281C116.274 222.629 132.767 213.19 134.73 211.224C136.694 209.258 143.369 200.999 139.05 195.886C133.709 189.908 125.044 197.328 121.379 201.785H113.525L110.776 198.246L107.242 189.2C103.315 186.185 95.0687 180.076 93.4979 179.762C88.1574 179.447 87.0841 182.253 87.2149 183.695L88.0003 195.1C87.6076 202.572 79.7539 207.75 72.2928 206.505C66.6381 205.561 66.0098 200.343 66.4025 197.853C77.7905 195.493 78.9685 191.56 81.3246 183.695L74.2563 172.29H69.9367L64.8318 175.042L52.2658 172.683L46.7682 177.402L39.3071 177.795L38.129 176.222L31.846 178.189L30.668 176.222H28.7046Z" fill="#F1F1F1"/>
<path d="M29.4899 159.311L30.2753 162.851L27.5265 165.211L22.4216 170.323L22.8142 176.222L19.2801 180.155L15.3532 179.762L13.7824 182.515L2.00182 182.121L2.39451 178.582L8.28482 177.795L10.2483 174.649L19.2801 165.211L20.8508 159.705L17.7093 154.592L22.0289 152.626L25.5631 156.558L26.7411 160.884L29.4899 159.311Z" fill="#F1F1F1"/>
<path fill-rule="evenodd" clip-rule="evenodd" d="M22.1556 152.019L26.0143 156.312L27.0537 160.129L29.831 158.54L30.8283 163.035L27.8667 165.577L22.9355 170.516L23.3272 176.4L19.4825 180.678L15.6265 180.292L14.0672 183.025L1.44531 182.603L1.94068 178.138L7.98528 177.331L9.85136 174.341L18.8332 164.954L20.3096 159.779L16.987 154.371L22.1556 152.019ZM18.4317 154.813L21.392 159.63L19.7269 165.467L10.6451 174.958L8.58435 178.26L2.84834 179.026L2.55833 181.64L13.4976 182.005L15.0799 179.232L19.0776 179.632L22.3013 176.045L21.9076 170.13L27.1862 164.844L29.7223 162.667L29.1489 160.083L26.4285 161.639L25.1118 156.804L21.9022 153.233L18.4317 154.813ZM69.8105 171.79H74.5346L81.8682 183.622L81.7797 183.918C80.622 187.783 79.7104 190.826 77.624 193.171C75.5491 195.502 72.3712 197.088 66.8521 198.269C66.7283 199.435 66.8397 201.072 67.5324 202.546C68.2818 204.141 69.7197 205.568 72.3752 206.012C79.5957 207.217 87.1061 202.2 87.4994 195.103L86.717 183.74L86.7165 183.734C86.6403 182.877 86.9216 181.658 87.9669 180.701C89.018 179.738 90.7723 179.1 93.5273 179.263L93.562 179.265L93.5961 179.272C93.8711 179.327 94.229 179.489 94.6124 179.692C95.0114 179.903 95.4894 180.187 96.0222 180.522C97.0886 181.193 98.3978 182.086 99.7751 183.06C102.531 185.009 105.58 187.294 107.547 188.804L107.657 188.889L111.216 197.996L113.77 201.285H121.144C123.017 199.049 126.074 196.138 129.36 194.476C131.051 193.622 132.837 193.079 134.574 193.16C136.33 193.241 137.999 193.959 139.423 195.553L139.432 195.563C141.79 198.355 141.094 201.953 139.699 204.946C138.293 207.963 136.094 210.566 135.084 211.577C134.806 211.855 134.3 212.242 133.685 212.697C133.494 212.839 133.29 212.988 133.076 213.146C132.58 213.511 132.026 213.919 131.43 214.369C129.726 215.66 127.727 217.275 126.013 219.089C124.293 220.909 122.897 222.889 122.346 224.906C121.805 226.885 122.068 228.927 123.723 230.957C126.095 233.622 129.677 234.053 131.154 233.929L132.387 233.826L106.777 263.081L113.826 268.963L103.283 282.364L76.8511 304.424L65.6968 283.279L55.6616 282.534L54.4278 284.388L56.7839 288.321L54.4954 291.759L57.5614 294.445L51.8353 310.83H46.1125L42.5783 312.797H38.4144V308.991L32.1921 316.689L28.4777 310.902L25.0631 311.757V307.798L21.1796 304.262L14.4289 308.239L8.93293 300.618L10.5786 291.553L15.584 288.083L14.7863 284.088L21.7032 280.828L26.4909 274.435H31.5607V282.301H35.2729V276.008H40.4429L42.0248 280.365L45.9104 280.719L54.2411 277.454L51.922 274.136L48.198 272.064L48.6506 267.985L55.6193 262.556L52.5949 251.955L39.7923 234.471L34.9321 233.143L37.5772 229.611L33.7794 217.059L31.6025 215.751L33.2717 211.99L28.9831 199.886L30.1514 185.065L28.2617 183.172L26.9955 178.945L28.3747 175.722H30.9513L32.0726 177.594L38.3173 175.639L39.5473 177.282L46.5717 176.912L52.1222 172.147L64.7502 174.518L69.8105 171.79ZM70.0629 172.79L64.9134 175.567L52.4094 173.218L46.9646 177.892L39.0669 178.309L37.9408 176.805L31.6195 178.783L30.3847 176.722H29.0344L28.0575 179.005L29.1474 182.644L31.1845 184.684L29.9967 199.752L34.3473 212.031L32.875 215.349L34.6249 216.401L38.6809 229.805L36.6138 232.566L40.3927 233.598L53.5074 251.509L56.766 262.931L49.598 268.514L49.2652 271.514L52.6096 273.374L55.7881 277.922L46.0552 281.736L41.3016 281.303L39.7421 277.008H36.2729V283.301H30.5607V275.435H26.9913L22.3545 281.627L15.9201 284.659L16.6931 288.531L11.4886 292.139L9.99283 300.378L14.7067 306.915L21.3074 303.026L26.0631 307.356V310.476L28.9314 309.758L32.2853 314.983L39.4144 306.163V311.797H42.3189L45.8531 309.83H51.1255L56.3947 294.753L53.1777 291.934L55.6014 288.293L53.2452 284.36L55.1529 281.494L66.3229 282.323L77.159 302.865L102.562 281.664L112.439 269.109L105.351 263.193L130.093 234.928C128.147 234.805 125.128 234.047 122.968 231.613L122.961 231.606L122.955 231.598C121.082 229.304 120.757 226.924 121.381 224.642C121.996 222.393 123.521 220.269 125.286 218.402C127.057 216.529 129.107 214.874 130.827 213.572C131.428 213.117 131.993 212.701 132.49 212.335C132.703 212.179 132.904 212.031 133.089 211.894C133.725 211.423 134.163 211.085 134.376 210.871C135.33 209.916 137.45 207.406 138.793 204.524C140.146 201.62 140.628 198.535 138.672 196.214C137.427 194.823 136.011 194.228 134.528 194.159C133.024 194.089 131.413 194.559 129.812 195.369C126.604 196.991 123.573 199.904 121.765 202.103L121.615 202.285H113.28L110.337 198.495L106.827 189.512C104.865 188.007 101.889 185.779 99.1978 183.877C97.8263 182.907 96.5339 182.026 95.4896 181.369C94.967 181.04 94.5124 180.771 94.1445 180.576C93.7897 180.388 93.5547 180.291 93.4283 180.259C90.8679 180.115 89.4263 180.72 88.6424 181.438C87.8509 182.163 87.6599 183.065 87.7129 183.649L87.7139 183.66L88.5012 195.096L88.4996 195.126C88.0881 202.958 79.9019 208.282 72.2105 206.998C69.2113 206.497 67.5077 204.844 66.6274 202.971C65.7605 201.127 65.7006 199.094 65.9086 197.775L65.9625 197.433L66.3011 197.363C71.9547 196.192 74.9701 194.649 76.877 192.506C78.7663 190.383 79.6271 187.617 80.7811 183.767L73.9779 172.79H70.0629Z" fill="#CECECE"/>
<path d="M72.6778 236.195C70.3508 236.195 69.0898 235.233 69.0898 233.413H70.5848C70.6108 234.479 71.3258 234.947 72.6258 234.947C73.7698 234.947 74.5498 234.323 74.5498 233.348C74.5498 232.438 73.8868 231.905 72.8208 231.905H71.7158V230.748H72.7688C73.7698 230.748 74.2638 230.137 74.2638 229.24C74.2638 228.382 73.5358 227.797 72.5088 227.797C71.3518 227.797 70.6888 228.395 70.6888 229.253H69.1938C69.2198 227.641 70.4418 226.562 72.5088 226.562C74.4328 226.562 75.7588 227.55 75.7588 229.149C75.7588 230.111 75.2128 230.917 74.2768 231.294V231.32C75.3038 231.606 76.0448 232.334 76.0448 233.4C76.0448 235.025 74.6538 236.195 72.6778 236.195Z" fill="#181818"/>
<path d="M77.8529 236H76.3449L79.8029 226.705H81.3499L84.8339 236H83.2739L82.5069 233.764H78.6199L77.8529 236ZM80.5569 228.031L79.0489 232.555H82.1039L80.5829 228.031H80.5569Z" fill="#181818"/>
<path d="M89.5631 236.182C86.7811 236.182 85.0001 234.141 85.0001 231.346C85.0001 228.551 86.7811 226.523 89.5631 226.523C92.3451 226.523 94.1261 228.551 94.1261 231.346C94.1261 234.141 92.3451 236.182 89.5631 236.182ZM89.5631 234.947C91.7601 234.947 92.6311 233.257 92.6311 231.346C92.6311 229.435 91.7601 227.758 89.5631 227.758C87.3661 227.758 86.4951 229.435 86.4951 231.346C86.4951 233.257 87.3661 234.947 89.5631 234.947Z" fill="#181818"/>
<path d="M119.024 183.694L113.134 188.413L111.17 186.054L106.066 176.615L103.709 169.929L102.139 156.558L92.3215 138.86L93.4995 133.354L97.0337 127.848L94.6776 124.309L88.3946 125.882L86.8239 123.522L89.18 121.949L75.8286 88.9138L76.614 84.5877L67.1895 75.9356L68.7602 74.7558L69.5456 71.2163L72.6871 72.0028H82.1116L88.7873 68.4633L90.7507 65.7104L93.1068 66.4969L112.741 51.1591L119.024 48.7994L120.595 53.1255L135.91 64.9238V75.5423L140.229 91.2735L139.051 103.465L141.8 114.084L139.051 119.59V129.815L141.8 138.074L145.727 142.4L142.585 142.793L144.156 154.591L146.12 157.738L145.334 169.143L139.051 173.469L129.234 174.255L121.38 177.401L119.024 183.694Z" fill="#F1F1F1"/>
<path d="M47.1624 40.9339L42.0575 44.4734L38.5233 44.8666V41.7204L31.0623 47.6196L28.3135 42.507L33.0257 37.7876L35.7745 36.2145L24.7793 27.9557L19.6743 34.2481L14.1767 25.2027L9.46447 24.4162L17.7109 18.9103L21.2451 21.6632L23.2085 18.9103L17.3182 14.1909L12.9987 7.11193L16.5328 1.99931L19.2816 2.78587L20.067 6.32537L23.6012 8.29176L25.172 3.57243H35.3818L34.5964 6.32537L38.1306 8.29176L37.7379 6.32537L40.0941 5.14554L43.2356 6.71865L42.4502 9.4716L43.6283 10.2582L49.9113 8.68504L52.2674 7.11193L55.4089 4.75226L58.9431 8.68504L57.3723 13.7977H52.6601L49.5186 20.0901L53.0527 27.5624L51.482 29.1355L47.1624 26.7758L44.4136 34.2481V37.7876L47.1624 40.9339Z" fill="#F1F1F1"/>
<path fill-rule="evenodd" clip-rule="evenodd" d="M16.3255 1.41992L19.7053 2.38703L20.5065 5.9977L23.3173 7.5616L24.8114 3.07243H36.0444L35.186 6.08124L37.4285 7.32891L37.1729 6.04913L40.0941 4.58635L43.8301 6.45718L43.031 9.2582L43.7217 9.71933L49.7057 8.22107L51.9782 6.70382L55.4747 4.07747L59.5041 8.56135L57.7418 14.2977H52.9693L50.0745 20.096L53.6552 27.6667L51.5711 29.7539L47.4315 27.4926L44.9136 34.3372V37.6L47.907 41.0261L42.2385 44.9563L38.0233 45.4254V42.7532L30.9044 48.3818L27.6972 42.4166L32.7192 37.3869L34.8667 36.158L24.8641 28.6447L19.6156 35.1142L13.8684 25.6582L8.13672 24.7015L17.7334 18.294L21.1409 20.9483L22.5269 19.0049L16.9371 14.5263L12.4026 7.09495L16.3255 1.41992ZM16.7402 2.5787L13.5947 7.12891L17.6993 13.8556L23.8901 18.8157L21.3493 22.3782L17.6884 19.5265L10.7922 24.1309L14.485 24.7473L19.7331 33.3821L24.6944 27.2666L36.6823 36.2711L33.3322 38.1883L28.9298 42.5974L31.2201 46.8574L39.0233 40.6877V44.3079L41.8765 43.9904L46.4179 40.8416L43.9136 37.9753V34.1591L46.8933 26.0591L51.3929 28.5171L52.4503 27.4581L48.9627 20.0842L52.3508 13.2977H57.0029L58.382 8.80874L55.343 5.42705L52.5566 7.52005L50.1168 9.14901L43.5348 10.797L41.8694 9.685L42.641 6.98012L40.0941 5.70472L38.303 6.60161L38.8328 9.25462L34.0069 6.56951L34.7192 4.07243H25.5325L23.8852 9.02193L19.6276 6.65305L18.858 3.18471L16.7402 2.5787ZM119.322 48.1536L121.015 52.8181L136.41 64.6779V75.4749L140.736 91.2299L139.557 103.425L142.331 114.139L139.551 119.707V129.734L142.241 137.816L146.744 142.776L143.148 143.226L144.638 154.418L146.63 157.61L145.816 169.418L139.225 173.956L129.35 174.748L121.771 177.783L119.444 183.998L113.063 189.11L110.754 186.335L105.607 176.818L103.219 170.043L101.654 156.714L91.7933 138.939L93.0296 133.161L96.4364 127.853L94.4568 124.88L88.1738 126.453L86.131 123.384L88.5639 121.759L75.3108 88.9669L76.0728 84.7697L66.4082 75.8971L68.3122 74.467L69.1688 70.6065L72.7488 71.5028H81.9872L88.4488 68.0769L90.5583 65.119L93.0106 65.9377L112.494 50.7179L119.322 48.1536ZM112.989 51.6003L93.2031 67.0562L90.9431 66.3017L89.1258 68.8498L82.236 72.5028H72.6255L69.9225 71.8261L69.2083 75.0446L67.9708 75.9741L77.1552 84.4058L76.3464 88.8607L89.796 122.139L87.5167 123.661L88.6153 125.311L94.8983 123.738L97.6311 127.843L93.9694 133.548L92.8496 138.781L102.624 156.401L104.199 169.815L106.524 176.412L111.587 185.772L113.204 187.716L118.604 183.39L120.989 177.019L129.119 173.763L138.878 172.981L144.852 168.868L145.61 157.865L143.675 154.764L142.023 142.359L144.71 142.023L141.359 138.332L138.551 129.896V119.472L141.269 114.028L138.545 103.505L139.723 91.317L135.41 75.6097V65.1698L120.175 53.4328L118.727 49.4452L112.989 51.6003Z" fill="#CECECE"/>
<path d="M106.561 122.182C103.922 122.182 102.219 120.154 102.219 117.359C102.219 114.551 103.935 112.523 106.574 112.523C108.901 112.523 110.344 114.005 110.565 115.864H109.07C108.901 114.954 108.329 113.758 106.548 113.758C104.494 113.758 103.714 115.5 103.714 117.346C103.714 119.205 104.494 120.947 106.548 120.947C108.342 120.947 108.979 119.751 109.07 118.62H110.565C110.357 120.687 108.901 122.182 106.561 122.182Z" fill="#181818"/>
<path d="M112.261 122H110.753L114.211 112.705H115.758L119.242 122H117.682L116.915 119.764H113.028L112.261 122ZM114.965 114.031L113.457 118.555H116.512L114.991 114.031H114.965Z" fill="#181818"/>
<path d="M123.971 122.182C121.189 122.182 119.408 120.141 119.408 117.346C119.408 114.551 121.189 112.523 123.971 112.523C126.753 112.523 128.534 114.551 128.534 117.346C128.534 120.141 126.753 122.182 123.971 122.182ZM123.971 120.947C126.168 120.947 127.039 119.257 127.039 117.346C127.039 115.435 126.168 113.758 123.971 113.758C121.774 113.758 120.903 115.435 120.903 117.346C120.903 119.257 121.774 120.947 123.971 120.947Z" fill="#181818"/>
<path d="M87.2176 183.695C87.2176 182.909 87.2176 179.369 93.5006 179.763L107.244 189.201L111.171 186.055L106.066 176.616L103.71 169.931L102.139 156.559L92.3216 138.862L93.5006 133.356L97.0338 127.85L94.6777 124.31L88.3947 125.884L86.824 123.524L89.1801 121.951L75.8287 88.9154L76.6141 84.5893L67.1896 75.9372L59.7285 79.0834L58.1578 76.3305C56.1943 76.0683 52.0319 75.3866 51.0894 74.7574C50.147 74.1281 52.5293 71.6112 53.8382 70.4313C52.922 70.4313 50.8538 70.038 49.9114 68.4649C48.9689 66.8918 49.5187 64.4011 49.9114 63.3523L45.9845 55.0935L42.0576 54.3069V44.475L38.5234 44.8682V41.722L29.0989 49.1943L30.6697 52.3405L26.7428 55.0935L29.4916 57.8464L27.5282 60.5994L29.4916 62.1725L33.0258 60.5994L34.9892 63.3523L33.0258 64.1389L32.6331 66.1053L33.8112 68.4649L31.4551 70.4313L32.2404 73.5775L35.3819 72.791L36.56 75.9372L42.843 80.2633C45.33 82.2297 50.3826 86.2411 50.6967 86.5557C47.2411 88.7581 44.8064 96.1255 44.021 99.5339L41.2722 99.1406L40.0942 97.5675L36.56 99.5339L33.4185 98.3541L35.7746 94.4213V92.0616L37.3454 90.8818L35.7746 88.9154V86.1624H27.5282L16.5329 93.6347L14.9622 97.1742L16.1403 102.287L11.0353 107.006L20.8525 108.973L19.6744 112.119H14.9622L18.1037 115.658L16.1403 116.445L19.6744 121.164L18.1037 123.917L20.8525 131.783L23.6013 129.03L22.8159 125.884H24.3867L24.7794 129.03L27.1355 130.21L29.0989 125.097L35.3819 121.164L44.4137 123.131L40.8795 140.435H38.9161L38.1307 142.795L40.0942 144.368L32.2404 158.132L29.4916 159.312L30.6697 164.818V176.223L31.8477 178.19L38.1307 176.223L39.3088 177.796L46.7699 177.403L52.2675 172.684L64.8335 175.043L69.9384 172.29H74.258L81.3263 183.695C80.9336 185.531 79.5985 189.909 77.3995 192.741C75.2004 195.572 69.1537 197.329 66.4052 197.853C65.8816 201.262 67.112 207.764 76.2224 206.506C85.3327 205.247 87.8721 198.378 88.003 195.101C87.7412 191.561 87.2176 184.325 87.2176 183.695Z" fill="#F1F1F1"/>
<path fill-rule="evenodd" clip-rule="evenodd" d="M39.0234 40.6875V44.3095L42.5576 43.9162V53.8971L46.3284 54.6524L50.454 63.3291L50.3796 63.5277C50.1981 64.0124 49.9743 64.8504 49.9094 65.748C49.8438 66.6554 49.9459 67.5497 50.3403 68.208C50.7366 68.8695 51.3823 69.303 52.0677 69.5728C52.7542 69.843 53.4377 69.9313 53.8382 69.9313H55.1398L54.173 70.8027C53.5307 71.3817 52.6339 72.2815 52.0196 73.1008C51.7078 73.5165 51.498 73.8736 51.4128 74.1362C51.3749 74.253 51.3725 74.3191 51.3751 74.3468C51.5413 74.4546 51.9042 74.5959 52.4514 74.7506C52.9874 74.9022 53.6434 75.0517 54.3391 75.1914C55.7296 75.4705 57.2499 75.7048 58.224 75.8349L58.4694 75.8677L59.943 78.4504L67.2912 75.3517L77.1553 84.4074L76.3465 88.8623L89.7961 122.141L87.5168 123.662L88.6154 125.313L94.8984 123.74L97.6311 127.845L93.9705 133.549L92.8497 138.783L102.624 156.403L104.2 169.817L106.524 176.413L111.809 186.184L107.267 189.824L93.3324 180.254C90.3728 180.094 89.0205 180.853 88.3857 181.608C87.7242 182.395 87.7176 183.313 87.7176 183.695C87.7176 184.3 88.2383 191.504 88.5016 195.064L88.5037 195.092L88.5026 195.12C88.3646 198.575 85.7003 205.701 76.2908 207.001C71.606 207.648 68.8146 206.306 67.297 204.224C65.8117 202.187 65.6372 199.56 65.911 197.778L65.9646 197.429L66.3115 197.362C67.6587 197.105 69.8257 196.543 71.9214 195.699C74.0375 194.846 75.9912 193.739 77.0046 192.434C79.0618 189.785 80.359 185.693 80.7942 183.786L73.9796 172.79H70.0646L64.9151 175.567L52.4111 173.219L46.9663 177.893L39.0686 178.31L37.9425 176.806L31.6212 178.784L30.1697 176.361V164.871L28.9167 159.015L31.8892 157.739L39.4482 144.491L37.5464 142.967L38.5556 139.935H40.4713L43.8251 123.514L35.4746 121.696L29.5058 125.432L27.4046 130.904L24.3163 129.357L23.9452 126.384H23.4561L24.1549 129.183L20.6434 132.7L17.5566 123.867L19.0776 121.201L15.3495 116.223L17.2578 115.459L13.8499 111.619H19.3278L20.1782 109.347L9.97656 107.304L15.5879 102.117L14.4375 97.1239L16.1338 93.3014L27.3744 85.6625H36.2746V88.7402L38.0575 90.9722L36.2746 92.3114V94.5596L34.1555 98.0968L36.5191 98.9845L40.2326 96.9183L41.5482 98.675L43.6408 98.9744C44.069 97.2435 44.842 94.7537 45.9012 92.3882C46.9307 90.0892 48.2686 87.8186 49.886 86.5236C49.7411 86.4046 49.5682 86.2638 49.372 86.1048C48.8167 85.6549 48.0791 85.0634 47.2727 84.4197C45.6658 83.1368 43.7891 81.6488 42.5458 80.6657L36.1469 76.2598L35.0702 73.3845L31.8765 74.1841L30.894 70.2483L33.1872 68.3345L32.1093 66.1753L32.5885 63.7754L34.2128 63.1247L32.8559 61.2223L29.4167 62.7531L26.8466 60.694L28.839 57.9004L25.9685 55.0257L30.0299 52.1784L28.4703 49.0546L39.0234 40.6875ZM29.7275 49.334L31.3095 52.5026L27.5171 55.1613L30.1443 57.7924L28.2098 60.5048L29.5666 61.5918L33.1957 59.9765L35.7657 63.5799L33.4631 64.5023L33.157 66.0352L34.4352 68.5954L32.0161 70.6144L32.6044 72.971L35.6936 72.1975L36.9731 75.6146L43.1401 79.8608L43.1531 79.8711C44.397 80.8545 46.2825 82.3495 47.8966 83.6382C48.7036 84.2824 49.4434 84.8757 50.0015 85.3278C50.5425 85.7661 50.9478 86.0996 51.0505 86.2024L51.4903 86.6429L50.9655 86.9774C49.3721 87.9928 47.9491 90.2616 46.8139 92.7969C45.6906 95.3055 44.895 97.9678 44.5083 99.6462L44.4051 100.094L40.9963 99.6062L39.9557 98.2167L36.6009 100.083L32.6815 98.6114L35.2746 94.283V91.8119L36.6332 90.7914L35.2746 89.0906V86.6625H27.682L16.9321 93.968L15.4869 97.2246L16.6926 102.457L12.0941 106.708L21.5268 108.598L20.0211 112.619H16.0745L18.9495 115.858L16.931 116.667L20.2713 121.127L18.6508 123.967L21.0617 130.866L23.0477 128.877L22.1758 125.384H24.8282L25.2424 128.702L26.8664 129.516L28.6921 124.762L35.2893 120.632L45.0024 122.747L41.2878 140.935H39.2767L38.7151 142.622L40.7401 144.244L32.5917 158.526L30.0666 159.61L31.1697 164.765V176.085L32.0743 177.595L38.3189 175.64L39.549 177.283L46.5734 176.913L52.1239 172.148L64.7519 174.519L69.8122 171.79H74.5363L81.8574 183.603L81.8153 183.8C81.4169 185.662 80.062 190.128 77.7944 193.048C76.6087 194.574 74.4395 195.762 72.2953 196.626C70.3056 197.428 68.2601 197.982 66.8542 198.274C66.6793 199.873 66.9161 202.004 68.1051 203.635C69.3494 205.342 71.7284 206.622 76.1539 206.01C84.9388 204.797 87.365 198.221 87.5022 195.108C87.2411 191.578 86.7176 184.347 86.7176 183.695V183.687C86.7175 183.274 86.7174 182.039 87.6203 180.965C88.5465 179.863 90.3038 179.062 93.5318 179.264L93.6697 179.272L107.221 188.579L110.532 185.926L105.607 176.82L103.219 170.044L101.654 156.716L91.7934 138.94L93.0307 133.162L96.4365 127.855L94.4569 124.881L88.174 126.454L86.1311 123.385L88.564 121.761L75.3109 88.9685L76.0729 84.7712L67.088 76.5227L59.5141 79.7165L57.8458 76.7927C56.858 76.6559 55.447 76.4338 54.1423 76.1718C53.4342 76.0296 52.7502 75.8743 52.1793 75.7129C51.6286 75.5572 51.1206 75.3794 50.8118 75.1732C50.575 75.0152 50.4351 74.7846 50.3904 74.5236C50.3491 74.2823 50.3926 74.0403 50.4617 73.8276C50.599 73.4044 50.8899 72.9405 51.2195 72.5009C51.6528 71.9231 52.2038 71.3212 52.7195 70.8057C52.3959 70.7382 52.049 70.6401 51.7015 70.5033C50.8882 70.1832 50.0286 69.6335 49.4824 68.7219C48.9343 67.807 48.8401 66.6694 48.912 65.6759C48.9764 64.7852 49.1786 63.9509 49.371 63.3802L45.6405 55.5345L41.5576 54.7167V45.0337L38.0234 45.427V42.7565L29.7275 49.334Z" fill="#CECECE"/>
<path d="M55.5608 160.182C52.9218 160.182 51.2188 158.154 51.2188 155.359C51.2188 152.551 52.9347 150.523 55.5738 150.523C57.9008 150.523 59.3438 152.005 59.5648 153.864H58.0698C57.9008 152.954 57.3288 151.758 55.5477 151.758C53.4937 151.758 52.7138 153.5 52.7138 155.346C52.7138 157.205 53.4937 158.947 55.5477 158.947C57.3418 158.947 57.9788 157.751 58.0698 156.62H59.5648C59.3568 158.687 57.9008 160.182 55.5608 160.182Z" fill="#181818"/>
<path d="M63.8555 160.195C61.5285 160.195 60.2675 159.233 60.2675 157.413H61.7625C61.7885 158.479 62.5035 158.947 63.8035 158.947C64.9475 158.947 65.7275 158.323 65.7275 157.348C65.7275 156.438 65.0645 155.905 63.9985 155.905H62.8935V154.748H63.9465C64.9475 154.748 65.4415 154.137 65.4415 153.24C65.4415 152.382 64.7135 151.797 63.6865 151.797C62.5295 151.797 61.8665 152.395 61.8665 153.253H60.3715C60.3975 151.641 61.6195 150.562 63.6865 150.562C65.6105 150.562 66.9365 151.55 66.9365 153.149C66.9365 154.111 66.3905 154.917 65.4545 155.294V155.32C66.4815 155.606 67.2225 156.334 67.2225 157.4C67.2225 159.025 65.8315 160.195 63.8555 160.195Z" fill="#181818"/>
<path d="M69.0305 160H67.5225L70.9805 150.705H72.5275L76.0115 160H74.4515L73.6845 157.764H69.7975L69.0305 160ZM71.7345 152.031L70.2265 156.555H73.2815L71.7605 152.031H71.7345Z" fill="#181818"/>
<path d="M80.7407 160.182C77.9587 160.182 76.1777 158.141 76.1777 155.346C76.1777 152.551 77.9587 150.523 80.7407 150.523C83.5227 150.523 85.3037 152.551 85.3037 155.346C85.3037 158.141 83.5227 160.182 80.7407 160.182ZM80.7407 158.947C82.9377 158.947 83.8087 157.257 83.8087 155.346C83.8087 153.435 82.9377 151.758 80.7407 151.758C78.5437 151.758 77.6727 153.435 77.6727 155.346C77.6727 157.257 78.5437 158.947 80.7407 158.947Z" fill="#181818"/>
<path d="M102.92 282.018L77.0023 303.645L90.3536 326.849L94.2805 328.815L96.2439 329.602L103.705 340.22L113.915 346.119L125.695 350.445L127.659 357.524H120.983L119.02 360.277L122.161 361.457L120.198 364.997L122.554 366.57L125.303 365.39L128.837 368.536L126.088 372.862L129.23 375.615L122.554 383.874L119.412 381.908L96.6366 394.886L93.8878 393.313L87.2121 396.066V408.65L93.4951 403.538L97.422 407.864L100.171 405.897L102.527 407.864L109.595 409.044L110.381 412.19H114.308L121.376 419.662L118.627 422.022V423.988L115.093 424.775V427.921L113.129 430.281L115.878 432.64L121.376 431.854L124.517 427.921H130.8L131.586 424.775L125.303 420.449H129.23L131.586 416.909H134.727L140.618 415.336L139.047 427.921L141.796 432.64L146.901 435L149.649 433.427L148.471 426.348L151.22 427.921L153.576 423.988L149.649 421.629L141.796 412.19L143.759 402.751L148.079 388.593H145.723L148.079 377.581L155.147 372.469L153.184 368.929L148.471 360.67L139.047 356.738L142.974 340.22L141.403 338.254L142.974 334.714L136.298 330.781L139.047 325.669L143.366 321.343L139.047 318.983L143.759 315.444L148.471 309.151L139.832 308.364V305.612L143.366 302.465L141.403 296.566L142.974 295.386L156.325 299.319L155.54 284.768L160.252 278.475L155.54 269.43L161.037 263.924L160.252 258.811L157.11 259.991L154.754 258.025L155.54 253.699L144.937 234.035L141.119 230.763C138.261 232.855 133.549 234.425 131.193 234.428L106.061 263.14L113.129 269.04L102.92 282.018Z" fill="#F1F1F1"/>
<path fill-rule="evenodd" clip-rule="evenodd" d="M141.143 230.126L145.333 233.716L156.063 253.616L155.298 257.828L157.207 259.421L160.653 258.127L161.57 264.098L156.152 269.524L160.841 278.523L156.049 284.922L156.862 299.999L143.073 295.937L141.991 296.75L143.945 302.62L140.332 305.836V307.908L149.408 308.734L144.116 315.8L139.968 318.916L144.192 321.224L139.452 325.97L136.966 330.595L143.612 334.51L141.983 338.179L143.517 340.098L139.632 356.44L148.821 360.275L153.621 368.687L155.799 372.614L148.527 377.874L146.341 388.093H148.754L144.244 402.875L142.334 412.056L149.98 421.244L154.262 423.817L151.397 428.598L149.138 427.305L150.2 433.688L146.925 435.562L141.443 433.028L138.53 428.027L140.03 416.011L134.793 417.409H131.854L129.497 420.949H126.911L132.155 424.56L131.191 428.421H124.758L121.643 432.321L115.725 433.167L112.43 430.339L114.593 427.74V424.374L118.127 423.587V421.792L120.652 419.625L114.092 412.69H109.99L109.19 409.483L102.311 408.335L100.147 406.529L97.3509 408.529L93.4433 404.225L86.7121 409.702V395.731L93.9236 392.757L96.6372 394.31L119.425 381.325L122.444 383.215L128.539 375.674L125.436 372.956L128.187 368.627L125.208 365.975L122.502 367.136L119.537 365.157L121.443 361.721L118.235 360.517L120.726 357.024H127.001L125.282 350.826L113.702 346.574L103.359 340.598L95.9202 330.01L94.0752 329.271L89.9953 327.228L76.3594 303.53L102.559 281.668L112.436 269.112L105.348 263.196L130.966 233.928L131.192 233.928C132.287 233.927 133.992 233.555 135.8 232.908C137.6 232.265 139.445 231.369 140.823 230.36L141.143 230.126ZM131.424 234.924L106.775 263.085L113.823 268.967L103.28 282.368L77.6452 303.76L90.712 326.469L94.4858 328.359L96.5677 329.193L104.051 339.842L114.128 345.665L126.109 350.064L128.316 358.024H121.241L119.805 360.038L122.88 361.193L120.858 364.836L122.606 366.003L125.398 364.805L129.487 368.445L126.74 372.769L129.921 375.556L122.664 384.533L119.4 382.49L96.6361 395.461L93.852 393.868L87.7121 396.4V407.599L93.547 402.851L97.4931 407.198L100.194 405.266L102.743 407.393L110.001 408.605L110.771 411.69H114.523L122.1 419.7L119.127 422.252V424.389L115.593 425.176V428.102L113.829 430.222L116.032 432.113L121.109 431.387L124.277 427.421H130.41L131.017 424.99L123.695 419.949H128.962L131.318 416.409H134.662L141.206 414.662L139.564 427.815L142.148 432.253L146.876 434.438L149.099 433.166L147.805 425.391L151.043 427.244L152.891 424.16L149.319 422.014L141.257 412.324L143.274 402.627L147.403 389.093H145.104L147.63 377.289L154.495 372.324L152.749 369.177L152.746 369.172L148.122 361.066L138.462 357.035L142.431 340.342L140.823 338.328L142.336 334.919L135.63 330.968L138.641 325.367L142.541 321.462L138.126 319.05L143.402 315.087L147.535 309.568L139.332 308.821V305.387L142.788 302.311L140.815 296.383L142.874 294.836L155.788 298.64L155.031 284.613L159.663 278.427L154.927 269.336L160.505 263.75L159.851 259.496L157.014 260.562L154.21 258.222L155.016 253.782L144.541 234.354L141.09 231.397C139.658 232.382 137.863 233.232 136.136 233.85C134.395 234.473 132.672 234.877 131.424 234.924Z" fill="#CECECE"/>
<path d="M101.657 303.523C104.166 303.523 105.7 305.343 105.7 308.346C105.7 311.362 104.166 313.182 101.657 313.182C99.3168 313.182 97.8348 311.596 97.6398 308.918H96.1058V313H94.6758V303.705H96.1058V307.683H97.6528C97.8608 305.083 99.3558 303.523 101.657 303.523ZM101.657 311.947C103.23 311.947 104.218 310.582 104.218 308.346C104.218 306.11 103.23 304.758 101.657 304.758C100.097 304.758 99.1088 306.11 99.1088 308.346C99.1088 310.582 100.097 311.947 101.657 311.947Z" fill="#181818"/>
<path d="M110.133 313.195C107.806 313.195 106.545 312.233 106.545 310.413H108.04C108.066 311.479 108.781 311.947 110.081 311.947C111.225 311.947 112.005 311.323 112.005 310.348C112.005 309.438 111.342 308.905 110.276 308.905H109.171V307.748H110.224C111.225 307.748 111.719 307.137 111.719 306.24C111.719 305.382 110.991 304.797 109.964 304.797C108.807 304.797 108.144 305.395 108.144 306.253H106.649C106.675 304.641 107.897 303.562 109.964 303.562C111.888 303.562 113.214 304.55 113.214 306.149C113.214 307.111 112.668 307.917 111.732 308.294V308.32C112.759 308.606 113.5 309.334 113.5 310.4C113.5 312.025 112.109 313.195 110.133 313.195Z" fill="#181818"/>
<path d="M115.308 313H113.8L117.258 303.705H118.805L122.289 313H120.729L119.962 310.764H116.075L115.308 313ZM118.012 305.031L116.504 309.555H119.559L118.038 305.031H118.012Z" fill="#181818"/>
<path d="M127.018 313.182C124.236 313.182 122.455 311.141 122.455 308.346C122.455 305.551 124.236 303.523 127.018 303.523C129.8 303.523 131.581 305.551 131.581 308.346C131.581 311.141 129.8 313.182 127.018 313.182ZM127.018 311.947C129.215 311.947 130.086 310.257 130.086 308.346C130.086 306.435 129.215 304.758 127.018 304.758C124.821 304.758 123.95 306.435 123.95 308.346C123.95 310.257 124.821 311.947 127.018 311.947Z" fill="#181818"/>
<path d="M292.196 244.653L296.516 248.586L293.374 249.766L291.411 251.732L294.16 254.485L288.662 266.677L275.311 256.058L279.63 286.734L271.777 297.353V300.892L268.635 302.465L255.676 316.23L252.535 312.297L250.572 302.465C251.488 299.581 252.771 293.42 250.572 291.847C248.372 290.274 236.042 297.222 230.152 300.892L220.335 299.712L212.088 300.892L201.878 297.353L190.883 288.307L191.668 275.722L195.203 272.183C201.224 270.217 213.188 264.396 212.874 256.845C212.559 249.294 199.653 246.62 193.239 246.227L189.312 244.26L187.349 234.035L186.956 224.596L185.385 220.27L184.207 214.371H187.742L189.312 220.27L197.951 218.304V212.405L202.664 216.731L205.805 208.079L195.203 197.853L189.312 196.673L191.276 195.1L190.098 188.808L194.417 189.594L197.559 187.628L197.951 183.695L201.093 178.583L204.234 181.729L212.481 173.863L216.8 182.515L214.444 191.561L216.408 196.28C234.079 204.932 270.206 230.102 292.196 244.653Z" fill="#F1F1F1"/>
<path fill-rule="evenodd" clip-rule="evenodd" d="M212.626 173.034L217.332 182.46L214.971 191.524L216.797 195.914C225.667 200.281 239.06 208.705 252.957 217.837C260.982 223.11 269.197 228.635 276.816 233.758C282.47 237.561 287.796 241.142 292.472 244.236L292.504 244.258L297.457 248.767L293.652 250.196L292.118 251.732L294.757 254.376L288.854 267.468L275.981 257.23L280.154 286.867L272.277 297.518V301.201L268.938 302.873L255.645 316.992L252.068 312.514L250.056 302.437L250.095 302.314C250.545 300.896 251.085 298.674 251.241 296.626C251.32 295.601 251.3 294.645 251.138 293.865C250.975 293.078 250.684 292.542 250.281 292.253C250.155 292.164 249.874 292.088 249.346 292.132C248.839 292.174 248.193 292.319 247.431 292.557C245.909 293.034 244.004 293.857 241.965 294.852C237.892 296.842 233.353 299.487 230.416 301.317L230.267 301.41L220.34 300.217L212.039 301.404L201.63 297.796L190.368 288.531L191.181 275.503L194.933 271.745L195.047 271.708C198.024 270.735 202.471 268.809 206.123 266.201C209.808 263.57 212.52 260.367 212.374 256.866C212.23 253.411 209.197 250.966 205.155 249.315C201.153 247.68 196.381 246.92 193.209 246.726L193.107 246.719L188.868 244.597L186.851 234.093L186.46 224.694L184.903 220.405L183.598 213.871H188.126L189.671 219.676L197.451 217.905V211.267L202.45 215.855L205.224 208.213L194.961 198.315L188.163 196.953L190.729 194.898L189.473 188.186L194.316 189.068L197.086 187.334L197.465 183.531L200.999 177.781L204.243 181.03L212.626 173.034ZM212.336 174.693L204.226 182.428L201.187 179.385L198.438 183.859L198.032 187.922L194.518 190.121L190.723 189.43L191.822 195.303L190.461 196.394L195.444 197.392L206.386 207.944L202.878 217.606L198.451 213.542V218.703L188.953 220.865L187.357 214.871H184.817L185.868 220.135L187.453 224.498L187.847 233.977L189.757 243.924L193.372 245.734C196.614 245.943 201.443 246.718 205.533 248.389C209.626 250.061 213.203 252.728 213.373 256.824C213.542 260.874 210.428 264.356 206.704 267.015C202.995 269.664 198.515 271.615 195.472 272.621L192.156 275.942L191.398 288.083L202.127 296.91L212.137 300.38L220.329 299.208L230.037 300.375C232.994 298.538 237.481 295.929 241.526 293.954C243.581 292.95 245.539 292.102 247.132 291.603C247.927 291.354 248.652 291.186 249.263 291.135C249.853 291.086 250.438 291.137 250.862 291.44C251.559 291.938 251.931 292.762 252.118 293.663C252.306 294.571 252.32 295.63 252.238 296.703C252.079 298.79 251.545 301.023 251.087 302.493L253.001 312.08L255.707 315.468L268.332 302.058L271.277 300.583V297.188L279.107 286.601L274.641 254.887L288.471 265.886L293.562 254.594L290.704 251.732L293.097 249.336L295.575 248.406L291.888 245.049C287.201 241.947 281.884 238.371 276.243 234.578C268.634 229.461 260.438 223.95 252.408 218.672C238.414 209.477 224.99 201.039 216.188 196.729L216.019 196.646L213.918 191.598L216.269 182.571L212.336 174.693Z" fill="#CECECE"/>
<path d="M228.653 244.523C231.162 244.523 232.696 246.343 232.696 249.346C232.696 252.362 231.162 254.182 228.653 254.182C226.313 254.182 224.831 252.596 224.636 249.918H223.102V254H221.672V244.705H223.102V248.683H224.649C224.857 246.083 226.352 244.523 228.653 244.523ZM228.653 252.947C230.226 252.947 231.214 251.582 231.214 249.346C231.214 247.11 230.226 245.758 228.653 245.758C227.093 245.758 226.105 247.11 226.105 249.346C226.105 251.582 227.093 252.947 228.653 252.947Z" fill="#181818"/>
<path d="M238.273 254H234.126V244.705H238.039C239.95 244.705 241.068 245.563 241.068 247.045C241.068 248.189 240.392 248.722 239.625 248.982V249.008C240.6 249.177 241.432 249.892 241.432 251.283C241.432 253.064 240.197 254 238.273 254ZM235.556 248.566H238C239.17 248.566 239.573 248.085 239.573 247.253C239.573 246.434 239.079 245.94 238.104 245.94H235.556V248.566ZM235.556 252.765H238.169C239.547 252.765 239.937 252.102 239.937 251.231C239.937 250.256 239.339 249.697 238.364 249.697H235.556V252.765Z" fill="#181818"/>
<path d="M243.193 254H241.685L245.143 244.705H246.69L250.174 254H248.614L247.847 251.764H243.96L243.193 254ZM245.897 246.031L244.389 250.555H247.444L245.923 246.031H245.897Z" fill="#181818"/>
<path d="M254.903 254.182C252.121 254.182 250.34 252.141 250.34 249.346C250.34 246.551 252.121 244.523 254.903 244.523C257.685 244.523 259.466 246.551 259.466 249.346C259.466 252.141 257.685 254.182 254.903 254.182ZM254.903 252.947C257.1 252.947 257.971 251.257 257.971 249.346C257.971 247.435 257.1 245.758 254.903 245.758C252.706 245.758 251.835 247.435 251.835 249.346C251.835 251.257 252.706 252.947 254.903 252.947Z" fill="#181818"/>
<path d="M150.041 222.237L144.936 234.036L155.539 253.7L154.753 258.026L157.109 259.992L160.251 258.812L161.036 263.925L155.539 269.431L160.251 278.476L155.539 284.769L156.324 299.32L142.973 295.387L141.402 296.567L143.365 302.466L139.831 305.612V308.365L148.47 309.152L143.758 315.444L139.046 318.984L143.365 321.344L139.046 325.67L136.297 330.782L142.973 334.715L141.402 338.254L142.973 340.221L139.046 356.739L148.47 360.671L153.183 368.93L152.004 362.638L153.968 360.671C164.963 362.376 187.975 365.705 192.059 365.391C196.143 365.076 199.52 362.113 200.698 360.671L202.661 362.638L204.232 358.705L220.332 347.693L223.866 349.266V345.333C232.662 340.614 248.736 323.965 255.674 316.231L252.532 312.298L250.569 302.466C251.485 299.582 252.768 293.421 250.569 291.848C248.37 290.275 236.04 297.222 230.149 300.893L220.332 299.713L212.086 300.893L201.876 297.354L190.881 288.308L191.666 275.723L195.2 272.184C200.959 270.348 212.557 264.79 212.871 257.239C213.185 249.688 199.912 246.752 193.237 246.227L189.31 244.261L187.346 234.036L186.954 224.597L185.383 220.271L176.744 216.732V223.811L171.246 222.237L161.036 225.384L158.287 223.024L157.109 226.563L150.041 222.237Z" fill="#F1F1F1"/>
<path fill-rule="evenodd" clip-rule="evenodd" d="M176.244 215.986L185.777 219.892L187.45 224.499L187.844 233.978L189.754 243.924L193.373 245.737C196.743 246.011 201.731 246.884 205.87 248.638C210 250.388 213.542 253.135 213.371 257.26C213.203 261.284 210.047 264.684 206.364 267.264C202.704 269.829 198.383 271.682 195.468 272.623L192.153 275.943L191.395 288.084L202.124 296.91L212.135 300.381L220.326 299.209L230.034 300.376C232.991 298.539 237.478 295.93 241.524 293.955C243.579 292.951 245.537 292.103 247.13 291.604C247.925 291.355 248.649 291.187 249.26 291.136C249.851 291.087 250.436 291.138 250.86 291.441C251.556 291.939 251.929 292.763 252.115 293.664C252.303 294.571 252.318 295.631 252.236 296.703C252.076 298.791 251.542 301.024 251.084 302.494L252.999 312.081L256.329 316.25L256.046 316.565C252.57 320.44 246.809 326.545 240.813 332.274C234.948 337.878 228.813 343.168 224.366 345.63V350.036L220.384 348.264L204.64 359.032L202.844 363.528L200.722 361.404C200.053 362.13 199.022 363.054 197.737 363.875C196.19 364.864 194.246 365.724 192.097 365.889C191.023 365.972 188.771 365.816 185.88 365.523C182.969 365.228 179.361 364.787 175.54 364.284C168.012 363.292 159.648 362.056 154.142 361.204L152.544 362.805L153.674 368.838L152.748 369.178L148.12 361.067L138.461 357.036L142.43 340.342L140.822 338.329L142.335 334.92L135.629 330.969L138.64 325.368L142.54 321.462L138.125 319.05L143.401 315.087L147.534 309.569L139.331 308.822V305.388L142.787 302.312L140.814 296.383L142.873 294.837L155.787 298.64L155.03 284.614L159.662 278.428L154.926 269.337L160.504 263.751L159.85 259.497L157.013 260.563L154.209 258.223L155.015 253.783L144.381 234.06L149.811 221.51L156.834 225.809L158.048 222.16L161.153 224.825L171.241 221.716L176.244 223.147V215.986ZM177.244 217.477V224.474L171.251 222.759L160.92 225.943L158.527 223.888L157.385 227.318L150.271 222.965L145.491 234.012L156.062 253.617L155.297 257.828L157.206 259.422L160.652 258.128L161.569 264.099L156.151 269.525L160.84 278.524L156.048 284.923L156.861 299.999L143.072 295.938L141.99 296.751L143.944 302.621L140.331 305.837V307.909L149.407 308.735L144.115 315.801L139.967 318.917L144.191 321.225L139.451 325.971L136.965 330.595L143.61 334.51L141.982 338.18L143.516 340.099L139.631 356.441L148.82 360.276L152.144 366.102L151.465 362.471L153.794 360.138L154.044 360.177C159.54 361.029 168.037 362.287 175.67 363.292C179.487 363.795 183.084 364.234 185.981 364.528C188.897 364.824 191.053 364.967 192.02 364.892C193.955 364.743 195.741 363.964 197.199 363.033C198.656 362.101 199.755 361.035 200.31 360.355L200.661 359.926L202.478 361.747L203.824 358.378L220.28 347.123L223.366 348.496V345.034L223.63 344.893C227.96 342.57 234.133 337.274 240.122 331.551C245.936 325.996 251.532 320.082 255.019 316.212L252.066 312.515L250.053 302.438L250.092 302.315C250.543 300.897 251.082 298.675 251.239 296.627C251.317 295.602 251.297 294.646 251.136 293.866C250.973 293.079 250.681 292.543 250.278 292.254C250.152 292.164 249.871 292.088 249.343 292.132C248.836 292.175 248.191 292.32 247.428 292.558C245.907 293.035 244.002 293.858 241.963 294.853C237.89 296.842 233.35 299.488 230.414 301.317L230.264 301.41L220.338 300.218L212.036 301.405L201.627 297.797L190.366 288.532L191.179 275.504L194.932 271.744L195.048 271.707C197.893 270.801 202.183 268.972 205.791 266.445C209.425 263.9 212.225 260.745 212.371 257.218C212.514 253.792 209.577 251.295 205.48 249.559C201.432 247.843 196.502 246.985 193.197 246.726L193.1 246.718L188.865 244.598L186.848 234.094L186.457 224.695L184.988 220.65L177.244 217.477Z" fill="#CECECE"/>
<path d="M178.653 321.523C181.162 321.523 182.696 323.343 182.696 326.346C182.696 329.362 181.162 331.182 178.653 331.182C176.313 331.182 174.831 329.596 174.636 326.918H173.102V331H171.672V321.705H173.102V325.683H174.649C174.857 323.083 176.352 321.523 178.653 321.523ZM178.653 329.947C180.226 329.947 181.214 328.582 181.214 326.346C181.214 324.11 180.226 322.758 178.653 322.758C177.093 322.758 176.105 324.11 176.105 326.346C176.105 328.582 177.093 329.947 178.653 329.947Z" fill="#181818"/>
<path d="M184.458 331H182.95L186.408 321.705H187.955L191.439 331H189.879L189.112 328.764H185.225L184.458 331ZM187.162 323.031L185.654 327.555H188.709L187.188 323.031H187.162Z" fill="#181818"/>
<path d="M196.169 331.182C193.387 331.182 191.606 329.141 191.606 326.346C191.606 323.551 193.387 321.523 196.169 321.523C198.951 321.523 200.732 323.551 200.732 326.346C200.732 329.141 198.951 331.182 196.169 331.182ZM196.169 329.947C198.366 329.947 199.237 328.257 199.237 326.346C199.237 324.435 198.366 322.758 196.169 322.758C193.972 322.758 193.101 324.435 193.101 326.346C193.101 328.257 193.972 329.947 196.169 329.947Z" fill="#181818"/>
</svg>
