<svg width="154" height="26" viewBox="0 0 154 26" fill="none" xmlns="http://www.w3.org/2000/svg">
<g id="etalon-logo" clip-path="url(#clip0_373_3128)">
<path id="Vector" fill-rule="evenodd" clip-rule="evenodd" d="M81.6415 0.0218744L71.5838 25.9782H76.9279L84.4017 6.69117L91.8753 25.9782H97.2195L87.162 0.0218744H81.6415ZM111.68 20.8952C107.305 20.8952 103.759 17.3419 103.759 12.9583C103.759 8.57477 107.305 5.02124 111.68 5.02124C116.055 5.02124 119.602 8.57477 119.602 12.9583C119.602 17.3419 116.055 20.8952 111.68 20.8952ZM111.68 0C104.537 0 98.7469 5.80151 98.7469 12.9583C98.7469 20.1149 104.537 25.9164 111.68 25.9164C118.824 25.9164 124.614 20.1149 124.614 12.9583C124.614 5.80151 118.824 0 111.68 0ZM147.394 0.0218744L147.385 11.6836V25.9782H152.45L152.453 0.0218744H147.394ZM134.674 0.0218744H129.615V25.9782H134.674V15.5191H145.353L147.304 10.4808H134.674V0.0218744ZM17.1185 10.4811H6.64356L6.69829 15.5191H15.1665L17.1185 10.4811ZM9.88797 0.0416513C6.27809 0.0416513 3.01393 1.52402 0.667969 3.91403L4.21205 7.46487C5.65092 5.98341 7.66192 5.06318 9.88797 5.06318C14.2632 5.06318 17.81 8.61643 17.81 13C17.81 17.3833 14.2632 20.9368 9.88797 20.9368C7.66192 20.9368 5.65092 20.0162 4.21205 18.5351L0.667969 22.086C3.01393 24.4757 6.27809 25.9584 9.88797 25.9584C17.0312 25.9584 22.8219 20.1565 22.8219 13C22.8219 5.84317 17.0312 0.0416513 9.88797 0.0416513ZM43.4469 0.0437489H25.3225V5.05449H31.9022V26H36.9034V5.05449H43.4469V0.0437489ZM53.5046 0.0218744L43.4469 25.9782H48.7915L50.7606 20.8963H57.8267L59.7791 15.8584H52.7128L56.2651 6.69117L63.7386 25.9782H69.0831L59.0251 0.0218744H53.5046Z" fill="white"/>
</g>
<defs>
<clipPath id="clip0_373_3128">
<rect width="153" height="26" fill="white" transform="translate(0.667969)"/>
</clipPath>
</defs>
</svg>
