<svg width="212" height="26" viewBox="0 0 212 26" fill="none" xmlns="http://www.w3.org/2000/svg">
<g id="&#208;&#154;&#208;&#178;&#208;&#176;&#209;&#128;&#209;&#130;&#208;&#184;&#209;&#128;&#209;&#139; &#208;&#178; &#208;&#189;&#208;&#190;&#208;&#178;&#208;&#190;&#209;&#129;&#209;&#130;&#209;&#128;&#208;&#190;&#208;&#184;&#204;&#134;&#208;&#186;&#208;&#181; - &#208;&#186;&#209;&#131;&#208;&#191;&#208;&#184;&#209;&#130;&#209;&#140; &#208;&#178; &#208;&#156;&#208;&#190;&#209;&#129;&#208;&#186;&#208;&#178;&#208;&#181;, &#208;&#189;&#208;&#181;&#208;&#180;&#208;&#178;&#208;&#184;&#208;&#182;&#208;&#184;&#208;&#188;&#208;&#190;&#209;&#129;&#209;&#130;&#209;&#140; &#208;&#190;&#209;&#130; &#208;&#183;&#208;&#176;&#209;&#129;&#209;&#130;&#209;&#128;&#208;&#190;&#208;&#184;&#204;&#134; 1">
<path id="Vector" d="M8.9189 18.556C5.20135 18.556 2.10339 15.5819 2.10339 12.1122C2.10339 8.51861 5.20135 5.66849 8.9189 5.66849H44.6074V10.6252H8.9189C8.05147 10.6252 7.30796 11.2448 7.30796 12.1122C7.30796 12.8557 8.05147 13.5993 8.9189 13.5993H44.6074V18.556H8.9189ZM60.9646 5.66849H96.653C100.371 5.66849 103.469 8.27077 103.469 11.8644C103.469 15.458 100.371 18.3081 96.653 18.3081H69.391V13.4753H96.653C97.1487 13.4753 97.5204 13.2275 97.8922 12.9797C98.0161 12.8557 98.0161 12.7318 98.14 12.6079C98.264 12.3601 98.264 12.2362 98.264 11.9883C98.264 11.2448 97.5204 10.5013 96.653 10.5013H66.1691V18.4321H60.9646V5.66849ZM46.3422 10.5013H50.1837V18.4321H55.2643V10.5013H59.1058V5.66849H46.3422V10.5013ZM167.782 12.1122C167.782 8.51861 170.88 5.66849 174.598 5.66849H210.286V18.556H205.081V10.6252H174.598C173.73 10.6252 172.987 11.2448 172.987 12.1122C172.987 12.8557 173.73 13.5993 174.598 13.5993H201.86V18.556H174.598C170.88 18.556 167.782 15.7059 167.782 12.1122ZM105.327 12.1122C105.327 15.5819 108.425 18.556 112.143 18.556H139.405V13.5993H112.143C111.771 13.5993 111.275 13.4753 111.028 13.2275C110.904 13.2275 110.904 13.1036 110.78 13.1036C110.78 12.9797 110.656 12.9797 110.656 12.8557C110.532 12.6079 110.532 12.3601 110.532 12.1122C110.532 11.8644 110.656 11.4926 110.78 11.2448C111.028 10.8731 111.523 10.6252 112.143 10.6252H142.627V18.556H147.831V5.66849H112.143C108.301 5.66849 105.327 8.51861 105.327 12.1122ZM155.514 9.63387H161.091V5.66849H166.295V18.4321H161.091V14.4667H155.514V18.4321H150.434V5.66849H155.514V9.63387Z" fill="white"/>
</g>
</svg>
