<svg width="56" height="32" viewBox="0 0 56 32" fill="none" xmlns="http://www.w3.org/2000/svg">
<path d="M42.3998 18.7014C42.1679 18.9578 41.8849 19.1628 41.5689 19.3031C41.253 19.4434 40.9111 19.5159 40.5654 19.516C39.9143 19.5045 39.2937 19.2378 38.8373 18.7733C38.3809 18.3088 38.1251 17.6836 38.1251 17.0324C38.1251 16.3812 38.3809 15.756 38.8373 15.2915C39.2937 14.8269 39.9143 14.5602 40.5654 14.5488C41.1007 14.5488 41.596 14.7208 42.0025 15.0093L43.3564 13.1054C42.5419 12.5239 41.5661 12.2113 40.5654 12.2113C39.2866 12.2113 38.0603 12.7193 37.1561 13.6235C36.2519 14.5277 35.7439 15.754 35.7439 17.0328C35.7439 18.3115 36.2519 19.5378 37.1561 20.442C38.0603 21.3462 39.2866 21.8542 40.5654 21.8542C41.748 21.8533 42.8889 21.4166 43.7699 20.6276L42.3998 18.7014ZM31.4371 12.4975L30.0886 14.3968C30.7661 14.4644 31.3917 14.7902 31.8355 15.3065C32.2793 15.8229 32.5074 16.4902 32.4725 17.1702C32.4376 17.8502 32.1423 18.4907 31.648 18.9589C31.1536 19.4271 30.498 19.6871 29.8171 19.6849V10.1177H27.5714V12.2113C26.9383 12.2113 26.3113 12.336 25.7263 12.5783C25.1414 12.8206 24.6099 13.1758 24.1622 13.6235C23.7145 14.0712 23.3593 14.6027 23.117 15.1877C22.8747 15.7726 22.75 16.3996 22.75 17.0328C22.75 17.6659 22.8747 18.2929 23.117 18.8778C23.3593 19.4628 23.7145 19.9943 24.1622 20.442C24.6099 20.8897 25.1414 21.2449 25.7263 21.4872C26.3113 21.7295 26.9383 21.8542 27.5714 21.8542V24.0242H29.8171V21.8534C30.9534 21.8553 32.0539 21.4554 32.9239 20.7243C33.7939 19.9933 34.3775 18.9782 34.5713 17.8584C34.7652 16.7387 34.557 15.5865 33.9834 14.6055C33.4099 13.6245 32.5079 12.8778 31.4371 12.4975ZM24.9185 17.0328C24.9185 16.6846 24.9871 16.3399 25.1203 16.0182C25.2536 15.6966 25.4489 15.4044 25.6951 15.1582C25.9413 14.9121 26.2336 14.7168 26.5553 14.5837C26.877 14.4505 27.2217 14.382 27.5699 14.3821V19.6834C27.2218 19.6835 26.877 19.615 26.5554 19.4818C26.2338 19.3487 25.9415 19.1534 25.6954 18.9073C25.4492 18.6611 25.254 18.3689 25.1208 18.0472C24.9876 17.7256 24.9192 17.3809 24.9193 17.0328H24.9185ZM47.6085 21.6606H45.1546V12.4034H47.6077L47.6085 21.6606ZM47.9194 17.032L51.2389 12.4034H53.7923L50.4458 16.9656L53.9682 21.6606H51.3793L47.9194 17.032Z" fill="white"/>
<path d="M9.50858 13.5689H19.1723C18.693 12.4939 17.997 11.5294 17.1278 10.7357C16.2587 9.94205 15.235 9.33636 14.121 8.95654L9.50781 13.5689H9.50858Z" fill="white"/>
<path d="M19.6493 14.926H7.86961C7.73508 14.9262 7.60352 14.8865 7.49162 14.8118C7.37973 14.7371 7.29254 14.6309 7.24113 14.5066C7.18971 14.3823 7.1764 14.2455 7.20286 14.1136C7.22933 13.9817 7.29439 13.8606 7.38978 13.7658L12.5715 8.58486C12.1758 8.52909 11.7768 8.50074 11.3773 8.5C6.66386 8.5 2.84375 12.3201 2.84375 17.0335C2.84375 17.6638 2.91472 18.2779 3.04432 18.8711H14.9498C15.0843 18.8709 15.2159 18.9106 15.3278 18.9853C15.4397 19.06 15.5268 19.1662 15.5783 19.2905C15.6297 19.4148 15.643 19.5516 15.6165 19.6835C15.5901 19.8154 15.525 19.9365 15.4296 20.0313L10.0049 25.456C10.4524 25.5285 10.909 25.5679 11.3758 25.5679C16.0892 25.5679 19.9093 21.7477 19.9093 17.0351C19.9124 16.3061 19.8206 15.6002 19.6493 14.926Z" fill="white"/>
<path d="M13.3137 20.231H3.46875C3.91949 21.3423 4.59881 22.3465 5.46263 23.1785C6.32646 24.0104 7.35551 24.6515 8.48304 25.0601L13.3137 20.231Z" fill="white"/>
</svg>
