<svg width="195" height="36" viewBox="0 0 195 36" fill="none" xmlns="http://www.w3.org/2000/svg">
<path fill-rule="evenodd" clip-rule="evenodd" d="M30.2217 35.0872L19.2718 10.1577L19.2497 10.1108C18.9162 9.3516 18.3693 8.70599 17.6756 8.25279C16.982 7.79959 16.1716 7.5584 15.3434 7.55866H13.2511C13.2087 7.55853 13.1672 7.57085 13.1317 7.5941C13.0962 7.61735 13.0683 7.65051 13.0514 7.68947L1.01477 35.0872C1.00496 35.1063 0.999898 35.1275 1 35.1489C1 35.1902 1.01634 35.2297 1.04546 35.2589C1.07458 35.288 1.11409 35.3044 1.15527 35.3044H6.17054C6.21238 35.3049 6.25341 35.293 6.2885 35.2702C6.32358 35.2473 6.35114 35.2146 6.36768 35.1761L9.10575 28.9783H19.4049C19.4049 27.8451 18.9555 26.7584 18.1554 25.9571C17.3554 25.1558 16.2703 24.7057 15.1389 24.7057H10.9739L15.6071 13.6651L20.6717 25.6831L24.8466 35.1884C24.8638 35.2269 24.8919 35.2596 24.9273 35.2824C24.9628 35.3051 25.0041 35.3171 25.0462 35.3168H30.0812C30.1016 35.3168 30.1218 35.3127 30.1406 35.3049C30.1595 35.2971 30.1766 35.2857 30.191 35.2712C30.2054 35.2568 30.2169 35.2396 30.2247 35.2208C30.2325 35.2019 30.2365 35.1817 30.2365 35.1613C30.2366 35.1398 30.2315 35.1186 30.2217 35.0996" fill="white"/>
<path fill-rule="evenodd" clip-rule="evenodd" d="M71.0091 24.2563C72.8279 23.4665 74.1218 22.104 74.1218 19.4012C74.1218 16.1505 71.3591 14.1068 67.1497 14.1068H56.5153C56.4866 14.1068 56.4583 14.1125 56.4318 14.1236C56.4053 14.1346 56.3813 14.1509 56.3611 14.1713C56.3409 14.1917 56.325 14.216 56.3143 14.2426C56.3035 14.2692 56.2982 14.2978 56.2985 14.3265V35.0895C56.2981 35.1182 56.3035 35.1465 56.3143 35.1731C56.3251 35.1996 56.3411 35.2236 56.3613 35.2439C56.3815 35.2641 56.4055 35.2801 56.432 35.2909C56.4584 35.3017 56.4868 35.3071 56.5153 35.3067H67.2828C72.4336 35.3067 75.0879 33.1322 75.0879 29.573C75.0879 26.8283 73.5747 24.982 71.0091 24.2563ZM61.1511 17.9524H66.3463C68.2094 17.9524 69.1977 18.9397 69.1977 20.238C69.1977 21.7979 68.1897 22.7063 66.3463 22.7063H61.1511V17.9524ZM66.9599 31.4637H61.1511V26.1692H66.9599C69.0202 26.1692 70.1638 27.1121 70.1638 28.8498C70.1638 30.2986 69.0671 31.4637 66.9599 31.4637Z" fill="white"/>
<path fill-rule="evenodd" clip-rule="evenodd" d="M139.522 13.6659C133.142 13.6659 128.21 18.4346 128.21 24.7385C128.21 31.0425 133.139 35.8334 139.522 35.8334C145.905 35.8334 150.834 31.0672 150.834 24.7385C150.834 18.4099 145.905 13.6659 139.522 13.6659ZM139.522 31.5707C135.641 31.5707 133.077 28.6705 133.077 24.7385C133.077 20.8066 135.648 17.9113 139.522 17.9113C143.396 17.9113 145.969 20.8337 145.969 24.7435C145.969 28.6532 143.404 31.5756 139.522 31.5756" fill="white"/>
<path fill-rule="evenodd" clip-rule="evenodd" d="M157.961 14.1068H155.496C155.438 14.1075 155.383 14.1309 155.343 14.172C155.302 14.2131 155.279 14.2687 155.279 14.3265V35.0896C155.279 35.1472 155.302 35.2024 155.343 35.2431C155.384 35.2839 155.439 35.3067 155.496 35.3067H159.932C159.99 35.3067 160.045 35.2839 160.086 35.2431C160.126 35.2024 160.149 35.1472 160.149 35.0896V16.2863C160.149 15.7083 159.92 15.1539 159.512 14.7452C159.104 14.3364 158.55 14.1068 157.973 14.1068" fill="white"/>
<path fill-rule="evenodd" clip-rule="evenodd" d="M172.804 14.1068H170.34C170.311 14.1068 170.282 14.1125 170.256 14.1236C170.229 14.1346 170.205 14.1509 170.185 14.1713C170.165 14.1917 170.149 14.216 170.138 14.2426C170.128 14.2692 170.122 14.2978 170.123 14.3265V22.7063H162.024C162.025 23.7816 162.452 24.8127 163.211 25.5731C163.97 26.3335 165 26.761 166.073 26.7616H170.123V35.0895C170.122 35.1182 170.128 35.1465 170.138 35.1731C170.149 35.1996 170.165 35.2236 170.185 35.2439C170.206 35.2641 170.23 35.2801 170.256 35.2909C170.283 35.3017 170.311 35.3071 170.34 35.3067H174.763C174.792 35.3071 174.82 35.3017 174.847 35.2909C174.874 35.2802 174.898 35.2642 174.918 35.244C174.939 35.2238 174.955 35.1997 174.966 35.1732C174.977 35.1467 174.983 35.1183 174.983 35.0895V16.2863C174.982 15.7085 174.753 15.1545 174.345 14.7459C173.937 14.3373 173.383 14.1075 172.807 14.1068" fill="white"/>
<path fill-rule="evenodd" clip-rule="evenodd" d="M121.614 14.1068H110.844C110.401 14.1208 109.972 14.2702 109.616 14.5349C109.26 14.7996 108.994 15.167 108.852 15.5878V15.6174C108.854 15.628 108.854 15.6388 108.852 15.6495L102.691 35.1019C102.689 35.1174 102.689 35.1332 102.691 35.1488C102.691 35.19 102.707 35.2296 102.737 35.2587C102.766 35.2879 102.805 35.3043 102.846 35.3043H106.127C106.589 35.3047 107.04 35.1572 107.413 34.8833C107.786 34.6094 108.063 34.2233 108.202 33.7814L113.094 18.2782H118.969V35.0871C118.969 35.1157 118.974 35.1441 118.985 35.1706C118.996 35.1971 119.012 35.2212 119.032 35.2414C119.052 35.2616 119.076 35.2776 119.103 35.2884C119.129 35.2992 119.157 35.3046 119.186 35.3043H123.597C123.655 35.3043 123.71 35.2814 123.751 35.2407C123.791 35.1999 123.814 35.1447 123.814 35.0871V16.2888C123.814 15.7105 123.585 15.1559 123.177 14.7468C122.769 14.3376 122.216 14.1075 121.638 14.1068" fill="white"/>
<path fill-rule="evenodd" clip-rule="evenodd" d="M98.9964 14.1068H94.8067C94.7551 14.1067 94.7042 14.119 94.6584 14.1426C94.6125 14.1662 94.5729 14.2005 94.543 14.2426L84.5667 27.9908V16.2863C84.566 15.7085 84.3365 15.1545 83.9286 14.7459C83.5206 14.3373 82.9675 14.1075 82.3905 14.1068H79.926C79.8973 14.1068 79.8689 14.1125 79.8424 14.1236C79.8159 14.1346 79.7919 14.1509 79.7718 14.1713C79.7516 14.1917 79.7357 14.216 79.7249 14.2426C79.7142 14.2692 79.7088 14.2978 79.7091 14.3265V35.0895C79.7088 35.1182 79.7142 35.1465 79.7249 35.1731C79.7357 35.1996 79.7517 35.2236 79.7719 35.2439C79.7921 35.2641 79.8161 35.2801 79.8426 35.2909C79.8691 35.3017 79.8974 35.3071 79.926 35.3067H84.1157C84.1673 35.3069 84.2181 35.2946 84.264 35.271C84.3099 35.2474 84.3494 35.2131 84.3794 35.171L94.3458 21.4228V35.0895C94.3455 35.1182 94.3509 35.1465 94.3617 35.1731C94.3725 35.1996 94.3884 35.2236 94.4086 35.2439C94.4288 35.2641 94.4529 35.2801 94.4793 35.2909C94.5058 35.3017 94.5342 35.3071 94.5627 35.3067H98.9988C99.0274 35.3071 99.0557 35.3017 99.0822 35.2909C99.1087 35.2801 99.1327 35.2641 99.1529 35.2439C99.1731 35.2236 99.1891 35.1996 99.1999 35.1731C99.2106 35.1465 99.216 35.1182 99.2157 35.0895V14.3265C99.216 14.2978 99.2106 14.2692 99.1999 14.2426C99.1891 14.216 99.1732 14.1917 99.1531 14.1713C99.1329 14.1509 99.1089 14.1346 99.0824 14.1236C99.0559 14.1125 99.0275 14.1068 98.9988 14.1068" fill="white"/>
<path fill-rule="evenodd" clip-rule="evenodd" d="M45.569 24.1749L52.0433 14.3487C52.0599 14.3239 52.0685 14.2946 52.068 14.2648C52.068 14.2233 52.0517 14.1835 52.0226 14.154C51.9936 14.1244 51.9541 14.1075 51.9127 14.1068H47.0132C46.9771 14.1069 46.9415 14.116 46.9097 14.1332C46.8778 14.1505 46.8508 14.1753 46.8309 14.2055L41.2907 22.5977H38.04V16.2863C38.0393 15.708 37.8095 15.1537 37.401 14.745C36.9925 14.3364 36.4387 14.1068 35.8613 14.1068H33.4116C33.3534 14.1068 33.2977 14.13 33.2565 14.1712C33.2154 14.2124 33.1923 14.2682 33.1923 14.3265V35.0895C33.1923 35.1183 33.198 35.1467 33.209 35.1732C33.2201 35.1998 33.2363 35.2238 33.2567 35.244C33.2771 35.2642 33.3013 35.2802 33.3279 35.2909C33.3544 35.3017 33.3829 35.3071 33.4116 35.3067H37.8206C37.8493 35.3071 37.8778 35.3017 37.9044 35.2909C37.931 35.2802 37.9552 35.2642 37.9756 35.244C37.996 35.2238 38.0122 35.1998 38.0232 35.1732C38.0343 35.1467 38.04 35.1183 38.04 35.0895V26.4753H41.7688L47.4371 35.208C47.4569 35.2384 47.4839 35.2634 47.5158 35.2806C47.5476 35.2979 47.5833 35.3068 47.6195 35.3067H52.477C52.5182 35.3067 52.5577 35.2904 52.5869 35.2612C52.616 35.232 52.6323 35.1925 52.6323 35.1513C52.6321 35.1208 52.6236 35.0909 52.6077 35.0649L45.569 24.1749Z" fill="white"/>
<path d="M181.409 7.41749C183.108 7.41749 184.738 6.74136 185.94 5.53785C187.142 4.33434 187.817 2.70202 187.817 1H188.093C188.093 2.70202 188.768 4.33434 189.969 5.53785C191.171 6.74136 192.801 7.41749 194.5 7.41749V7.68406C192.801 7.68406 191.171 8.36019 189.969 9.5637C188.768 10.7672 188.093 12.3995 188.093 14.1016H187.827C187.827 12.3995 187.151 10.7672 185.95 9.5637C184.748 8.36019 183.118 7.68406 181.419 7.68406L181.409 7.41749Z" fill="white"/>
</svg>
