<svg width="153" height="28" viewBox="0 0 153 28" fill="none" xmlns="http://www.w3.org/2000/svg">
<g id="&#208;&#148;&#208;&#181;&#208;&#178;&#208;&#181;&#208;&#187;&#208;&#190;&#208;&#191;&#208;&#181;&#209;&#128; &#208;&#191;&#209;&#128;&#208;&#181;&#208;&#188;&#208;&#184;&#208;&#176;&#208;&#187;&#209;&#140;&#208;&#189;&#208;&#190;&#208;&#184;&#204;&#134; &#208;&#182;&#208;&#184;&#208;&#187;&#208;&#190;&#208;&#184;&#204;&#134; &#208;&#184; &#208;&#186;&#208;&#190;&#208;&#188;&#208;&#188;&#208;&#181;&#209;&#128;&#209;&#135;&#208;&#181;&#209;&#129;&#208;&#186;&#208;&#190;&#208;&#184;&#204;&#134; &#208;&#189;&#208;&#181;&#208;&#180;&#208;&#178;&#208;&#184;&#208;&#182;&#208;&#184;&#208;&#188;&#208;&#190;&#209;&#129;&#209;&#130;&#208;&#184; &#208;&#178; &#208;&#156;&#208;&#190;&#209;&#129;&#208;&#186;&#208;&#178;&#208;&#181; 1">
<g id="Clip path group">
<mask id="mask0_373_3131" style="mask-type:luminance" maskUnits="userSpaceOnUse" x="3" y="1" width="147" height="27">
<g id="logotype-white_svg__a">
<path id="Vector" d="M3 1H149.704V27.9083H3V1Z" fill="white"/>
</g>
</mask>
<g mask="url(#mask0_373_3131)">
<g id="Group">
<path id="Vector_2" d="M16.2297 27.916C14.8915 27.9328 13.5533 27.7982 12.2449 27.5123C11.1809 27.28 10.1442 26.9333 9.15222 26.478C7.59262 25.7548 6.22573 24.662 5.16577 23.2911C4.09454 21.9324 3.34243 20.3424 2.96686 18.6427H12.2846C12.4283 19.1455 12.6662 19.6148 12.9867 20.0251C13.3171 20.4069 13.7169 20.7197 14.1663 20.9467C14.7957 21.2562 15.4912 21.4008 16.1901 21.3672C16.9467 21.4344 17.705 21.2763 18.3741 20.9131C18.548 20.8088 18.6946 20.6635 18.8016 20.4893C18.9086 20.3151 18.9728 20.1172 18.9887 19.9124C18.9812 19.698 18.9163 19.4897 18.801 19.3101C18.6857 19.1305 18.5244 18.9863 18.3344 18.8933C17.7896 18.5789 17.2086 18.3343 16.6047 18.1651C15.8795 17.9464 15.0666 17.7278 14.1431 17.5092C13.2054 17.2906 12.2743 17.0432 11.3511 16.7675C10.3983 16.4892 9.46407 16.1488 8.55417 15.7484C7.66804 15.3678 6.84105 14.8579 6.09919 14.2348C5.37928 13.6394 4.78717 12.8998 4.35956 12.0619C3.90319 11.1118 3.67931 10.0634 3.70699 9.00616C3.72351 7.9786 3.9994 6.97122 4.50494 6.07989C5.06469 5.06363 5.84088 4.18787 6.77654 3.51687C7.91094 2.70122 9.17198 2.08552 10.5069 1.69552C12.1831 1.2063 13.9212 0.972244 15.6647 1.00095C16.8856 0.987495 18.1048 1.10858 19.2993 1.36421C20.2877 1.57629 21.2501 1.8989 22.1689 2.32618C22.9437 2.69281 23.669 3.15866 24.3298 3.7086C24.897 4.19631 25.4125 4.73559 25.8762 5.32646C26.8658 6.58274 27.5778 8.04251 27.9644 9.60319H18.6533C18.5814 9.23255 18.4163 8.88722 18.1742 8.60086C17.9404 8.30464 17.6476 8.06219 17.3151 7.88947C16.863 7.66771 16.3644 7.56204 15.8629 7.58171C15.2136 7.52616 14.5621 7.65788 13.9829 7.96179C13.8257 8.05088 13.6934 8.17935 13.5985 8.33504C13.5037 8.49072 13.4495 8.66846 13.441 8.85144C13.441 9.2887 13.8144 9.65869 14.5727 9.85377C15.3293 10.0472 16.2776 10.323 17.4109 10.5652C18.541 10.8073 19.7635 11.0988 21.0785 11.4397C22.3579 11.7656 23.5918 12.2544 24.7511 12.8944C25.8478 13.4967 26.8111 14.3222 27.5811 15.3195C28.3741 16.4463 28.7723 17.8085 28.7144 19.1926C28.7148 20.3394 28.441 21.469 27.9165 22.4839C27.341 23.5863 26.5221 24.5379 25.5243 25.2638C24.3456 26.1435 23.0234 26.8039 21.6188 27.2147C19.8626 27.7242 18.042 27.9715 16.2148 27.9412M36.4924 9.57292H28.6616V1.73084H53.636V9.57292H45.8101V27.1827H36.4924V9.57292ZM85.5821 1.73084H96.0166L102.983 13.7286V1.73084H112.223V27.1827H101.789L94.837 15.185V27.1827H85.5821V1.73084ZM115.437 1.73084H137.333V8.99944H124.754V11.3674H137.333V17.5445H124.754V19.9158H137.333V27.1827H115.437V1.73084ZM68.6533 19.8721C67.6119 19.8308 66.6051 19.48 65.7572 18.863C64.913 18.2463 64.2654 17.3908 63.8947 16.4027C63.524 15.4145 63.4467 14.3373 63.6723 13.3048C63.8998 12.2717 64.4216 11.3298 65.1724 10.5971C65.9244 9.8622 66.8719 9.36839 67.8973 9.17703C68.9226 8.98568 69.9806 9.10521 70.9398 9.52078C71.8992 9.93109 72.7183 10.6206 73.2944 11.5029C73.8704 12.3852 74.1777 13.4209 74.1778 14.4803C74.1642 15.2029 74.0103 15.9156 73.7251 16.5774C73.4398 17.2392 73.0289 17.8371 72.5159 18.3366C71.4792 19.3495 70.0899 19.9018 68.6533 19.8721ZM82.5225 9.19957C81.8333 7.58021 80.818 6.1261 79.5421 4.93124C78.1723 3.6768 76.5783 2.70218 74.8469 2.06046C70.8394 0.648692 66.4821 0.648692 62.4746 2.06046C60.7414 2.69834 59.1467 3.67338 57.7794 4.93124C56.4998 6.12273 55.4838 7.57771 54.799 9.19957C54.1097 10.8629 53.7546 12.6498 53.7546 14.4551C53.7546 16.2603 54.1097 18.0473 54.799 19.7106C55.4783 21.338 56.495 22.7969 57.7794 23.9874C59.1467 25.2452 60.7414 26.2202 62.4746 26.8581C66.4825 28.259 70.839 28.259 74.8469 26.8581C76.5783 26.2164 78.1723 25.2418 79.5421 23.9874C80.8189 22.79 81.8343 21.333 82.5225 19.7106C83.2063 18.0459 83.5585 16.2595 83.5585 14.4551C83.5585 12.6507 83.2063 10.8643 82.5225 9.19957Z" fill="white"/>
</g>
</g>
</g>
</g>
</svg>
