<svg width="60" height="11" viewBox="0 0 60 11" fill="none" xmlns="http://www.w3.org/2000/svg">
<g clip-path="url(#clip0_373_3532)">
<path fill-rule="evenodd" clip-rule="evenodd" d="M31.7427 0.390753L27.8642 10.3928H29.925L32.8071 2.96071L35.689 10.3928H37.7499L33.8715 0.390753H31.7427ZM43.3263 8.4341C41.6392 8.4341 40.2716 7.06485 40.2716 5.37571C40.2716 3.68654 41.6392 2.31721 43.3263 2.31721C45.0133 2.31721 46.3811 3.68654 46.3811 5.37571C46.3811 7.06485 45.0133 8.4341 43.3263 8.4341ZM43.3263 0.382324C40.5718 0.382324 38.3389 2.61788 38.3389 5.37571C38.3389 8.13342 40.5718 10.369 43.3263 10.369C46.0809 10.369 48.3139 8.13342 48.3139 5.37571C48.3139 2.61788 46.0809 0.382324 43.3263 0.382324ZM57.098 0.390753L57.0947 4.88451V10.3928H59.0478L59.0489 0.390753H57.098ZM52.1932 0.390753H50.2423V10.3928H52.1932V6.36248H56.311L57.0635 4.42102H52.1932V0.390753ZM6.86125 4.42114H2.82189L2.843 6.36248H6.1085L6.86125 4.42114ZM4.073 0.398374C2.68096 0.398374 1.42223 0.969591 0.517578 1.89056L1.88425 3.25885C2.43911 2.68798 3.21459 2.33338 4.073 2.33338C5.76018 2.33338 7.12792 3.70259 7.12792 5.39176C7.12792 7.08083 5.76018 8.45013 4.073 8.45013C3.21459 8.45013 2.43911 8.09541 1.88425 7.52466L0.517578 8.89296C1.42223 9.81381 2.68096 10.3852 4.073 10.3852C6.82757 10.3852 9.06061 8.14945 9.06061 5.39176C9.06061 2.63394 6.82757 0.398374 4.073 0.398374ZM17.014 0.399182H10.0249V2.33003H12.5622V10.4012H14.4907V2.33003H17.014V0.399182ZM20.8925 0.390753L17.014 10.3928H19.075L19.8343 8.43454H22.5592L23.3121 6.49322H20.5872L21.957 2.96071L24.8389 10.3928H26.8999L23.0213 0.390753H20.8925Z" fill="white"/>
</g>
<defs>
<clipPath id="clip0_373_3532">
<rect width="59" height="10.0189" fill="white" transform="translate(0.517578 0.382324)"/>
</clipPath>
</defs>
</svg>
