<svg width="100" height="32" viewBox="0 0 100 32" fill="none" xmlns="http://www.w3.org/2000/svg">
<mask id="mask0_373_3585" style="mask-type:luminance" maskUnits="userSpaceOnUse" x="2" y="10" width="95" height="12">
<path d="M2.68164 10.9146H96.6816V21.4054H2.68164V10.9146Z" fill="white"/>
</mask>
<g mask="url(#mask0_373_3585)">
<path d="M80.5324 16.8243C80.5324 18.0268 79.5475 19.0175 78.3449 19.0175H77.1309C75.9283 19.0175 74.9434 18.0326 74.9434 16.8243V15.5301C74.9434 14.3275 75.9283 13.3426 77.1309 13.3426H78.3449C79.5475 13.3426 80.5324 14.3275 80.5324 15.5301V16.8243ZM82.8917 16.8071V15.5473C82.8917 13.0162 80.8245 10.9489 78.2934 10.9489H77.1882C74.6571 10.9489 72.5898 13.0162 72.5898 15.5473V16.8014C72.5898 19.3325 74.6571 21.3997 77.1882 21.3997H78.2934C80.8245 21.4054 82.8917 19.3325 82.8917 16.8071ZM23.2339 16.8243C23.2339 18.0268 22.249 19.0175 21.0464 19.0175H19.8324C18.6299 19.0175 17.6449 18.0326 17.6449 16.8243V15.5301C17.6449 14.3275 18.6299 13.3426 19.8324 13.3426H21.0464C22.249 13.3426 23.2339 14.3275 23.2339 15.5301V16.8243ZM25.5875 16.8071V15.5473C25.5875 13.0162 23.5203 10.9489 20.9892 10.9489H19.8897C17.3586 10.9489 15.2913 13.0162 15.2913 15.5473V16.8014C15.2913 19.3325 17.3586 21.3997 19.8897 21.3997H20.9892C23.5203 21.4054 25.5875 19.3325 25.5875 16.8071ZM12.2563 21.4054L8.39666 16.1657L12.2563 10.9489H9.32435L6.3294 14.9918H5.04667V10.9489H2.68164V21.4054H5.04667V17.3626H6.34085L9.32435 21.4054H12.2563ZM50.2457 13.3139H53.5842V10.9489H44.5364V13.3139H47.8749V21.4054H50.2457V13.3139ZM96.6816 14.528C96.2121 12.4836 94.3853 10.9489 92.2035 10.9489H91.0983C88.5672 10.9489 86.5 13.0162 86.5 15.5473V16.8014C86.5 19.3325 88.5672 21.3997 91.0983 21.3997H92.2035C94.3796 21.3997 96.2121 19.8593 96.6816 17.8207H94.1964C93.8299 18.525 93.1026 19.0118 92.2608 19.0118H91.0468C89.8442 19.0118 88.8593 18.0268 88.8593 16.8185V15.5301C88.8593 14.3275 89.8442 13.3368 91.0468 13.3368H92.2608C93.1026 13.3368 93.8299 13.8236 94.1964 14.528H96.6816ZM37.3611 14.8944V14.8601C37.3522 15.2601 37.1873 15.6409 36.9017 15.9211C36.6161 16.2014 36.2323 16.359 35.8322 16.3604H33.0548V13.3598H35.8322C36.6625 13.3598 37.344 14.0297 37.3611 14.8601V14.8257V14.8944ZM39.7376 15.0433V14.6711C39.7376 12.621 38.0655 10.9489 36.0154 10.9489H30.6841V21.3997H33.0491V18.7655H36.0097C38.0598 18.7655 39.7376 17.0934 39.7376 15.0433ZM65.9763 14.8544V14.82C65.9674 15.2201 65.8025 15.6008 65.5169 15.8811C65.2313 16.1613 64.8475 16.3189 64.4473 16.3203H61.6643V13.3254H64.4416C65.272 13.3254 65.9534 13.9954 65.9706 14.8257V14.7914V14.8544H65.9763ZM68.3528 15.009V14.6368C68.3528 12.5867 66.6807 10.9146 64.6306 10.9146H59.2992V21.3654H61.6643V18.7312H64.6249C66.6749 18.7312 68.3528 17.0591 68.3528 15.009Z" fill="white"/>
</g>
</svg>
