<svg width="33" height="32" viewBox="0 0 33 32" fill="none" xmlns="http://www.w3.org/2000/svg">
<mask id="mask0_373_3539" style="mask-type:luminance" maskUnits="userSpaceOnUse" x="5" y="4" width="23" height="24">
<path d="M27.9286 4.57129H5.07141V27.4284H27.9286V4.57129Z" fill="white"/>
</mask>
<g mask="url(#mask0_373_3539)">
<path d="M6.16556 26.234V18.6498H5.07141V27.324H9.9426V26.234H6.16556ZM19.64 22.4867L18.2761 26.1594L16.9122 22.4867H15.7131L17.5417 27.309H19.0105L20.8391 22.4867H19.64ZM26.8344 27.309H27.9286V18.6349H26.8344V27.309ZM14.3792 24.3082H11.6363C12.011 23.0988 14.0344 23.084 14.3792 24.3082ZM13.0152 22.3823C11.5164 22.3823 10.4522 23.4124 10.4672 24.9053C10.4822 26.4132 11.5014 27.4284 13.0602 27.4284C14.0644 27.4284 15.0236 26.9208 15.4283 25.7413H14.2442C13.6147 26.8909 11.6962 26.5177 11.6063 25.3084H15.5332C15.7281 23.6513 14.619 22.3823 13.0152 22.3823ZM24.9159 24.3082H22.173C22.5478 23.0988 24.5712 23.084 24.9159 24.3082ZM23.552 22.3823C22.0531 22.3823 20.989 23.4124 21.004 24.9053C21.019 26.4132 22.0382 27.4284 23.5969 27.4284C24.6011 27.4284 25.5604 26.9208 25.9651 25.7413H24.781C24.1515 26.8909 22.233 26.5177 22.1431 25.3084H26.0551C26.2649 23.6513 25.1558 22.3823 23.552 22.3823ZM26.8344 5.64621V17.5749H27.9286V4.57129H5.07141V17.5749H6.16556V5.64621H26.8344Z" fill="white"/>
</g>
</svg>
