<svg width="87" height="10" viewBox="0 0 87 10" fill="none" xmlns="http://www.w3.org/2000/svg">
<g clip-path="url(#clip0_373_3546)">
<mask id="mask0_373_3546" style="mask-type:luminance" maskUnits="userSpaceOnUse" x="0" y="0" width="87" height="10">
<path d="M0.900391 0H86.9004V9.55556H0.900391V0Z" fill="white"/>
</mask>
<g mask="url(#mask0_373_3546)">
<path fill-rule="evenodd" clip-rule="evenodd" d="M19.8843 4.46809H16.8169C16.6217 4.45654 16.4384 4.37076 16.3044 4.22833C16.1702 4.08552 16.0955 3.89697 16.0955 3.70104C16.0946 3.68658 16.0946 3.67207 16.0955 3.65761V0.513828C16.0952 0.377848 16.0412 0.247484 15.9452 0.151209C15.8492 0.0549345 15.7189 0.000573632 15.5829 6.66718e-08H15.2455C14.7762 0.00105211 14.3128 0.104062 13.8872 0.301901C13.4617 0.49974 13.0843 0.787682 12.781 1.1458L10.3813 3.94167H10.3708C10.2711 4.06491 10.1356 4.1542 9.98299 4.19724C9.8304 4.24027 9.66821 4.23494 9.51877 4.18196C9.36934 4.12899 9.24 4.03099 9.14858 3.90145C9.05715 3.77192 9.00814 3.61722 9.00829 3.45868V0.513828C9.00846 0.412522 8.97871 0.313421 8.92276 0.228962C8.86682 0.144503 8.78718 0.07845 8.69383 0.039091C8.63175 0.0132517 8.56517 -3.43441e-05 8.49794 6.66718e-08H8.16045C7.69119 0.00108118 7.22777 0.104104 6.80224 0.301941C6.37672 0.499778 5.99926 0.787704 5.69599 1.1458L2.91576 4.37775C2.72851 4.60419 2.49459 4.78754 2.22998 4.91527C1.96536 5.04301 1.6763 5.11211 1.38252 5.11787C1.28677 5.11768 1.19314 5.14611 1.11366 5.19951C1.03418 5.25291 0.972468 5.32884 0.936452 5.41757C0.912563 5.4762 0.899967 5.53918 0.900401 5.60303V8.51139C0.900851 8.60701 0.929592 8.70035 0.983002 8.77965C1.03641 8.85895 1.1121 8.92067 1.20053 8.95703C1.2596 8.98092 1.32215 8.99308 1.38556 8.99265C2.23578 8.98733 3.07475 8.79796 3.84482 8.43756C4.61566 8.07689 5.29943 7.55387 5.84931 6.90432L7.62838 4.83033C7.72639 4.70335 7.86166 4.6102 8.01526 4.56393C8.16885 4.51767 8.33307 4.5206 8.48491 4.57233C8.63703 4.62438 8.76901 4.72282 8.86227 4.85379C8.95554 4.98476 9.00539 5.14168 9.00482 5.30246V8.44972C9.00475 8.5598 9.04004 8.667 9.10549 8.75552C9.17094 8.84404 9.26309 8.9092 9.36836 8.94139C9.43786 8.96224 9.51169 8.96832 9.58423 8.95833C11.3833 8.71293 12.5239 7.37863 12.9291 6.90476L12.9326 6.90041L14.7169 4.83033C14.8149 4.70326 14.9503 4.61005 15.1039 4.56378C15.2576 4.51751 15.4219 4.5205 15.5738 4.57233C15.726 4.62438 15.8579 4.72282 15.9512 4.85379C16.0445 4.98476 16.0943 5.14168 16.0937 5.30246V8.26903C16.0937 8.46101 16.1697 8.64517 16.3048 8.78069C16.4403 8.91664 16.6236 8.99265 16.8152 8.99265H19.8934C20.0832 8.99022 20.2644 8.91295 20.3976 8.77765C20.5312 8.64203 20.6061 8.45936 20.6061 8.26903V5.19214C20.6061 5.0019 20.531 4.81861 20.3976 4.68353C20.2643 4.54812 20.0829 4.47084 19.8929 4.46853H19.8843V4.46809ZM40.8978 8.99265H39.55C39.5263 8.9927 39.5028 8.98807 39.4808 8.97901C39.4589 8.96995 39.4389 8.95664 39.4221 8.93985C39.4053 8.92306 39.392 8.90312 39.383 8.88117C39.3739 8.85923 39.3693 8.8357 39.3693 8.81196V7.80385C38.8281 8.69946 37.926 9.20461 36.7355 9.20461C35.0415 9.20461 34.0525 8.18216 34.0525 6.79747C34.0525 5.27206 35.2596 4.28219 37.5976 4.20227L39.3711 4.12453V4.04504C39.3711 3.03867 38.6965 2.36196 37.5976 2.36196C37.2183 2.34586 36.8422 2.43693 36.5122 2.62474C36.1819 2.81267 35.911 3.08958 35.7304 3.42393C35.7081 3.46154 35.6729 3.48979 35.6314 3.50345C35.5899 3.51711 35.5448 3.51524 35.5045 3.4982L34.4222 2.95527C34.3819 2.93321 34.3515 2.89666 34.3371 2.85304C34.3228 2.80941 34.3255 2.76196 34.3448 2.72029C34.9347 1.57276 36.0787 0.894313 37.6393 0.894313C39.7429 0.894313 41.0672 2.12133 41.0672 4.07197V8.80849C41.0672 8.85637 41.0482 8.90231 41.0144 8.93625C40.9807 8.97019 40.9348 8.98938 40.8869 8.98961L40.8978 8.99265ZM39.3767 5.43668L37.87 5.50009C36.3654 5.56351 35.7847 6.0339 35.7847 6.69454C35.7847 7.35474 36.3259 7.74782 37.1646 7.74782C38.4186 7.74782 39.3767 6.84265 39.3767 5.56133V5.43668ZM28.7844 5.37326L30.7272 1.26872C30.7481 1.22572 30.7807 1.18948 30.8213 1.16414C30.8618 1.13879 30.9087 1.12536 30.9565 1.12538H32.627C32.6604 1.12533 32.6934 1.13184 32.7243 1.14456C32.7551 1.15728 32.7832 1.17594 32.8068 1.1995C32.8305 1.22305 32.8492 1.25103 32.862 1.28184C32.8749 1.31264 32.8815 1.34567 32.8815 1.37904V8.7303C32.881 8.79751 32.8539 8.86178 32.8063 8.90919C32.7586 8.95659 32.6942 8.9833 32.627 8.98353H31.5029C31.4696 8.98358 31.4366 8.97708 31.4058 8.96438C31.375 8.95169 31.347 8.93305 31.3234 8.90954C31.2999 8.88602 31.2811 8.85809 31.2683 8.82734C31.2555 8.79659 31.2489 8.76361 31.2488 8.7303V4.46853C31.2484 4.42619 31.2375 4.38464 31.2169 4.34764C31.1963 4.31065 31.1668 4.27939 31.131 4.25672C31.0953 4.23405 31.0544 4.22069 31.0122 4.21786C30.9699 4.21502 30.9277 4.22281 30.8892 4.2405C30.8378 4.26461 30.7961 4.3053 30.7706 4.35603L29.0784 7.8108C29.0576 7.85299 29.0255 7.88854 28.9856 7.91347C28.9457 7.93841 28.8996 7.95173 28.8526 7.95196H28.2106C28.1633 7.95201 28.1169 7.93881 28.0767 7.91387C28.0364 7.88892 28.004 7.85322 27.983 7.8108L26.2834 4.35429C26.2642 4.31668 26.2359 4.28447 26.2011 4.26059C26.1663 4.23671 26.126 4.22191 26.084 4.21756C26.042 4.2132 25.9996 4.21941 25.9606 4.23563C25.9216 4.25185 25.8873 4.27756 25.8608 4.31042C25.8255 4.35491 25.806 4.40997 25.8057 4.46679V8.73595C25.8065 8.80205 25.7815 8.86587 25.736 8.91382C25.6905 8.96176 25.628 8.99005 25.562 8.99265H24.4362C24.4029 8.99276 24.3699 8.98629 24.3392 8.9736C24.3084 8.96091 24.2805 8.94225 24.257 8.91871C24.2335 8.89517 24.2149 8.8672 24.2023 8.83643C24.1896 8.80566 24.1832 8.77269 24.1834 8.73942V1.39164C24.1835 1.32459 24.2102 1.26031 24.2575 1.21286C24.3049 1.16541 24.3691 1.13864 24.4362 1.13841H26.1557C26.2033 1.13844 26.2498 1.15192 26.29 1.17728C26.3302 1.20264 26.3624 1.23886 26.3829 1.28175L28.3262 5.37326C28.3469 5.41582 28.3792 5.45168 28.4194 5.47676C28.4596 5.50185 28.506 5.51515 28.5533 5.51515C28.6007 5.51515 28.6471 5.50185 28.6872 5.47676C28.7274 5.45168 28.7597 5.41582 28.7805 5.37326H28.7844ZM49.4908 8.82456V1.30303C49.4918 1.26073 49.4779 1.21944 49.4516 1.18634C49.4252 1.15324 49.3881 1.13044 49.3466 1.12191H47.9342C47.9104 1.12179 47.8868 1.1264 47.8648 1.13547C47.8428 1.14454 47.8228 1.15788 47.806 1.17473C47.7892 1.19157 47.7759 1.21159 47.7669 1.23362C47.7578 1.25564 47.7533 1.27923 47.7535 1.30303V3.86739C47.7535 3.89112 47.7489 3.91463 47.7399 3.93657C47.7308 3.95852 47.7176 3.97847 47.7008 3.99529C47.6841 4.01211 47.6642 4.02546 47.6423 4.0346C47.6204 4.04373 47.5969 4.04846 47.5732 4.04852H44.4212C44.3974 4.04852 44.3739 4.04382 44.352 4.03471C44.3301 4.0256 44.3102 4.01224 44.2934 3.99541C44.2767 3.97858 44.2634 3.95861 44.2544 3.93664C44.2454 3.91467 44.2408 3.89114 44.2409 3.86739V1.30303C44.2409 1.25507 44.2219 1.20907 44.188 1.17511C44.1542 1.14116 44.1082 1.12202 44.0602 1.12191H42.6478C42.624 1.12185 42.6004 1.1265 42.5784 1.13559C42.5565 1.14467 42.5365 1.15802 42.5197 1.17486C42.5029 1.19169 42.4896 1.21169 42.4806 1.23368C42.4715 1.25568 42.467 1.27925 42.4671 1.30303V8.82456C42.4672 8.87237 42.4862 8.91819 42.52 8.95204C42.5537 8.98589 42.5995 9.00501 42.6473 9.00524H44.0459C44.0696 9.00524 44.0931 9.00057 44.115 8.99148C44.1369 8.9824 44.1568 8.96908 44.1735 8.95229C44.1903 8.93551 44.2035 8.91559 44.2126 8.89367C44.2216 8.87175 44.2262 8.84826 44.2262 8.82456V5.81846C44.2262 5.77058 44.2451 5.72464 44.2789 5.6907C44.3127 5.65676 44.3585 5.63757 44.4064 5.63734H47.5367C47.5846 5.63757 47.6305 5.65676 47.6642 5.6907C47.698 5.72464 47.717 5.77058 47.717 5.81846V8.82412C47.717 8.87208 47.736 8.91809 47.7699 8.95204C47.8037 8.98599 47.8497 9.00513 47.8977 9.00524H49.3102C49.358 9.00513 49.4038 8.98604 49.4376 8.95217C49.4714 8.91829 49.4908 8.8724 49.4908 8.82456ZM51.1383 1.13103H55.9065C55.9529 1.13338 55.9966 1.1535 56.0286 1.18723C56.0605 1.22096 56.0783 1.26569 56.0781 1.31215V2.57913C56.0783 2.62559 56.0605 2.67033 56.0286 2.70405C55.9966 2.73778 55.9529 2.75791 55.9065 2.76025H52.8939C52.8475 2.75998 52.8027 2.77769 52.769 2.80967C52.7354 2.84165 52.7154 2.88542 52.7132 2.93182V8.84975C52.7132 8.89763 52.6943 8.94357 52.6605 8.97751C52.6267 9.01146 52.5809 9.03064 52.533 9.03087H51.1201C51.0722 9.03064 51.0263 9.01146 50.9925 8.97751C50.9588 8.94357 50.9398 8.89763 50.9398 8.84975V1.30303C50.9398 1.25514 50.9588 1.20921 50.9925 1.17526C51.0263 1.14132 51.0722 1.12214 51.1201 1.12191L51.1383 1.13103ZM61.8027 8.99265H63.1522L63.1488 8.98917C63.1725 8.98911 63.196 8.98439 63.2179 8.97525C63.2398 8.96612 63.2597 8.95276 63.2764 8.93594C63.2931 8.91912 63.3064 8.89917 63.3154 8.87723C63.3245 8.85529 63.3291 8.83178 63.329 8.80805V4.07197C63.329 2.12133 62.003 0.894313 59.9012 0.894313C58.3406 0.894313 57.1948 1.57276 56.605 2.72029C56.586 2.76225 56.5837 2.80982 56.5985 2.85342C56.6132 2.89702 56.6439 2.93342 56.6844 2.95527L57.7668 3.4982C57.8064 3.51732 57.8519 3.52031 57.8936 3.50653C57.9353 3.49275 57.9701 3.46329 57.9905 3.42436C58.1712 3.08981 58.4422 2.81279 58.7728 2.62494C59.1033 2.43708 59.4801 2.34595 59.8599 2.36196C60.9566 2.36196 61.6333 3.03867 61.6333 4.04504V4.12453L59.8599 4.20271C57.5214 4.28219 56.3144 5.27206 56.3144 6.79747C56.3144 8.18216 57.3012 9.20461 58.9956 9.20461C60.1883 9.20461 61.09 8.69946 61.6316 7.80385V8.81153C61.6312 8.85797 61.6488 8.90277 61.6807 8.93653C61.7126 8.9703 61.7563 8.99041 61.8027 8.99265ZM60.1249 5.50009L61.6316 5.43668V5.56133C61.6316 6.84265 60.6808 7.74782 59.4178 7.74782C58.5877 7.74782 58.0374 7.35474 58.0374 6.69454C58.0374 6.0339 58.6186 5.56351 60.1249 5.50009ZM64.2655 7.06156L65.3353 6.51863C65.3659 6.5042 65.4 6.49915 65.4335 6.50409C65.467 6.50904 65.4982 6.52377 65.5233 6.54642C65.5399 6.56163 65.5533 6.57993 65.5629 6.60028C65.9542 7.36212 66.6344 7.74782 67.5743 7.74782C68.5146 7.74782 69.2378 7.33867 69.2378 6.63112C69.2378 6.06474 68.767 5.65732 67.9352 5.65732H66.5714C66.5476 5.65732 66.5241 5.65264 66.5022 5.64353C66.4802 5.63442 66.4603 5.62107 66.4435 5.60425C66.4267 5.58742 66.4134 5.56745 66.4043 5.54548C66.3953 5.52351 66.3907 5.49997 66.3907 5.4762V4.37427C66.3907 4.32631 66.4097 4.28031 66.4436 4.24635C66.4775 4.2124 66.5234 4.19327 66.5714 4.19315H67.9604C68.668 4.19315 69.1062 3.84568 69.1062 3.3262C69.1062 2.71465 68.4764 2.32026 67.5834 2.32026C66.7556 2.32026 66.1544 2.65862 65.7792 3.31013C65.7629 3.34023 65.738 3.36476 65.7076 3.38055C65.6773 3.39635 65.6429 3.40268 65.6089 3.39874C65.5862 3.39584 65.5644 3.38846 65.5446 3.37702L64.5326 2.80369C64.4939 2.77916 64.4659 2.74091 64.4542 2.69661C64.4425 2.6523 64.448 2.60522 64.4696 2.5648C65.1081 1.47894 66.1618 0.906909 67.6303 0.906909C69.4976 0.906909 70.7515 1.8351 70.7515 3.22153C70.7586 3.55056 70.672 3.87482 70.5017 4.15646C70.3314 4.4381 70.0845 4.66549 69.7899 4.81209C69.7623 4.82735 69.7396 4.8501 69.7245 4.87772C69.7093 4.90533 69.7022 4.93668 69.7042 4.96813C69.7061 4.99958 69.7168 5.02985 69.7352 5.05543C69.7536 5.08101 69.7789 5.10085 69.8081 5.11266C70.1426 5.23862 70.4292 5.46665 70.6269 5.76548C70.8245 6.06431 70.9231 6.41776 70.9088 6.77576C70.9088 8.23819 69.5753 9.21373 67.5999 9.21373C66.0445 9.21373 64.8536 8.61651 64.1717 7.29697C64.1513 7.25462 64.1483 7.20603 64.1631 7.16146C64.1779 7.11689 64.2095 7.07982 64.2511 7.05808L64.2655 7.06156ZM75.6826 0.910384C73.2525 0.865212 71.466 2.57696 71.466 5.04751V5.05619C71.466 7.50328 73.1891 9.21894 75.6535 9.21894C77.0356 9.21894 78.1883 8.6847 78.9571 7.65704C78.9824 7.61999 78.993 7.57491 78.987 7.53048C78.981 7.48605 78.9587 7.44542 78.9246 7.41641L77.9304 6.62721C77.8921 6.60035 77.8448 6.58949 77.7987 6.59695C77.7525 6.60441 77.7111 6.62961 77.6832 6.66717C77.4541 6.98372 77.1502 7.23862 76.7986 7.40915C76.447 7.57967 76.0587 7.66051 75.6683 7.64444C74.4287 7.64444 73.5483 6.90432 73.2811 5.77851C73.2767 5.75325 73.2776 5.72732 73.284 5.70247C73.2903 5.67761 73.3019 5.6544 73.3179 5.63438C73.334 5.61436 73.3541 5.59799 73.3769 5.58636C73.3998 5.57474 73.4249 5.56813 73.4505 5.56698H79.2043C79.2464 5.56549 79.2866 5.54928 79.3179 5.52118C79.3493 5.49309 79.3698 5.45488 79.3758 5.41322C79.3971 5.25903 79.4102 5.10354 79.4154 4.94804C79.4857 2.81064 77.8131 0.948172 75.6826 0.910384ZM77.4943 4.19967C77.4709 4.20997 77.4456 4.21515 77.42 4.21487H73.5391C73.5125 4.21356 73.4865 4.20635 73.4629 4.19376C73.4394 4.18118 73.419 4.16353 73.4031 4.14209C73.3872 4.12064 73.3763 4.09595 73.3712 4.06978C73.366 4.04361 73.3667 4.01661 73.3732 3.99075C73.5202 3.52878 73.8133 3.1271 74.2085 2.84625C74.6028 2.56595 75.0778 2.42185 75.5614 2.4358C76.6334 2.4358 77.4039 3.05691 77.6002 4.01247C77.605 4.05085 77.5973 4.08976 77.5782 4.12341C77.5591 4.15705 77.5297 4.18408 77.4943 4.19967ZM86.7749 1.33387V5.80587L86.7801 5.80413V8.79545C86.7795 8.85084 86.7573 8.90381 86.7182 8.94302C86.679 8.98223 86.6261 9.00456 86.5707 9.00524H85.2573C85.2018 9.0049 85.1487 8.98267 85.1095 8.94339C85.0703 8.90411 85.0482 8.85095 85.0479 8.79545V6.69801C85.048 6.6705 85.0427 6.64324 85.0323 6.61779C85.0218 6.59235 85.0065 6.56921 84.9871 6.54972C84.9676 6.53023 84.9446 6.51476 84.9192 6.50421C84.8938 6.49365 84.8665 6.48822 84.839 6.48822H84.1171C84.0388 6.48736 83.9612 6.503 83.8894 6.53413C83.8176 6.56526 83.7531 6.61119 83.7002 6.66891L83.3036 7.11411L83.2854 7.13409L82.4844 8.06619C82.2381 8.3573 81.9317 8.59175 81.5864 8.75353C81.241 8.9153 80.8648 9.00057 80.4834 9.00351H80.3227C80.2882 9.00391 80.254 8.99739 80.2221 8.98433C80.1901 8.97128 80.1611 8.95195 80.1368 8.9275C80.0877 8.87788 80.0599 8.81099 80.0595 8.74116V7.52891C80.0599 7.45894 80.0876 7.39189 80.1368 7.34214C80.1612 7.31771 80.1901 7.29839 80.2221 7.28534C80.254 7.27229 80.2882 7.26575 80.3227 7.26613H80.4765C80.6093 7.26483 80.7403 7.23454 80.8603 7.17737C80.9802 7.12021 81.0863 7.03755 81.171 6.93516L81.7825 6.21111C81.3014 5.97993 80.9004 5.61019 80.6309 5.14937C80.3615 4.68855 80.236 4.15771 80.2706 3.62503C80.3243 2.93938 80.636 2.2996 81.1428 1.83467C81.6487 1.3706 82.3122 1.11653 82.9987 1.12408H86.5655C86.621 1.12442 86.6741 1.14665 86.7133 1.18593C86.7525 1.22521 86.7747 1.27837 86.7749 1.33387ZM85.0427 4.79124V2.82323C85.0429 2.77678 85.0252 2.73204 84.9932 2.69831C84.9613 2.66458 84.9176 2.64446 84.8712 2.64211H83.2476C82.4336 2.64211 81.9306 3.11468 81.9306 3.80615C81.9306 4.49719 82.4336 4.9715 83.2476 4.9715H84.8712C84.9174 4.96905 84.961 4.94895 84.9929 4.91534C85.0249 4.88173 85.0427 4.83716 85.0427 4.79081V4.79124Z" fill="white"/>
</g>
</g>
<defs>
<clipPath id="clip0_373_3546">
<rect width="86" height="9.55556" fill="white" transform="translate(0.900391)"/>
</clipPath>
</defs>
</svg>
