<svg width="61" height="13" viewBox="0 0 61 13" fill="none" xmlns="http://www.w3.org/2000/svg">
<g clip-path="url(#clip0_373_3564)">
<path d="M27.9684 0.948685H24.0575V0.0317383H32.9722V0.948685H29.1767V8.00035H27.9684V0.948685Z" fill="white"/>
<path d="M34.6263 0.0541992H35.8328V8.00088H34.6263V0.0541992Z" fill="white"/>
<path d="M43.371 4.87122L39.2924 1.79574V8.00088H38.036V0.0541992H39.2187L43.371 3.40217L47.5514 0.0541992H48.7157V8.00088H47.4488V1.79574L43.371 4.87122Z" fill="white"/>
<path d="M52.9224 4.92245H57.3917L55.1486 1.38951L52.9228 4.92275L52.9224 4.92245ZM49.6495 8.00082L54.6241 0.0239258H55.6727L60.7022 8.00082H59.3323L57.9527 5.85452H52.3441L51.0017 8.00082H49.6495Z" fill="white"/>
<path d="M10.739 1.10963C9.96237 0.369496 8.90977 -0.000379749 7.58117 2.92564e-07H5.39131C4.06235 2.92564e-07 3.00955 0.369876 2.23291 1.10963C1.84261 1.49091 1.5366 1.95393 1.33561 2.46734C1.13462 2.98074 1.04334 3.53253 1.06795 4.08534C1.05727 4.62417 1.1622 5.15877 1.37529 5.65117C1.58837 6.14361 1.90438 6.58179 2.30087 6.93453C3.08405 7.64753 4.10249 8.02657 5.14835 7.99426H7.82413C8.8699 8.02646 9.8882 7.64723 10.6711 6.93394C11.0679 6.58145 11.3843 6.14335 11.5976 5.65091C11.811 5.15844 11.916 4.62373 11.9054 4.08479C11.93 3.53188 11.8387 2.97999 11.6376 2.46655C11.4365 1.95312 11.1302 1.49015 10.7396 1.10906L10.739 1.10963ZM9.72581 6.18403C9.07546 6.74269 8.20896 7.0223 7.12629 7.0229H5.84648C4.7629 7.0229 3.89611 6.74317 3.24614 6.18377C2.93121 5.92053 2.67947 5.58636 2.5104 5.20709C2.34133 4.82783 2.25948 4.41369 2.27119 3.99672C2.26407 3.55052 2.3643 3.10943 2.56299 2.71263C2.76167 2.31583 3.05264 1.97559 3.41007 1.72216C4.11975 1.20328 4.97605 0.939213 5.84648 0.970818H7.12629C7.99661 0.939231 8.85284 1.2033 9.56243 1.72216C9.9198 1.97563 10.2108 2.31587 10.4094 2.71266C10.6081 3.10946 10.7084 3.55053 10.7013 3.99672C10.7129 4.41369 10.631 4.82783 10.4619 5.20709C10.2927 5.58632 10.0407 5.92076 9.72581 6.18403Z" fill="white"/>
<path d="M23.1352 2.46574C23.1352 2.42954 23.1352 2.39306 23.1332 2.35629V2.19097L23.1293 2.19239C23.1382 1.87403 23.0722 1.55816 22.9371 1.27157C22.8018 0.984976 22.6014 0.736104 22.3527 0.546055C21.7885 0.106823 20.9395 0.0335699 19.9853 0.0335699H14.9999V0.0327148H13.7323V8.00105H15.0481V4.8412H19.9842C20.9384 4.8412 21.7872 4.76765 22.3519 4.32926C23.0619 3.77687 23.1285 3.09167 23.1335 2.46602H23.1349L23.1352 2.46574ZM21.4218 3.67712C21.0674 3.88035 20.3909 3.91028 19.7252 3.91028H15.0481V2.44921L15.0487 2.46631H15.0496V0.963626H19.726C20.3917 0.963626 21.0685 0.993556 21.4235 1.19678C21.6164 1.32084 21.774 1.49503 21.8803 1.70173C21.9867 1.90843 22.0381 2.14032 22.0293 2.37396C22.0551 2.62748 22.012 2.88339 21.9047 3.11325C21.7975 3.3431 21.6304 3.53789 21.4218 3.67598V3.67712Z" fill="white"/>
<path d="M16.6617 12.8246H14.8541V11.2413L16.5954 11.2407V11.4767H15.1403V11.8843H16.1522V12.1203H15.1403V12.5878H16.6617V12.8246Z" fill="white"/>
<path d="M20.4255 11.2407L19.6106 12.8246H19.3221L18.5081 11.241H18.7876L19.4664 12.5607L20.1454 11.241L20.4255 11.2407Z" fill="white"/>
<path d="M24.0781 12.8246H22.2708V11.2413L24.0121 11.2407V11.4767H22.5567V11.8843H23.5683V12.1203H22.5567V12.5878H24.0784V12.8243L24.0781 12.8246Z" fill="white"/>
<path d="M27.8937 12.8246H26.2573V11.2413L26.508 11.2407V12.588H27.8935L27.8937 12.8246Z" fill="white"/>
<path d="M43.5272 12.8246H41.7189V11.2413L43.4607 11.2407V11.4767H42.0056V11.8843H43.0172V12.1203H42.0059V12.5878H43.5276V12.8243L43.5272 12.8246Z" fill="white"/>
<path d="M47.552 12.8246H47.2401L45.7473 11.5255V12.8246H45.4965V11.2413L45.8069 11.2407L47.3012 12.5405V11.2407H47.552V12.8246Z" fill="white"/>
<path d="M50.3159 11.4231H49.538V11.2412H51.312V11.4228H50.5562V12.8263H50.3166V11.4231H50.3159Z" fill="white"/>
<path d="M38.4331 12.1977L37.6169 11.5821V12.8248H37.3646V11.2329H37.6021L38.4334 11.9039L39.2705 11.2332H39.5047V12.8251H39.251V11.5824L38.4338 12.198L38.4331 12.1977Z" fill="white"/>
<path d="M31.4616 11.4468C31.2871 11.2913 31.0606 11.2115 30.83 11.2245H30.3929C30.1624 11.2118 29.9361 11.2915 29.7616 11.4468C29.6838 11.5231 29.6227 11.6156 29.5827 11.7182C29.5427 11.8208 29.5245 11.931 29.5294 12.0414C29.5272 12.1491 29.5481 12.2561 29.5908 12.3545C29.6335 12.453 29.6968 12.5405 29.7763 12.6109C29.9329 12.7529 30.1361 12.8285 30.3449 12.8224H30.8797C31.0888 12.8284 31.2923 12.7529 31.4494 12.6109C31.5286 12.5403 31.5918 12.4528 31.6344 12.3544C31.6771 12.2559 31.6982 12.1491 31.6963 12.0414C31.701 11.9308 31.6826 11.8204 31.6421 11.7178C31.6018 11.6152 31.5404 11.5227 31.4621 11.4465L31.4616 11.4468ZM31.2597 12.4607C31.1114 12.5788 30.9269 12.6382 30.7396 12.6283H30.4844C30.2971 12.6379 30.1127 12.5783 29.9646 12.4601C29.901 12.4045 29.8505 12.3347 29.8169 12.2561C29.7833 12.1775 29.7675 12.0921 29.7707 12.0063C29.7739 11.9205 29.796 11.8366 29.8354 11.7609C29.8747 11.6851 29.9303 11.6196 29.9979 11.5691C30.1395 11.4652 30.3105 11.4123 30.4844 11.4186H30.7396C30.9135 11.4122 31.0847 11.465 31.2264 11.5688C31.2937 11.6194 31.3491 11.685 31.3883 11.7608C31.4275 11.8365 31.4495 11.9203 31.4527 12.006C31.456 12.0918 31.4402 12.1771 31.4068 12.2557C31.3734 12.3343 31.3231 12.4041 31.2597 12.4598V12.4607Z" fill="white"/>
<path d="M35.4783 11.7135C35.4785 11.7061 35.4783 11.6987 35.4775 11.6913V11.6576C35.4791 11.5939 35.4659 11.5306 35.4389 11.4732C35.4119 11.4158 35.3718 11.3659 35.3222 11.3276C35.1774 11.2432 35.0107 11.2072 34.845 11.2244H33.59V12.8249H33.8543V12.1901H34.8453C35.0103 12.2077 35.1764 12.1718 35.3205 12.0875C35.3757 12.0442 35.4191 11.9871 35.4467 11.9216C35.4743 11.8561 35.4854 11.7845 35.4783 11.7135ZM35.1349 11.9566C35.0253 11.9966 34.9088 12.0124 34.7929 12.0031H33.854V11.4117H34.7938C34.9094 11.4024 35.0256 11.4182 35.1349 11.4581C35.1735 11.4832 35.205 11.5182 35.2262 11.5598C35.2473 11.6013 35.2575 11.6478 35.2556 11.6947C35.2609 11.7456 35.2525 11.7971 35.2311 11.8434C35.2098 11.8897 35.1764 11.929 35.1346 11.9569L35.1349 11.9566Z" fill="white"/>
<path d="M12.0374 11.2196C12.2689 11.2069 12.4963 11.2865 12.672 11.4419C12.7504 11.5187 12.8118 11.6118 12.8521 11.7151C12.8924 11.8184 12.9107 11.9293 12.9056 12.0405C12.9078 12.1487 12.8869 12.2562 12.8442 12.3551C12.8016 12.4542 12.7383 12.5423 12.6587 12.6134C12.5011 12.7566 12.2965 12.8327 12.0862 12.8263H10.8076V11.2198L12.0374 11.2196ZM12.1079 12.586C12.1774 12.5883 12.2467 12.5758 12.3113 12.5492C12.3759 12.5226 12.4344 12.4825 12.4831 12.4315C12.5325 12.3788 12.571 12.3164 12.5964 12.248C12.6217 12.1796 12.6334 12.1067 12.6307 12.0336C12.6339 11.9567 12.6215 11.8799 12.5943 11.8082C12.567 11.7365 12.5256 11.6713 12.4726 11.6169C12.4173 11.5634 12.3521 11.5219 12.281 11.4947C12.2098 11.4675 12.1341 11.4551 12.0582 11.4584H11.0616V12.5857H12.1073L12.1079 12.586Z" fill="white"/>
</g>
<defs>
<clipPath id="clip0_373_3564">
<rect width="60" height="13" fill="white" transform="translate(0.851562)"/>
</clipPath>
</defs>
</svg>
