<svg width="95" height="12" viewBox="0 0 95 12" fill="none" xmlns="http://www.w3.org/2000/svg">
<g clip-path="url(#clip0_373_3583)">
<path d="M3.42894 8.62959C1.75037 8.62959 0.351562 7.28674 0.351562 5.72007C0.351562 4.09745 1.75037 2.81055 3.42894 2.81055H19.5432V5.04864H3.42894C3.03728 5.04864 2.70156 5.3284 2.70156 5.72007C2.70156 6.05578 3.03728 6.3915 3.42894 6.3915H19.5432V8.62959H3.42894ZM26.9289 2.81055H43.0432C44.7218 2.81055 46.1206 3.98555 46.1206 5.60817C46.1206 7.23078 44.7218 8.51769 43.0432 8.51769H30.7337V6.33555H43.0432C43.267 6.33555 43.4349 6.22364 43.6028 6.11174C43.6587 6.05578 43.6587 5.99983 43.7147 5.94388C43.7706 5.83198 43.7706 5.77602 43.7706 5.66412C43.7706 5.3284 43.4349 4.99269 43.0432 4.99269H29.2789V8.57364H26.9289V2.81055ZM20.3266 4.99269H22.0611V8.57364H24.3551V4.99269H26.0897V2.81055H20.3266V4.99269ZM75.1599 5.72007C75.1599 4.09745 76.5587 2.81055 78.2373 2.81055H94.3516V8.62959H92.0016V5.04864H78.2373C77.8456 5.04864 77.5099 5.3284 77.5099 5.72007C77.5099 6.05578 77.8456 6.3915 78.2373 6.3915H90.5468V8.62959H78.2373C76.5587 8.62959 75.1599 7.34269 75.1599 5.72007ZM46.9599 5.72007C46.9599 7.28674 48.3587 8.62959 50.0373 8.62959H62.3468V6.3915H50.0373C49.8694 6.3915 49.6456 6.33555 49.5337 6.22364C49.4778 6.22364 49.4778 6.16769 49.4218 6.16769C49.4218 6.11174 49.3658 6.11174 49.3658 6.05579C49.3099 5.94388 49.3099 5.83198 49.3099 5.72007C49.3099 5.60817 49.3658 5.44031 49.4218 5.3284C49.5337 5.16055 49.7575 5.04864 50.0373 5.04864H63.8016V8.62959H66.1516V2.81055H50.0373C48.3028 2.81055 46.9599 4.09745 46.9599 5.72007ZM69.6206 4.60102H72.1385V2.81055H74.4885V8.57364H72.1385V6.78317H69.6206V8.57364H67.3266V2.81055H69.6206V4.60102Z" fill="white"/>
</g>
<defs>
<clipPath id="clip0_373_3583">
<rect width="94" height="11.1905" fill="white" transform="translate(0.351562 0.404785)"/>
</clipPath>
</defs>
</svg>
