<svg width="54" height="13" viewBox="0 0 54 13" fill="none" xmlns="http://www.w3.org/2000/svg">
<g clip-path="url(#clip0_373_3554)">
<path d="M2.37785 2.35741C2.37785 1.30967 3.1032 0.624612 4.39273 0.624612C5.13823 0.624612 5.82329 0.785802 6.50835 1.10818C7.01207 1.32982 7.29415 1.00744 7.45534 0.604463C6.4882 0.201488 5.48076 0 4.47332 0C2.37785 0 0.201782 0.705207 0.181633 3.16336C0.161485 6.4879 5.80314 6.91103 5.94418 9.69156C6.00463 11.0214 5.05764 11.7467 3.76811 11.7467C2.86142 11.7467 2.05547 11.5654 1.22937 11.1221C0.786096 10.8803 0.463716 11.1624 0.302526 11.5452C1.20922 12.0691 2.70023 12.3512 3.70767 12.3512C6.20612 12.3512 8.28144 11.3438 8.22099 8.84531C8.1001 5.39987 2.37785 4.9969 2.37785 2.35741Z" fill="white"/>
<path d="M44.5501 5.50026C44.4091 5.09728 44.2076 4.71446 43.9255 4.41222C43.6435 4.08984 43.2808 3.84806 42.8174 3.66672C42.3539 3.48538 41.8301 3.40479 41.2055 3.40479C39.9361 3.40479 38.9286 3.82791 38.2234 4.65401C37.4981 5.50026 37.1354 6.60844 37.1757 7.97856C37.1958 9.08674 37.4578 10.1949 38.163 11.0815C38.9286 12.0285 40.1174 12.371 41.286 12.371C42.4345 12.371 43.724 11.968 44.389 11.3635C44.6307 11.1419 44.5098 10.8397 44.389 10.7389C43.6636 11.3031 42.9382 11.5852 41.9711 11.5852C41.0644 11.5852 40.3995 11.2628 40.0167 10.6583C39.6338 10.0337 39.4122 9.02629 39.3921 7.65618H44.6912C44.7113 7.65618 44.7315 7.63603 44.7315 7.61588C44.7718 7.39424 44.7919 7.15246 44.7919 6.89052C44.7516 6.36665 44.6912 5.92338 44.5501 5.50026ZM42.7771 6.95097L39.3316 7.2129C39.3719 5.98383 39.6137 3.88836 41.2256 3.88836C42.7368 3.88836 42.7972 5.80249 42.7771 6.95097Z" fill="white"/>
<path d="M49.5259 7.2132L52.5079 3.58643H51.4803C51.3796 3.58643 51.2788 3.60657 51.2184 3.70732L49.2236 6.81023L48.7199 6.06472C47.2491 3.92896 47.37 3.58643 46.5237 3.58643H44.8111L47.9744 8.18035L44.7103 12.1899H45.7581C45.879 12.1899 45.9797 12.1497 46.0401 12.0691L48.317 8.60347L49.1028 9.7318C50.5132 11.7467 50.3318 12.2101 51.3997 12.1899H53.0116L49.5259 7.2132Z" fill="white"/>
<path d="M21.9421 6.16517C21.9421 4.43237 21.2973 3.40479 19.625 3.40479C18.2145 3.40479 17.2675 4.13014 16.522 4.93609C16.24 3.96895 15.5952 3.40479 14.3258 3.40479C13.137 3.40479 12.1699 3.96895 11.3841 4.8152V4.79505C11.3841 4.13014 11.2834 3.58612 10.6386 3.58612H9.28864L9.36923 4.57341V11.2024L9.28864 12.1896H11.4849L11.4043 11.2024V5.27862C12.0087 4.75475 12.7542 4.53312 13.3587 4.53312C14.5072 4.53312 14.6281 5.74204 14.6281 6.64874V11.1822L14.5475 12.1695H16.7437L16.6631 11.1822V5.27862C17.187 4.8152 17.9325 4.53312 18.6175 4.53312C19.8264 4.53312 19.907 5.86294 19.907 6.64874V11.0009C19.907 11.827 20.1287 12.1695 20.6727 12.1695H22.0227L21.9421 11.1822V6.16517Z" fill="white"/>
<path d="M35.8241 6.16517C35.8241 4.45252 35.1793 3.40479 33.507 3.40479C32.3182 3.40479 31.21 3.96895 30.4242 4.8152C30.4242 4.15029 30.3235 3.60627 29.6787 3.60627H28.3287L28.4093 4.59356V11.2225L28.3287 12.2098H30.525L30.4444 11.2225V5.27862C31.069 4.79505 31.6734 4.53312 32.5197 4.53312C33.5876 4.53312 33.8092 5.54055 33.8092 6.64874V11.0009C33.8092 11.7262 33.9704 12.1695 34.5749 12.1695H35.9248L35.8442 11.1822L35.8241 6.16517Z" fill="white"/>
<path d="M25.0453 2.19622C25.6498 2.19622 26.1535 1.6925 26.1535 1.08803C26.1535 0.483571 25.6699 0 25.0453 0C24.4409 0 23.9371 0.503719 23.9371 1.10818C23.9371 1.71265 24.4409 2.19622 25.0453 2.19622Z" fill="white"/>
<path d="M26.1539 4.75505C26.1539 4.09015 26.0331 3.58643 25.3883 3.58643H24.0383L24.1189 4.57372V11.2027L24.0383 12.1899H26.2345L26.1539 11.2027V4.75505Z" fill="white"/>
</g>
<defs>
<clipPath id="clip0_373_3554">
<rect width="52.8301" height="12.3713" fill="white" transform="translate(0.181641 -0.000488281)"/>
</clipPath>
</defs>
</svg>
