<svg width="84" height="11" viewBox="0 0 84 11" fill="none" xmlns="http://www.w3.org/2000/svg">
<g clip-path="url(#clip0_373_3592)">
<path d="M23.415 9.93485V3.33545H29.0336C29.9199 3.33545 30.6113 3.54638 31.1077 3.96691C31.604 4.38811 31.8523 4.96301 31.8523 5.69228C31.8523 6.41492 31.6027 6.98583 31.103 7.40303C30.6033 7.8209 29.904 8.02984 29.0057 8.02984H24.8104V9.93417H23.415V9.93485ZM28.7974 4.41938H24.8097V6.94591H28.7974C29.3377 6.94591 29.745 6.83745 30.0184 6.62051C30.2919 6.40358 30.4283 6.09417 30.4283 5.6916C30.429 4.84389 29.8847 4.41938 28.7974 4.41938Z" fill="white"/>
<path d="M33.577 9.93485V3.33545H39.3274C40.1884 3.33545 40.8391 3.52442 41.279 3.90104C41.7188 4.27832 41.9391 4.79336 41.9391 5.4474C41.9391 6.07557 41.7255 6.57861 41.2976 6.95589C40.8704 7.33317 40.2509 7.53077 39.4405 7.55006L42.0894 9.93553H40.2416L37.7058 7.61662H34.9717V9.93553H33.577V9.93485ZM39.0925 4.38212H34.973V6.56926H39.0925C40.048 6.56926 40.5258 6.20462 40.5258 5.47603C40.5251 4.74675 40.0473 4.38212 39.0925 4.38212Z" fill="white"/>
<path d="M43.9276 9.93485V3.33545H45.3229V9.93485H43.9276Z" fill="white"/>
<path d="M48.312 3.33545L51.6115 8.62401L54.9391 3.33545H56.4947L52.3096 9.93485H50.8669L46.6809 3.33545H48.312Z" fill="white"/>
<path d="M64.035 9.93485L63.0077 8.38915H57.8414L56.8236 9.93485H55.2679L59.7267 3.33545H61.1595L65.6467 9.93485H64.035ZM58.5201 7.37042H62.329L60.4153 4.49524L58.5201 7.37042Z" fill="white"/>
<path d="M68.7516 9.93485V4.41938H64.9431V3.33545H73.9649V4.41938H70.1469V9.93417H68.7516V9.93485Z" fill="white"/>
<path d="M75.4504 9.93485V3.33545H83.3695V4.36282H76.8078V6.04093H82.7567V7.06833H76.8078V8.90682H83.4445V9.93417H75.4504V9.93485Z" fill="white"/>
<path d="M17.3052 6.14627H15.9784C16.7555 6.04715 17.4203 5.76569 17.9792 5.30722C18.7032 4.71102 19.0578 3.97309 19.0578 3.09343C19.0578 2.21378 18.7032 1.47585 17.9792 0.893629C17.2699 0.297433 16.3896 0 15.3256 0H12.4079H10.2367H10.047L6.87106 7.16766L3.61396 0H1.95312H1.03088V9.93307H1.61443H1.95312V1.80722L5.64606 9.93307H6.40261H6.66745L10.2367 1.87642V9.93307H12.4079V6.14627H14.935L17.043 9.93307H19.4405L17.3052 6.14627ZM14.601 5.22404H12.4079V0.962831H14.601C15.7714 0.962831 16.5466 1.80256 16.5466 3.09343C16.5466 4.38431 15.7714 5.22404 14.601 5.22404Z" fill="white"/>
</g>
<defs>
<clipPath id="clip0_373_3592">
<rect width="83.0876" height="10.3859" fill="white" transform="translate(0.681641)"/>
</clipPath>
</defs>
</svg>
