<svg width="75" height="19" viewBox="0 0 75 19" fill="none" xmlns="http://www.w3.org/2000/svg">
<g clip-path="url(#clip0_373_3537)">
<path fill-rule="evenodd" clip-rule="evenodd" d="M6.19959 0.647461H5.03856V18.8325H6.19959V0.647461ZM2.71611 2.2852H3.87831V18.3403H2.71611V2.2852ZM0.392578 9.232H1.55478V16.8663H0.392578V9.232ZM8.52466 2.2852H7.36246V17.8493H8.52466V2.2852ZM9.68711 3.92421H10.8493V16.8674H9.68711V3.92421ZM18.8477 10.0411H24.9054C25.9764 10.0411 26.8486 10.889 26.8474 11.929V12.2256C26.8474 13.2667 25.9753 14.1146 24.9042 14.1146H19.99V15.5956H18.8477V10.0411ZM24.9054 13.0042C25.3462 13.0042 25.7051 12.6552 25.7051 12.2268V11.929C25.7051 11.5005 25.3462 11.1515 24.9054 11.1515H19.9912V13.0042H24.9054ZM74.8496 11.9301C74.8496 10.889 73.9775 10.0411 72.9065 10.0411H66.8487V15.5956H67.9911V14.1146H72.9053C73.346 14.1146 73.705 14.4635 73.705 14.892V15.5956H74.8485V14.892C74.8485 14.3715 74.631 13.9009 74.2803 13.5588C74.631 13.2167 74.8485 12.7461 74.8485 12.2256V11.9301H74.8496ZM67.9923 13.0042V11.1527H72.9065C73.3472 11.1527 73.7062 11.5016 73.7062 11.9301V12.2268C73.7062 12.6552 73.3472 13.0042 72.9065 13.0042H67.9923ZM27.991 10.0411H29.1345V15.5956H27.991V10.0411ZM36.334 10.0411H32.2195C31.1485 10.0411 30.2763 10.8879 30.2763 11.9301V13.7077C30.2763 14.7488 31.1485 15.5967 32.2195 15.5967H36.334C37.405 15.5967 38.2772 14.7488 38.2772 13.7077V11.9301C38.276 10.889 37.405 10.0411 36.334 10.0411ZM37.1337 13.7077C37.1337 14.1362 36.7748 14.4851 36.334 14.4851H32.2195C31.7788 14.4851 31.4198 14.1362 31.4198 13.7077V11.9301C31.4198 11.5016 31.7788 11.1527 32.2195 11.1527H36.334C36.7748 11.1527 37.1337 11.5016 37.1337 11.9301V13.7077ZM56.562 15.5956H48.5622V10.0411H56.562V11.1515H49.7045V12.2631H56.562V13.3747H49.7045V14.4851H56.562V15.5956ZM45.4765 10.0411H39.4189V15.5956H40.5612V11.1515H45.4754C45.9162 11.1515 46.2751 11.5005 46.2751 11.929V15.5956H47.4186V11.9301C47.4198 10.889 46.5487 10.0411 45.4765 10.0411ZM65.7063 15.5956H57.7066V10.0411H65.7063V11.1515H58.8489V12.2631H65.7063V13.3747H58.8489V14.4851H65.7063V15.5956Z" fill="white"/>
</g>
<defs>
<clipPath id="clip0_373_3537">
<rect width="74.5" height="18.185" fill="white" transform="translate(0.392578 0.647461)"/>
</clipPath>
</defs>
</svg>
