<svg width="67" height="14" viewBox="0 0 67 14" fill="none" xmlns="http://www.w3.org/2000/svg">
<g clip-path="url(#clip0_373_3529)">
<path fill-rule="evenodd" clip-rule="evenodd" d="M14.1273 2.625H13.4089C11.6836 2.625 10.3769 3.67802 10.077 5.24549L11.9091 5.54081C12.1598 4.79412 12.7357 4.28485 13.4639 4.25103C13.602 4.24127 13.7405 4.24127 13.8786 4.25103C14.9617 4.29006 15.4509 4.81167 15.4509 6.09884C15.2147 6.09884 14.9871 6.09757 14.7677 6.0963C13.0805 6.08672 11.8765 6.07989 10.9639 6.68421C10.1216 7.24229 9.76011 7.86083 9.76011 8.83838C9.76011 10.2537 10.8569 11.375 12.6269 11.375H12.8705C14.1209 11.375 15.1302 10.8865 15.541 10.2966V11.202H17.388V6.13659C17.3893 4.18274 16.3469 2.625 14.1273 2.625ZM12.9994 9.73529C12.2142 9.71254 11.7594 9.25597 11.7594 8.67904C11.7594 8.20098 11.9738 7.96359 12.2576 7.80097C12.555 7.62667 12.9411 7.56682 13.5416 7.54539C13.641 7.5418 13.737 7.53808 13.8327 7.53436H13.8334C14.2934 7.51656 14.7427 7.49919 15.4852 7.49919C15.4852 8.93012 14.5866 9.65401 13.4704 9.73074C13.3136 9.74085 13.1564 9.74238 12.9994 9.73529ZM19.3186 2.79736H22.2579L24.6278 9.09987L26.9795 2.79736H29.8158V11.2007H27.9305V4.77658L25.4751 11.2H23.5381L21.0821 4.81167V11.2007H19.3186V2.79736ZM42.1296 2.79736H48.6153V11.2007H46.6067V4.56842H43.963C43.9456 5.74892 43.9112 7.32944 43.8769 8.21463C43.8075 10.4195 43.1642 11.2007 41.2822 11.2007H40.383V9.43027H40.8844C41.7318 9.43027 42.0085 9.04781 42.0609 7.84976C42.1127 6.56521 42.1296 4.01298 42.1296 2.79736ZM66.5 2.79736H58.8735V4.56842H61.6921V11.2026H63.6814V4.56842H66.5V2.79736ZM58.4084 6.78007V7.56709L52.1208 7.57032V7.70044C52.1208 8.88939 53.0523 9.70826 54.0929 9.75118C54.2429 9.76093 54.3934 9.76093 54.543 9.75118C55.2078 9.71801 56.0377 9.38302 56.4733 8.50889L58.2535 8.82175C57.8426 10.2156 56.4491 11.2829 54.6081 11.3343L54.5219 11.3368C54.4026 11.3402 54.3375 11.3421 54.2724 11.3423C54.1945 11.3425 54.1166 11.3403 53.9459 11.3354L53.905 11.3343C51.7912 11.279 50.2086 9.75314 50.1531 7.48641C50.1421 7.03049 50.1421 6.89132 50.1531 6.5583C50.2306 4.2799 51.7349 2.66623 54.0929 2.66623H54.521C56.7118 2.66623 58.4084 4.06917 58.4084 6.78007ZM54.5536 4.24998C54.3886 4.23892 54.2231 4.23892 54.0581 4.24998V4.24933C53.04 4.30527 52.2304 4.98623 52.1305 5.99764H56.4368C56.3479 4.86461 55.4274 4.29421 54.5536 4.24998ZM39.8356 6.25717C39.7909 4.22396 38.1576 2.66623 35.9983 2.66623H35.2157C33.0564 2.66623 31.4232 4.22722 31.3778 6.26819C31.3668 6.83537 31.3668 7.16577 31.3778 7.73229C31.4232 9.77721 33.0564 11.3343 35.2157 11.3343H35.9983C38.1576 11.3343 39.7909 9.77721 39.8356 7.73229C39.8472 7.16577 39.8472 6.8243 39.8356 6.25717ZM37.8635 7.62821C37.8402 8.81589 36.9798 9.62172 35.8221 9.68091C35.6789 9.69264 35.535 9.69264 35.3919 9.68091C34.2225 9.62172 33.3739 8.81589 33.3505 7.62821C33.3388 7.13457 33.3388 6.85422 33.3505 6.36055C33.3739 5.18529 34.2225 4.37876 35.3919 4.32022C35.535 4.30787 35.679 4.30787 35.8221 4.32022C36.9798 4.37876 37.8402 5.18529 37.8635 6.37227C37.8751 6.86595 37.8751 7.13457 37.8635 7.62821ZM4.95628 9.66648C5.79461 9.5494 6.41848 9.01604 6.65173 8.23554L8.61796 8.50614C8.23379 10.1569 6.78131 11.3341 4.90251 11.3341H4.3447C2.1854 11.3341 0.551505 9.77703 0.506802 7.73211C0.497733 7.16564 0.497733 6.83519 0.506802 6.26806C0.553448 4.2238 2.18734 2.66606 4.34664 2.66606H4.90444C6.74628 2.66606 8.18649 3.80038 8.60502 5.39389L6.66145 5.77115C6.41848 4.95289 5.74665 4.41437 4.85457 4.31746C4.68212 4.30133 4.50851 4.30242 4.33628 4.32071C3.27379 4.43454 2.50284 5.24886 2.48082 6.363C2.46916 6.85667 2.46916 7.13698 2.48082 7.63066C2.50284 8.73443 3.23687 9.52013 4.27992 9.66648C4.50433 9.69719 4.73186 9.69719 4.95628 9.66648Z" fill="white"/>
</g>
<defs>
<clipPath id="clip0_373_3529">
<rect width="66" height="14" fill="white" transform="translate(0.5)"/>
</clipPath>
</defs>
</svg>
