<svg width="160" height="160" viewBox="0 0 160 160" fill="none" xmlns="http://www.w3.org/2000/svg">
<g clip-path="url(#clip0_499_5974)">
<circle cx="80" cy="80" r="80" fill="#181818"/>
<path d="M46.0039 85.3216V85.2426C46.0039 80.8861 46.6421 76.9574 47.9248 73.4564C49.2012 69.962 51.0595 66.9611 53.4872 64.4538C55.9148 61.9531 58.8681 60.0315 62.3532 58.6824C65.832 57.3399 69.7676 56.6621 74.1725 56.6621H85.7603C90.1589 56.6621 94.1132 57.3334 97.6171 58.6824C101.121 60.0249 104.087 61.9531 106.521 64.4538C108.948 66.9545 110.807 69.9554 112.083 73.4564C113.359 76.9574 114.004 80.8795 114.004 85.2426V85.3216C114.004 89.6781 113.366 93.6332 112.083 97.1868C110.807 100.74 108.948 103.754 106.521 106.229C104.093 108.703 101.121 110.618 97.6171 111.961C94.1132 113.303 90.1589 113.981 85.7603 113.981H74.1725C69.7739 113.981 65.832 113.31 62.3532 111.961C58.8744 110.618 55.9211 108.703 53.4872 106.229C51.0595 103.754 49.2012 100.74 47.9248 97.1868C46.6484 93.6332 46.0039 89.6781 46.0039 85.3216ZM54.8261 85.3216C54.8261 88.3883 55.2579 91.172 56.1276 93.6727C56.9973 96.1734 58.2487 98.2858 59.888 100.01C61.5273 101.734 63.542 103.064 65.9509 104.005C68.3536 104.946 71.0941 105.419 74.16 105.419H85.7477C91.9358 105.419 96.7223 103.616 100.101 100.01C103.48 96.4037 105.163 91.5076 105.163 85.3216V85.2426C105.163 82.176 104.725 79.4054 103.861 76.931C102.992 74.4567 101.74 72.3574 100.101 70.6332C98.4618 68.909 96.4283 67.5797 94.0006 66.6386C91.5729 65.6976 88.8199 65.2238 85.7477 65.2238H74.16C71.0878 65.2238 68.3536 65.6976 65.9509 66.6386C63.5483 67.5797 61.5273 68.9156 59.888 70.6332C58.2487 72.3574 56.9973 74.4567 56.1276 76.931C55.2579 79.4054 54.8261 82.176 54.8261 85.2426V85.3216Z" fill="white"/>
<path d="M100.063 47.6004C94.757 47.3372 89.5075 46.7186 84.4644 45.7775C83.4508 45.5867 82.5248 45.4024 81.6488 45.2247C78.1888 44.5206 75.8925 44.0534 72.7828 44.389C69.817 44.7049 66.8888 45.6657 64.0795 47.2385L61.2764 41.704C64.7677 39.7363 68.4405 38.5452 72.1759 38.1438C76.1553 37.716 79.0835 38.3083 82.7751 39.0585C83.626 39.2296 84.527 39.4139 85.5093 39.5981C90.3021 40.4931 95.2951 41.0788 100.351 41.3289L100.069 47.5938L100.063 47.6004Z" fill="white"/>
</g>
<defs>
<clipPath id="clip0_499_5974">
<rect width="160" height="160" fill="white"/>
</clipPath>
</defs>
</svg>
