<svg width="65" height="72" viewBox="0 0 65 72" fill="none" xmlns="http://www.w3.org/2000/svg">
<g filter="url(#filter0_b_932_21531)">
<rect x="0.5" width="64" height="60" rx="4" fill="#181818"/>
</g>
<path d="M32.5584 71.3676C32.3625 71.6989 31.8814 71.694 31.6924 71.3587L24.0373 57.7793C23.8483 57.444 24.0931 57.0299 24.478 57.0338L40.0656 57.194C40.4505 57.1979 40.6868 57.617 40.4909 57.9484L32.5584 71.3676Z" fill="#181818"/>
<path d="M10.9258 24.464V24.4544C10.9258 23.9257 11.0059 23.4489 11.167 23.024C11.3272 22.5999 11.5605 22.2357 11.8653 21.9314C12.1701 21.628 12.5409 21.3948 12.9785 21.231C13.4153 21.0681 13.9094 20.9858 14.4624 20.9858H15.9173C16.4696 20.9858 16.966 21.0673 17.406 21.231C17.8459 21.394 18.2182 21.628 18.5238 21.9314C18.8286 22.2349 19.0619 22.5991 19.2222 23.024C19.3825 23.4489 19.4634 23.9249 19.4634 24.4544V24.464C19.4634 24.9927 19.3832 25.4727 19.2222 25.904C19.0619 26.3352 18.8286 26.701 18.5238 27.0013C18.219 27.3016 17.8459 27.534 17.406 27.697C16.966 27.8599 16.4696 27.9421 15.9173 27.9421H14.4624C13.9102 27.9421 13.4153 27.8607 12.9785 27.697C12.5417 27.534 12.1709 27.3016 11.8653 27.0013C11.5605 26.701 11.3272 26.3352 11.167 25.904C11.0067 25.4727 10.9258 24.9927 10.9258 24.464ZM12.0334 24.464C12.0334 24.8362 12.0876 25.174 12.1968 25.4775C12.306 25.781 12.4631 26.0373 12.669 26.2466C12.8748 26.4558 13.1277 26.6172 13.4302 26.7314C13.7318 26.8456 14.0759 26.9031 14.4609 26.9031H15.9157C16.6927 26.9031 17.2936 26.6843 17.7178 26.2466C18.142 25.8089 18.3534 25.2147 18.3534 24.464V24.4544C18.3534 24.0822 18.2984 23.746 18.19 23.4457C18.0808 23.1454 17.9237 22.8906 17.7178 22.6814C17.512 22.4721 17.2567 22.3108 16.9519 22.1966C16.6471 22.0824 16.3014 22.0249 15.9157 22.0249H14.4609C14.0751 22.0249 13.7318 22.0824 13.4302 22.1966C13.1285 22.3108 12.8748 22.4729 12.669 22.6814C12.4631 22.8906 12.306 23.1454 12.1968 23.4457C12.0876 23.746 12.0334 24.0822 12.0334 24.4544V24.464Z" fill="white"/>
<path d="M25.2263 22.6028H26.3442L28.1848 26.3446L29.6397 21.0742H30.8439L28.8494 27.8524H27.7896L25.7951 23.7186H25.7754L23.7714 27.8524H22.7211L20.7266 21.0742H21.9308L23.3763 26.3446L25.2263 22.6028Z" fill="white"/>
<path d="M38.7788 21.0742H39.877V27.8524H38.8267L33.6529 22.7586V27.8524H32.5547V21.0742H33.605L38.7788 26.1776V21.0742Z" fill="white"/>
<path d="M17.8183 35.3018C17.6714 34.9904 17.4561 34.7556 17.1725 34.5966C16.8889 34.4377 16.5236 34.3586 16.0774 34.3586H14.4992C14.0459 34.3586 13.6987 34.4353 13.4568 34.5871C13.214 34.7396 13.093 34.952 13.093 35.2244C13.093 35.432 13.1724 35.6133 13.3319 35.7691C13.4913 35.9248 13.7781 36.0382 14.1928 36.1093L16.8614 36.4304C17.2055 36.4887 17.4946 36.5797 17.7271 36.7027C17.9597 36.8257 18.1451 36.9734 18.2817 37.1451C18.4184 37.3169 18.5174 37.5085 18.5779 37.7186C18.6384 37.9294 18.669 38.1515 18.669 38.3847C18.669 38.9549 18.4538 39.4141 18.0233 39.7607C17.5928 40.1074 16.9793 40.2807 16.1819 40.2807H14.5652C13.8448 40.2807 13.2502 40.1497 12.7812 39.8869C12.3122 39.6242 11.9854 39.2432 11.8008 38.7441L12.7482 38.1507C12.9014 38.5588 13.1308 38.8543 13.4371 39.0356C13.7435 39.2169 14.1261 39.3079 14.5848 39.3079H16.2016C16.6603 39.3079 17.0083 39.2241 17.244 39.0547C17.4797 38.8862 17.5983 38.6562 17.5983 38.3639C17.5983 38.0979 17.5135 37.8871 17.3446 37.7314C17.1757 37.5756 16.9031 37.4622 16.5268 37.3911L13.7624 37.0413C13.4434 36.983 13.174 36.8968 12.954 36.7834C12.734 36.6699 12.5534 36.535 12.4135 36.38C12.2729 36.2243 12.1724 36.051 12.1119 35.8601C12.0514 35.6692 12.0207 35.4664 12.0207 35.2523C12.0207 34.6685 12.236 34.2101 12.6665 33.8762C13.097 33.5424 13.7239 33.3755 14.5464 33.3755H16.1057C16.731 33.3755 17.2519 33.4857 17.6698 33.7061C18.0877 33.9266 18.3886 34.2316 18.574 34.6206L17.8183 35.3011V35.3018Z" fill="white"/>
<path d="M26.5789 33.4639V34.5237H23.7281V40.1934H22.6181V34.5237H19.7578V33.4639H26.5781H26.5789Z" fill="white"/>
<path d="M27.4492 36.8286V36.819C27.4492 36.2935 27.5286 35.8207 27.688 35.399C27.8475 34.9773 28.0785 34.6163 28.3817 34.3144C28.6841 34.0133 29.0526 33.7809 29.4862 33.6188C29.9198 33.4566 30.4108 33.376 30.9592 33.376H32.4038C32.9521 33.376 33.4447 33.4574 33.8815 33.6188C34.3183 33.7809 34.6883 34.0125 34.9915 34.3144C35.2939 34.6163 35.5257 34.9773 35.6851 35.399C35.8446 35.8207 35.924 36.2935 35.924 36.819V36.8286C35.924 37.3541 35.8438 37.8301 35.6851 38.2582C35.5257 38.6862 35.2947 39.0496 34.9915 39.3475C34.6883 39.6454 34.3183 39.8762 33.8815 40.0384C33.4447 40.2005 32.9521 40.2812 32.4038 40.2812H30.9592C30.4108 40.2812 29.9198 40.1997 29.4862 40.0384C29.0526 39.8762 28.6841 39.6462 28.3817 39.3475C28.0785 39.0496 27.8475 38.6862 27.688 38.2582C27.5286 37.8301 27.4492 37.3533 27.4492 36.8286ZM28.5498 36.8286C28.5498 37.1983 28.604 37.5338 28.7124 37.8349C28.8208 38.136 28.9772 38.3907 29.1814 38.5984C29.3857 38.806 29.637 38.9666 29.9371 39.08C30.2364 39.1934 30.5781 39.2501 30.9607 39.2501H32.4054C33.1768 39.2501 33.7731 39.0329 34.1941 38.5984C34.6152 38.1639 34.8257 37.5737 34.8257 36.8286V36.819C34.8257 36.4492 34.7715 36.1154 34.6631 35.8175C34.5547 35.5196 34.3984 35.2664 34.1941 35.0587C33.9899 34.8511 33.7361 34.6906 33.4337 34.5772C33.1305 34.4637 32.788 34.407 32.4054 34.407H30.9607C30.5781 34.407 30.2372 34.4637 29.9371 34.5772C29.637 34.6906 29.3857 34.8511 29.1814 35.0587C28.9772 35.2664 28.8208 35.5196 28.7124 35.8175C28.604 36.1154 28.5498 36.45 28.5498 36.819V36.8286Z" fill="white"/>
<path d="M43.816 33.4639H44.9064V40.1941H43.8639L38.7271 35.1371V40.1941H37.6367V33.4639H38.6792L43.816 38.5305V33.4639Z" fill="white"/>
<path d="M53.0685 33.4635V34.4746H48.1037V36.3419H52.638V37.3434H48.1037V39.1811H53.0685V40.1922H47.0039V33.4619H53.0685V33.4635Z" fill="white"/>
<path d="M44.0296 22.9666L44.1828 23.0441C44.0366 23.342 43.8143 23.4913 43.5174 23.4913C43.3548 23.4913 43.2173 23.4506 43.1049 23.3699C42.9926 23.2893 42.9093 23.187 42.8551 23.0648C42.8009 22.9418 42.7734 22.8188 42.7734 22.6951C42.7734 22.5641 42.8001 22.4379 42.8544 22.3165C42.9086 22.1943 42.9918 22.0945 43.1042 22.017C43.2165 21.9387 43.354 21.9004 43.5166 21.9004C43.6792 21.9004 43.8065 21.9403 43.907 22.0202C44.0076 22.1001 44.0783 22.1951 44.1199 22.3053C44.1615 22.4155 44.1828 22.5186 44.1828 22.6144V22.7126H42.9871C42.9871 22.8236 43.0091 22.9259 43.0523 23.0201C43.0955 23.1143 43.1576 23.1894 43.2377 23.2453C43.3178 23.3012 43.4113 23.3292 43.5166 23.3292C43.746 23.3292 43.9172 23.2086 44.0296 22.9666ZM43.0036 22.5497H43.9832C43.9801 22.461 43.9581 22.3796 43.918 22.3045C43.8779 22.2302 43.823 22.1711 43.7538 22.1272C43.6847 22.0841 43.6069 22.0617 43.5197 22.0617C43.3775 22.0617 43.2613 22.108 43.1702 22.2015C43.079 22.2941 43.0232 22.4099 43.0036 22.5489V22.5497Z" fill="white"/>
<path d="M44.4773 23.1285L44.6407 23.0407C44.6682 23.1269 44.7138 23.1964 44.7774 23.2491C44.8411 23.3019 44.9165 23.3282 45.0037 23.3282C45.1003 23.3282 45.1749 23.3011 45.2276 23.2459C45.2802 23.1908 45.3069 23.1214 45.3069 23.0375C45.3069 22.9433 45.2763 22.8762 45.2158 22.837C45.1545 22.7971 45.0705 22.7612 44.9636 22.7292C44.8756 22.7013 44.8026 22.6725 44.7452 22.643C44.6879 22.6134 44.64 22.5719 44.6015 22.5184C44.563 22.4649 44.5433 22.3954 44.5433 22.3123C44.5433 22.2348 44.5622 22.1654 44.5991 22.1023C44.636 22.0392 44.6902 21.9897 44.7594 21.9537C44.8285 21.9178 44.911 21.8994 45.0053 21.8994C45.2119 21.8994 45.3619 22 45.4546 22.2013L45.3053 22.2828C45.2802 22.2189 45.2394 22.1662 45.1828 22.1246C45.1262 22.0831 45.0618 22.0623 44.9895 22.0623C44.911 22.0623 44.8497 22.0855 44.8073 22.131C44.7649 22.1765 44.7429 22.2317 44.7429 22.2963C44.7429 22.3483 44.7547 22.3898 44.779 22.4201C44.8026 22.4513 44.8324 22.4744 44.867 22.4896C44.9016 22.5048 44.9581 22.5264 45.0359 22.5527C45.1302 22.5839 45.2087 22.6142 45.2723 22.6446C45.3352 22.6749 45.3918 22.722 45.4397 22.7851C45.4884 22.8482 45.5127 22.9305 45.5127 23.0303C45.5127 23.1525 45.4687 23.2603 45.3808 23.3522C45.2928 23.4448 45.16 23.4903 44.9833 23.4903C44.7389 23.4903 44.57 23.3697 44.4766 23.1277L44.4773 23.1285Z" fill="white"/>
<path d="M45.9747 23.4306V22.1232H45.7422V21.9602H45.9747V21.3916H46.175V21.9602H46.4547V22.1232H46.175V23.4306H45.9747Z" fill="white"/>
<path d="M47.9891 22.2221V21.9601H48.1753V23.4304H47.9891V23.1797C47.9341 23.2787 47.8603 23.3554 47.7676 23.4097C47.6749 23.464 47.5712 23.4911 47.4565 23.4911C47.3174 23.4911 47.191 23.4584 47.0755 23.3929C46.96 23.3274 46.8697 23.234 46.8029 23.1126C46.7361 22.9912 46.7031 22.8522 46.7031 22.6949C46.7031 22.5911 46.7196 22.4912 46.7526 22.3962C46.7856 22.3011 46.8343 22.2157 46.8995 22.1406C46.9647 22.0655 47.0448 22.0064 47.1391 21.9633C47.2334 21.9202 47.3402 21.8994 47.4596 21.8994C47.7 21.8994 47.876 22.0072 47.9891 22.2221ZM47.4557 23.3282C47.5492 23.3282 47.6364 23.3043 47.7181 23.2563C47.7998 23.2084 47.8658 23.1365 47.9145 23.0407C47.964 22.9449 47.9883 22.8298 47.9883 22.6949C47.9883 22.6142 47.9773 22.5359 47.9553 22.4617C47.9333 22.3874 47.8996 22.3195 47.8548 22.2588C47.81 22.1981 47.755 22.1502 47.689 22.1143C47.623 22.0791 47.5468 22.0615 47.462 22.0615C47.3504 22.0615 47.253 22.0911 47.1705 22.1494C47.0881 22.2077 47.0244 22.286 46.9812 22.3826C46.938 22.48 46.916 22.5839 46.916 22.6949C46.916 22.8179 46.9396 22.9273 46.9867 23.0239C47.0338 23.1206 47.0991 23.1956 47.1815 23.2483C47.264 23.3011 47.3551 23.3274 47.4557 23.3274V23.3282Z" fill="white"/>
<path d="M48.7521 23.4306V22.1232H48.5195V21.9602H48.7521V21.3916H48.9524V21.9602H49.232V22.1232H48.9524V23.4306H48.7521Z" fill="white"/>
<path d="M50.7397 22.9666L50.8929 23.0441C50.7468 23.342 50.5245 23.4913 50.2275 23.4913C50.0649 23.4913 49.9274 23.4506 49.8151 23.3699C49.7028 23.2893 49.6195 23.187 49.5653 23.0648C49.5111 22.9418 49.4844 22.8188 49.4844 22.6951C49.4844 22.5641 49.5111 22.4379 49.5653 22.3165C49.6195 22.1943 49.702 22.0945 49.8151 22.017C49.9274 21.9387 50.0649 21.9004 50.2275 21.9004C50.3901 21.9004 50.5174 21.9403 50.618 22.0202C50.7185 22.1001 50.7892 22.1951 50.8308 22.3053C50.8725 22.4155 50.8937 22.5186 50.8937 22.6144V22.7126H49.6981C49.6981 22.8236 49.72 22.9259 49.7633 23.0201C49.8065 23.1143 49.8685 23.1894 49.9486 23.2453C50.0288 23.3012 50.1223 23.3292 50.2275 23.3292C50.4569 23.3292 50.6282 23.2086 50.7405 22.9666H50.7397ZM49.713 22.5497H50.6918C50.6887 22.461 50.6667 22.3796 50.6266 22.3045C50.5865 22.2302 50.5315 22.1711 50.4624 22.1272C50.3933 22.0833 50.3155 22.0617 50.2283 22.0617C50.0861 22.0617 49.9699 22.108 49.8787 22.2015C49.7876 22.2941 49.7318 22.4099 49.7122 22.5489L49.713 22.5497Z" fill="white"/>
<path d="M44.0594 25.7968V25.5348H44.2456V27.0051H44.0594V26.7544C44.0044 26.8534 43.9306 26.9301 43.8379 26.9844C43.7452 27.0387 43.6415 27.0658 43.5268 27.0658C43.3878 27.0658 43.2613 27.0331 43.1458 26.9676C43.0303 26.9021 42.94 26.8087 42.8732 26.6873C42.8064 26.5659 42.7734 26.4269 42.7734 26.2696C42.7734 26.1658 42.7899 26.0659 42.8229 25.9709C42.8559 25.8758 42.9046 25.7904 42.9698 25.7153C43.035 25.6402 43.1152 25.5811 43.2094 25.538C43.3037 25.4957 43.4105 25.4741 43.5299 25.4741C43.7703 25.4741 43.9463 25.5819 44.0594 25.7968ZM43.526 26.9037C43.6195 26.9037 43.7067 26.8798 43.7884 26.8318C43.8701 26.7839 43.9361 26.712 43.9848 26.6162C44.0343 26.5204 44.0586 26.4054 44.0586 26.2704C44.0586 26.1897 44.0476 26.1114 44.0256 26.0372C44.0036 25.9629 43.9699 25.895 43.9251 25.8343C43.8803 25.7736 43.8253 25.7257 43.7593 25.6898C43.6933 25.6546 43.6171 25.637 43.5323 25.637C43.4207 25.637 43.3233 25.6666 43.2409 25.7249C43.1584 25.7832 43.0947 25.8615 43.0515 25.9581C43.0083 26.0555 42.9863 26.1594 42.9863 26.2704C42.9863 26.3934 43.0099 26.5028 43.057 26.5994C43.1042 26.6961 43.1694 26.7711 43.2519 26.8239C43.3343 26.8766 43.4255 26.9029 43.526 26.9029V26.9037Z" fill="white"/>
<path d="M44.7464 27.2791H44.9664C44.9939 27.3917 45.0528 27.4732 45.1432 27.5243C45.2327 27.5754 45.3317 27.6009 45.4393 27.6009C45.6483 27.6009 45.7865 27.5347 45.8541 27.4005C45.9217 27.2671 45.9554 27.1194 45.9554 26.9572V26.7775C45.8989 26.871 45.8235 26.9429 45.7308 26.9916C45.6381 27.0403 45.5399 27.065 45.4362 27.065C45.3325 27.065 45.2351 27.0467 45.1439 27.0099C45.0528 26.9732 44.9727 26.9197 44.9036 26.8502C44.8344 26.7807 44.7802 26.6961 44.7417 26.5978C44.7032 26.4988 44.6836 26.3894 44.6836 26.2696C44.6836 26.1314 44.7134 26.0012 44.7724 25.879C44.8313 25.7568 44.9185 25.6594 45.0332 25.5851C45.1479 25.5109 45.2846 25.4741 45.4425 25.4741C45.686 25.4741 45.8619 25.5819 45.9688 25.7968V25.5348H46.1558V26.958C46.1558 27.109 46.1306 27.2455 46.0796 27.3669C46.0293 27.4883 45.9499 27.585 45.8423 27.6569C45.7347 27.7287 45.6004 27.7647 45.4393 27.7647C45.2194 27.7647 45.0567 27.716 44.9523 27.6193C44.847 27.5227 44.7786 27.4093 44.7472 27.2799L44.7464 27.2791ZM45.4362 26.9029C45.5297 26.9029 45.6169 26.879 45.6986 26.831C45.7802 26.7831 45.8455 26.7112 45.8949 26.6154C45.9444 26.5196 45.9688 26.4046 45.9688 26.2696C45.9688 26.1634 45.9484 26.0611 45.9083 25.9645C45.8674 25.8671 45.8077 25.788 45.7284 25.7281C45.6491 25.6682 45.554 25.637 45.4425 25.637C45.3309 25.637 45.2319 25.6658 45.1502 25.7241C45.0685 25.7824 45.0049 25.8599 44.9617 25.9573C44.9185 26.0547 44.8965 26.1586 44.8965 26.2704C44.8965 26.3934 44.92 26.5028 44.9672 26.5994C45.0143 26.6961 45.0795 26.7711 45.1612 26.8239C45.2437 26.8766 45.3348 26.9029 45.4354 26.9029H45.4362Z" fill="white"/>
<path d="M47.8491 26.5403L48.0023 26.6178C47.8562 26.9157 47.6338 27.065 47.3369 27.065C47.1743 27.065 47.0368 27.0243 46.9245 26.9436C46.8121 26.863 46.7289 26.7616 46.6747 26.6386C46.6205 26.5156 46.5938 26.3926 46.5938 26.2688C46.5938 26.1378 46.6205 26.0116 46.6747 25.8902C46.7289 25.768 46.8114 25.6682 46.9245 25.5907C47.0376 25.5133 47.1743 25.4741 47.3369 25.4741C47.4995 25.4741 47.6268 25.5141 47.7273 25.5939C47.8279 25.6738 47.8986 25.7688 47.9402 25.879C47.9819 25.9893 48.0031 26.0923 48.0031 26.1881V26.2864H46.8074C46.8074 26.3974 46.8294 26.4996 46.8726 26.5938C46.9158 26.6881 46.9779 26.7632 47.058 26.8191C47.1382 26.875 47.2316 26.9029 47.3369 26.9029C47.5663 26.9029 47.7375 26.7823 47.8499 26.5403H47.8491ZM46.8224 26.1234H47.8012C47.798 26.0348 47.776 25.9533 47.736 25.879C47.6959 25.8048 47.6409 25.7457 47.5718 25.7017C47.5027 25.6586 47.4249 25.6362 47.3377 25.6362C47.1955 25.6362 47.0792 25.6826 46.9881 25.776C46.897 25.8695 46.8412 25.9853 46.8216 26.1234H46.8224Z" fill="white"/>
<path d="M48.4344 27.0051V25.5348H48.6347V25.7792C48.7408 25.5756 48.9034 25.4741 49.121 25.4741C49.2907 25.4741 49.4171 25.5284 49.4996 25.6362C49.5821 25.7449 49.6237 25.887 49.6237 26.0627V27.0043H49.4234V26.0907C49.4234 25.9677 49.4038 25.8615 49.3637 25.7712C49.3244 25.6818 49.2349 25.6362 49.0966 25.6362C49.0031 25.6362 48.9206 25.6642 48.8507 25.7209C48.7808 25.7768 48.7266 25.8519 48.6897 25.9445C48.6528 26.038 48.6339 26.1354 48.6339 26.2384V27.0035H48.4336L48.4344 27.0051Z" fill="white"/>
<path d="M51.3375 26.72V26.9333C51.1914 27.0211 51.0429 27.0658 50.8913 27.0658C50.7397 27.0658 50.6116 27.0347 50.4836 26.9708C50.3563 26.9077 50.2534 26.8159 50.1772 26.6953C50.101 26.5747 50.0625 26.4325 50.0625 26.2696C50.0625 26.1266 50.0955 25.9948 50.1615 25.8734C50.2275 25.7521 50.3233 25.6554 50.449 25.5827C50.5747 25.5109 50.7216 25.4741 50.8889 25.4741C51.0712 25.4741 51.2212 25.5157 51.3383 25.5995V25.8C51.1867 25.6914 51.0413 25.637 50.9023 25.637C50.7829 25.637 50.6752 25.6634 50.5802 25.7161C50.4851 25.7688 50.4105 25.8431 50.3563 25.9389C50.3029 26.0348 50.2762 26.145 50.2762 26.2696C50.2762 26.3862 50.3013 26.4924 50.3508 26.589C50.4003 26.6857 50.4718 26.7624 50.5637 26.8183C50.6556 26.8742 50.7617 26.9029 50.8818 26.9029C51.0476 26.9029 51.1992 26.8422 51.3383 26.72H51.3375Z" fill="white"/>
<path d="M51.5039 25.5352H51.7309L52.2738 26.7787L52.7373 25.5352H52.9399L52.0876 27.7163H51.8716L52.1709 26.9919L51.5047 25.5352H51.5039Z" fill="white"/>
<path d="M17.7135 19.8834C17.0473 19.8514 16.3882 19.7764 15.7551 19.6622C15.6278 19.639 15.5116 19.6166 15.4016 19.5951C14.9671 19.5096 14.6788 19.4529 14.2884 19.4936C13.9161 19.532 13.5484 19.6486 13.1957 19.8395L12.8438 19.1678C13.2821 18.929 13.7432 18.7844 14.2122 18.7357C14.7118 18.6838 15.0795 18.7557 15.543 18.8467C15.6498 18.8675 15.7629 18.8899 15.8863 18.9122C16.488 19.0208 17.1149 19.0919 17.7496 19.1223L17.7143 19.8826L17.7135 19.8834Z" fill="white"/>
<path d="M34.1804 32.2618C33.4691 32.2277 32.7653 32.1475 32.0892 32.0256C31.9533 32.0009 31.8291 31.977 31.7117 31.954C31.2478 31.8627 30.94 31.8022 30.5231 31.8456C30.1255 31.8866 29.7329 32.0111 29.3563 32.2149L28.9805 31.4977C29.4494 31.2436 29.9418 31.0892 30.4426 31.0372C30.9761 30.9818 31.3686 31.0585 31.8635 31.1557C31.9776 31.1779 32.0984 31.2018 32.2301 31.2257C32.8727 31.3416 33.542 31.4175 34.2198 31.4499L34.1821 32.2618H34.1804Z" fill="white"/>
<defs>
<filter id="filter0_b_932_21531" x="-19.5" y="-20" width="104" height="100" filterUnits="userSpaceOnUse" color-interpolation-filters="sRGB">
<feFlood flood-opacity="0" result="BackgroundImageFix"/>
<feGaussianBlur in="BackgroundImageFix" stdDeviation="10"/>
<feComposite in2="SourceAlpha" operator="in" result="effect1_backgroundBlur_932_21531"/>
<feBlend mode="normal" in="SourceGraphic" in2="effect1_backgroundBlur_932_21531" result="shape"/>
</filter>
</defs>
</svg>
