<svg width="240" height="56" viewBox="0 0 240 56" fill="none" xmlns="http://www.w3.org/2000/svg">
<rect width="56" height="56" rx="28" fill="white"/>
<rect x="0.5" y="0.5" width="55" height="55" rx="27.5" stroke="#181818" stroke-opacity="0.15"/>
<path d="M38.9718 19.5464C39.6271 20.3933 40.1738 21.3222 40.6384 22.3055L28.0125 31.6215L22.7109 28.2882V24.2997L27.9848 27.6053L38.9718 19.5464Z" fill="#21A038"/>
<path d="M17.3309 28.0153C17.3309 27.8235 17.3309 27.6594 17.3575 27.4688L14.1606 27.3047C14.1606 27.5242 14.1328 27.7692 14.1328 27.9875C14.1328 31.8119 15.6908 35.2827 18.2047 37.7957L20.4735 35.5277C19.4755 34.5478 18.6833 33.3786 18.1434 32.0885C17.6036 30.7985 17.3281 29.4136 17.3309 28.0153Z" fill="url(#paint0_linear_2795_60254)"/>
<path d="M27.9881 17.3589C28.1788 17.3589 28.3429 17.3589 28.5347 17.3867L28.6989 14.1897C28.4793 14.1897 28.2342 14.1631 28.0158 14.1631C24.1901 14.1631 20.7181 15.7194 18.2031 18.2336L20.4731 20.5005C21.455 19.5052 22.625 18.7149 23.9151 18.1756C25.2052 17.6363 26.5897 17.3587 27.9881 17.3589Z" fill="url(#paint1_linear_2795_60254)"/>
<path d="M27.9921 38.6672C27.8014 38.6672 27.6372 38.6672 27.4454 38.6406L27.2812 41.8364C27.5009 41.8364 27.7459 41.8642 27.9655 41.8642C31.7911 41.8642 35.262 40.3067 37.7758 37.7937L35.5082 35.5256C33.5953 37.4933 30.944 38.6672 27.9921 38.6672Z" fill="url(#paint2_linear_2795_60254)"/>
<path d="M33.9968 19.2154L36.7025 17.2211C34.2349 15.2261 31.158 14.1365 27.9844 14.1339V17.3309C30.2266 17.3575 32.3024 18.0403 33.9968 19.2154Z" fill="url(#paint3_linear_2795_60254)"/>
<path d="M41.8639 28.0121C41.8639 27.1651 41.7818 26.3448 41.6443 25.5256L38.6658 27.7382V28.0121C38.6671 29.5019 38.3538 30.9752 37.7463 32.3357C37.1388 33.6962 36.2509 34.9131 35.1406 35.9069L37.2996 38.2847C38.7371 36.9868 39.886 35.4017 40.6722 33.632C41.4585 31.8622 41.8644 29.9473 41.8639 28.0109V28.0121Z" fill="#21A038"/>
<path d="M27.9937 38.6662C26.5034 38.6675 25.0296 38.3543 23.6686 37.747C22.3077 37.1398 21.0904 36.2521 20.0962 35.1422L17.7188 37.3005C19.0147 38.7399 20.5995 39.8901 22.3699 40.6763C24.1403 41.4625 26.0565 41.8669 27.9937 41.8632V38.6662Z" fill="url(#paint4_linear_2795_60254)"/>
<path d="M20.8561 20.1188L18.6971 17.7422C17.2572 19.0378 16.1066 20.622 15.3202 22.3918C14.5338 24.1616 14.1292 26.0772 14.1328 28.0137H17.3309C17.3324 26.5243 17.647 25.0519 18.2543 23.6918C18.8616 22.3318 19.748 21.1145 20.8561 20.1188Z" fill="url(#paint5_linear_2795_60254)"/>
<rect x="46" width="56" height="56" rx="28" fill="#0B2973"/>
<path fill-rule="evenodd" clip-rule="evenodd" d="M65.8037 19.4667L64.1193 23.9787H87.4611L89.1455 19.4667H65.8037ZM63.2766 26.2337L61.5922 30.7447H84.934L86.6184 26.2337H63.2766ZM60.7547 33.0008L59.0703 37.5118H82.4122L84.0955 33.0008H60.7547Z" fill="#00AAFF"/>
<rect x="92" width="56" height="56" rx="28" fill="#EF3124"/>
<g clip-path="url(#clip0_2795_60254)">
<path fill-rule="evenodd" clip-rule="evenodd" d="M111.789 40.8729V37.4765H128.017V40.8729H111.789ZM117.585 26.5586H122.095L119.945 19.7448H119.861L117.585 26.5586H117.585ZM122.853 18.4868L127.638 32.8623H124.097L123.022 29.4454H116.615L115.456 32.8628H112.127L117.148 18.4872C117.634 17.0928 118.202 15.9995 120.03 15.9995C121.857 15.9995 122.39 17.0968 122.853 18.4868Z" fill="white"/>
</g>
<rect x="138" width="56" height="56" rx="28" fill="white"/>
<rect x="138.5" y="0.5" width="55" height="55" rx="27.5" stroke="#181818" stroke-opacity="0.15"/>
<path d="M168.391 16.2539V22.3845H165.979C162.932 22.3845 160.477 24.8034 160.477 27.8064C160.477 30.8083 162.932 33.2273 165.978 33.2273H168.391V39.3578C173.892 38.3153 177.999 33.5612 177.999 27.8053C177.999 22.0924 173.893 17.3383 168.391 16.2539Z" fill="#013791"/>
<path d="M165.978 35.141C161.873 35.141 158.528 31.8471 158.528 27.8027C158.528 23.7583 161.871 20.4632 165.976 20.4632H166.442V16H165.977C159.376 16 154 21.2963 154 27.8015C154 34.3498 159.376 39.6461 165.978 39.6461H166.443V35.1433H165.978V35.141Z" fill="#FC5055"/>
<rect x="184" width="56" height="56" rx="28" fill="#181818"/>
<path d="M204.225 31.83H203.016V29.36H200.624V28.151H203.016V25.681H204.225V28.151H206.617V29.36H204.225V31.83ZM212.007 33V26.331C211.617 26.695 210.928 26.76 210.122 26.76V25.616C211.708 25.577 212.176 25.096 212.293 24.017H213.411V33H212.007ZM218.453 33.182C215.879 33.182 214.956 31.271 214.956 28.528C214.956 25.577 216.243 23.835 218.466 23.835C220.156 23.835 221.261 24.953 221.417 26.292H219.974C219.857 25.551 219.428 25.005 218.466 25.005C216.789 25.005 216.36 26.565 216.36 28.112V28.242L216.399 28.255C216.867 27.501 217.686 27.072 218.713 27.072C220.455 27.072 221.664 28.294 221.664 30.062C221.664 31.804 220.442 33.182 218.453 33.182ZM218.414 32.012C219.597 32.012 220.234 31.271 220.234 30.14C220.234 28.957 219.545 28.255 218.505 28.255C217.27 28.255 216.516 29.035 216.516 30.166C216.516 31.258 217.192 32.012 218.414 32.012Z" fill="white"/>
<defs>
<linearGradient id="paint0_linear_2795_60254" x1="18.8623" y1="37.4064" x2="15.3635" y2="27.2889" gradientUnits="userSpaceOnUse">
<stop offset="0.144" stop-color="#F2E913"/>
<stop offset="0.304" stop-color="#E7E518"/>
<stop offset="0.582" stop-color="#CADB26"/>
<stop offset="0.891" stop-color="#A3CD39"/>
</linearGradient>
<linearGradient id="paint1_linear_2795_60254" x1="19.1162" y1="18.7916" x2="28.1329" y2="15.3534" gradientUnits="userSpaceOnUse">
<stop offset="0.059" stop-color="#0FA8E0"/>
<stop offset="0.538" stop-color="#0099F9"/>
<stop offset="0.923" stop-color="#0291EB"/>
</linearGradient>
<linearGradient id="paint2_linear_2795_60254" x1="27.094" y1="39.9115" x2="37.2912" y2="37.6062" gradientUnits="userSpaceOnUse">
<stop offset="0.123" stop-color="#A3CD39"/>
<stop offset="0.285" stop-color="#86C339"/>
<stop offset="0.869" stop-color="#21A038"/>
</linearGradient>
<linearGradient id="paint3_linear_2795_60254" x1="27.3279" y1="15.2119" x2="36.0455" y2="17.9033" gradientUnits="userSpaceOnUse">
<stop offset="0.057" stop-color="#0291EB"/>
<stop offset="0.79" stop-color="#0C8ACB"/>
</linearGradient>
<linearGradient id="paint4_linear_2795_60254" x1="18.5313" y1="36.9019" x2="28.0207" y2="40.4488" gradientUnits="userSpaceOnUse">
<stop offset="0.132" stop-color="#F2E913"/>
<stop offset="0.298" stop-color="#EBE716"/>
<stop offset="0.531" stop-color="#D9E01F"/>
<stop offset="0.802" stop-color="#BBD62D"/>
<stop offset="0.983" stop-color="#A3CD39"/>
</linearGradient>
<linearGradient id="paint5_linear_2795_60254" x1="15.3325" y1="28.4008" x2="19.1398" y2="18.4935" gradientUnits="userSpaceOnUse">
<stop offset="0.07" stop-color="#A3CD39"/>
<stop offset="0.26" stop-color="#81C55F"/>
<stop offset="0.922" stop-color="#0FA8E0"/>
</linearGradient>
<clipPath id="clip0_2795_60254">
<rect width="18" height="24.8824" fill="white" transform="translate(111 15.9998)"/>
</clipPath>
</defs>
</svg>
